<?xml version="1.0" encoding="UTF-8" standalone="no"?>
<!DOCTYPE svg PUBLIC "-//W3C//DTD SVG 1.1//EN" "http://www.w3.org/Graphics/SVG/1.1/DTD/svg11.dtd">
<svg width="100%" height="100%" viewBox="270.7 210.2 731.6 731.6" version="1.1" xmlns="http://www.w3.org/2000/svg" xmlns:xlink="http://www.w3.org/1999/xlink" xml:space="preserve" xmlns:serif="http://www.serif.com/" style="fill-rule:evenodd;clip-rule:evenodd;stroke-linejoin:round;stroke-miterlimit:2;">
    <g transform="matrix(1.038086,0,0,1.038086,54,171)">
        <clipPath id="_clip1">
            <rect x="292.433" y="106.653" width="537.493" height="567.596"/>
        </clipPath>
        <g clip-path="url(#_clip1)">
            <path d="M496.238,221.039C498.073,220.225 521.454,218.711 524.531,222.471C526.184,224.492 545.505,277.428 544.744,280.57C544.323,282.308 541.933,283.881 543.769,285.153C545.474,286.334 564.331,299.402 565.474,299.319C565.938,299.286 566.52,299.309 574.845,268.575C575.991,264.345 563.752,265.141 566.316,258.413C567.277,255.891 571.066,256.299 571.51,256.347C575.916,256.822 577.515,258.785 578.601,254.527C586.588,223.208 596.486,226.527 612.506,216.509C615.892,214.392 613.268,211.967 620.228,207.192C625.092,203.855 603.457,208.953 599.27,175.533C596.957,157.071 599.479,156.143 594.775,150.289C589.929,144.259 592.841,143.132 588.867,130.403C587.075,124.663 589.338,116.656 594.432,114.367C597.743,112.879 597.308,112.369 599.694,109.669C606.145,102.371 608.232,110.9 624.523,108.67C648.221,105.427 652.802,109.457 657.842,118.297C659.089,120.483 673.643,119.383 672.213,140.474C671.589,149.674 666.718,153.252 669.703,158.387C672.995,164.052 669.619,174.332 662.586,176.722C658.894,177.977 658.259,178.02 657.899,182.53C656.565,199.23 657.169,199.775 658.251,200.751C666.735,208.409 663.475,212.151 667.386,213.765C706.401,229.863 707.599,240.752 707.952,281.499C708.171,306.759 704.574,337.65 695.113,346.089C690.984,349.772 688.51,348.58 688.831,352.473C689.62,362.047 689.124,362.156 685.823,367.662C685.361,368.432 684.31,379.968 688.517,380.093C709.842,380.723 712.843,378.044 713.114,383.524C714.069,402.819 712.124,403.3 710.546,403.691C709.03,404.066 699.923,402.976 699.856,405.558C699.409,422.669 699.619,542.583 699.64,554.498C699.651,561.263 699.935,561.16 704.744,609.468C704.766,609.689 704.954,611.577 706.478,611.629C708.23,611.69 723.235,612.21 728.387,611.332C729.47,611.299 730.554,611.266 731.638,611.233C735.185,611.959 784.223,611.842 787.38,611.271C788.457,611.046 788.454,611.38 789.5,610.828C789.951,610.591 789.922,610.802 790.365,610.568C791.783,611.847 792.034,611.591 828.5,611.642C882.988,611.718 888.28,610.85 885.057,614.032C883.365,615.703 706.737,613.27 705.218,615.257C702.108,619.323 703.31,622.855 703.526,623.492C704.19,625.442 709.789,641.901 709.636,648.499C709.514,653.726 707.512,654.144 696.413,663.397C694.131,665.3 678.94,677.965 660.579,673.173C659.639,672.928 647.678,668.287 662.672,653.686C672.446,644.167 679.825,628.845 679.673,627.49C679.091,622.291 674.806,625.184 673.246,620.593C671.601,615.749 672.251,615.095 670.465,614.619C670.08,614.516 630.149,614.515 629.54,614.636C627.312,615.078 628.833,620.245 626.639,621.699C620.653,625.667 627.558,630.377 627.09,651.495C626.845,662.525 609.698,658.135 600.572,659.863C597.264,660.489 565.009,666.594 558.56,657.461C557.28,655.65 557.824,650.047 561.83,646.904C569.57,640.833 608.34,626.557 596.643,621.181C592.179,619.129 595.884,614.595 591.497,614.56C570.788,614.394 181.6,614.857 144.453,614.371C142.63,614.347 141.655,614.321 141.612,614.292C141.205,614.017 140.872,613.768 140.635,613.543C139.968,612.909 140.062,612.465 141.4,612.156C142.804,611.832 145.579,611.658 150.283,611.572C161.779,611.362 184.798,611.681 227.501,611.636C312.931,611.548 314.278,612.173 314.556,610.521C314.626,610.106 314.881,405.166 314.386,404.566C312.652,402.467 301.244,407.025 301.168,399.499C301.008,383.512 299.791,380.168 307.496,380.113C326.709,379.974 332.118,381.394 332.12,377.503C332.158,314.886 331.512,314.028 334.607,311.64C336.975,309.812 337.425,310.686 485.499,310.377C496.87,310.353 496.649,313.499 497.567,323.495C502.022,371.998 501.506,379.524 503.629,380.034C504.429,380.226 571.595,380.124 577.505,380.115C583.627,380.105 586.073,381.651 586.491,375.499C586.971,368.433 587.023,368.27 584.671,364.396C579.792,356.357 590.198,331.516 582.543,338.555C561.626,357.789 523.662,308.351 518.057,293.707C517.448,292.118 500.933,284.443 499.747,276.449C499.2,272.764 498.706,272.975 497.496,269.502C497.257,268.815 498.097,268.775 496.934,260.436C495.922,253.171 500.455,250.166 499.73,247.453C495.576,231.916 488.981,226.794 496.238,221.039Z" style="fill:rgb(30,53,55);"/>
        </g>
    </g>
    <g transform="matrix(1.038086,0,0,1.038086,54,171)">
        <path d="M317.284,417.477C319.957,417.434 323.005,417.446 323.502,417.448C346.954,417.541 577.303,417.425 583.389,417.509C582.892,472.271 592.615,586.51 593.312,609.493C593.402,612.496 589.439,611.658 587.501,611.661C565.979,611.697 320.824,612.108 318.481,611.549C316.062,610.97 317.407,609.502 317.284,417.477Z" style="fill:rgb(226,238,237);"/>
    </g>
    <g transform="matrix(1.038086,0,0,1.038086,54,171)">
        <path d="M631.821,437.433C631.307,435.247 630.83,429.378 627.384,426.635C625.654,425.258 620.16,421.676 618.898,422.907C617.326,424.44 623.161,427.033 624.332,427.776C626.947,429.433 627.671,429.529 632.061,452.578C632.854,456.74 633.171,458.402 629.092,505.462C627.961,518.516 628.522,518.434 629.034,531.528C629.748,549.788 625.655,614.914 625.375,617.481C624.817,622.577 605.584,621.182 598.427,618.69C595.572,617.696 596.873,614.192 591.985,545.462C583.88,431.492 585.656,413.942 586.808,402.561C586.846,402.184 596.37,389.957 595.212,386.557C593.787,382.37 593.212,387.015 590.147,393.304C585.524,402.79 587.895,386.612 588.321,382.474C588.959,376.273 593.387,380.192 594.491,380.541C598.009,381.657 596.189,378.975 596.522,372.504C596.531,372.313 596.616,370.66 598.606,371.337C599.634,371.687 599.139,372.132 599.181,380.556C599.193,383.121 604.614,382.108 611.501,383.495C631.453,387.514 631.878,382.221 646.522,385.362C649.776,386.059 646.254,371.34 650.436,374.595C651.684,375.566 651.055,375.865 651.305,382.523C651.41,385.3 655.356,383.861 662.543,382.909C681.395,380.409 682.713,377.198 683.747,380.411C689.125,397.119 687.879,447.167 687.61,500.501C687.475,527.263 694.422,526.475 702.288,612.513C702.414,613.89 702.934,619.578 687.491,621.425C677.76,622.588 676.116,621.918 673.498,612.501C649.377,525.751 648.516,525.954 631.821,437.433Z" style="fill:rgb(247,231,207);"/>
    </g>
    <g transform="matrix(1.038086,0,0,1.038086,54,171)">
        <path d="M398.5,313.204C402.237,313.197 489.23,313.164 490.511,313.233C495.219,313.485 494.691,315.863 499.074,371.535C499.126,372.203 499.704,379.546 498.708,379.894C498.09,380.11 336.74,380.479 335.302,379.706C334.697,379.381 334.155,316.666 335.601,314.585C336.732,312.959 337.26,313.228 398.5,313.204Z" style="fill:rgb(159,199,196);"/>
    </g>
    <g transform="matrix(1.038086,0,0,1.038086,54,171)">
        <path d="M629.795,235.732C630.295,235.191 634.545,230.589 635.495,228.498C637.827,223.37 639.023,228.976 644.842,237.268C647.92,241.655 649.79,239.602 655.46,231.477C660.438,224.344 659.969,224.12 664.814,216.912C666.186,214.87 683.053,224.562 684.543,225.418C688.612,227.756 688.387,227.933 688.76,228.075C690.721,228.824 692.867,230.605 693.189,230.872C698.013,234.874 709.374,244.301 704.079,308.454C702.279,330.256 697.565,338.044 696.206,340.288C680.172,366.774 624.107,318.533 612.767,305.272C610.545,302.674 614.866,300.848 620.869,289.691C623.042,285.652 626.09,288.854 636.393,293.712C638.878,294.884 638.844,294.785 641.3,295.961C642.233,296.407 642.169,296.37 652.249,300.983C678.873,313.167 678.238,316.676 680.271,315.198C680.975,314.686 681.142,313.699 672.19,307.907C669.329,306.055 673.703,290.923 673.175,264.525C673.132,262.352 671.043,262.239 670.598,263.55C669.037,268.155 671.39,268.393 668.962,297.579C668.524,302.852 669.437,306.426 664.734,304.033C653.707,298.422 628.587,287.603 625.59,285.385C623.409,283.771 627.923,239.562 629.795,235.732Z" style="fill:rgb(35,132,138);"/>
    </g>
    <g transform="matrix(1.038086,0,0,1.038086,54,171)">
        <path d="M731.638,611.233C723.993,539.508 721.65,531.708 723.289,531.074C723.306,531.067 795.406,530.224 796.428,531.561C797.504,532.97 788.203,604.906 787.38,611.271C784.223,611.842 735.185,611.959 731.638,611.233Z" style="fill:rgb(157,197,194);"/>
    </g>
    <g transform="matrix(1.038086,0,0,1.038086,54,171)">
        <path d="M500.494,382.806C555.548,383.508 584.494,382.11 585.222,383.681C585.237,383.715 584.435,399.622 584.085,400.296C583.565,401.299 583.153,401.234 347.5,401.207C304.98,401.202 304.315,401.531 303.991,400.144C303.947,399.953 303.374,384.533 304.438,383.423C305.576,382.236 466.486,383.292 500.494,382.806Z" style="fill:rgb(163,201,198);"/>
    </g>
    <g transform="matrix(1.038086,0,0,1.038086,54,171)">
        <path d="M317.284,417.477C317.284,413.889 317.148,404.982 317.543,404.529C318.061,403.935 320.241,403.926 320.481,403.925C341.36,403.842 531.159,403.084 581.47,403.938C584.756,403.994 583.768,408.175 583.389,417.509C577.303,417.425 346.954,417.541 323.502,417.448C323.005,417.446 319.957,417.434 317.284,417.477Z" style="fill:rgb(185,214,212);"/>
    </g>
    <g transform="matrix(1.038086,0,0,1.038086,54,171)">
        <path d="M640.198,201.054C647.044,196.341 645.105,194.669 644.489,194.659C644.224,194.655 625.152,211.903 610.714,197.278C597.879,184.277 599.457,140.909 601.363,140.279C603.899,139.44 612.732,146.758 637.354,137.122C641.736,135.407 642.084,134.126 643.149,135.739C643.496,136.264 640.9,143.737 644.947,149.173C649.098,154.751 649.544,154.566 650.914,161.406C652.587,169.76 656.284,162.901 656.5,162.5C663.393,149.714 674.03,164.024 664.421,172.419C660.843,175.545 656.139,174.607 655.766,176.57C654.624,182.576 655.15,182.604 655.227,203.497C655.254,210.875 640.279,214.456 633.133,227.292C632.838,227.823 628.704,235.248 627.557,232.456C623.581,222.783 624.196,215.376 624.177,214.486C625.051,213.957 625.582,212.967 626.455,212.438C627.107,212.043 627.344,212.824 631.307,211.071C636.749,208.663 641.449,203.23 641.258,202.5C641.106,201.922 640.35,201.632 640.198,201.054Z" style="fill:rgb(237,169,140);"/>
    </g>
    <g transform="matrix(1.038086,0,0,1.038086,54,171)">
        <path d="M634.454,467.352C637.084,470.546 638.391,497.869 652.439,546.517C653.915,551.629 670.387,608.676 669.975,610.675C669.711,611.953 669.012,611.673 632.502,611.674C626.853,611.675 628.691,609.036 629.001,603.462C633.083,530.135 631.116,530.117 630.804,517.49C630.723,514.182 633.648,473.441 633.923,469.613C633.936,469.428 634.02,469.49 634.454,467.352Z" style="fill:rgb(225,238,236);"/>
    </g>
    <g transform="matrix(1.038086,0,0,1.038086,54,171)">
        <path d="M526.515,293.523C535.235,287.582 534.056,282.911 539.524,285.434C539.695,285.514 559.651,298.507 560.494,299.509C561.02,300.135 563.656,301.836 563.943,302.021C568.382,304.885 571.782,311.3 573.505,311.349C578.439,311.489 567.604,303.723 568.622,300.507C573.226,285.961 577.347,268.603 577.787,267.897C578.298,267.076 585.471,267.709 582.987,269.767C578.574,273.421 578.704,273.963 579.146,281.564C579.349,285.05 585.697,292.133 586.337,292.626C587.633,293.623 587.219,297.045 586.885,305.528C585.993,328.176 587.834,330.505 580.256,337.169C571.449,344.914 558.32,336.146 556.75,335.098C539.678,323.697 528.804,306.636 523.297,298.592C521.109,295.396 523.167,295.351 526.515,293.523Z" style="fill:rgb(37,133,139);"/>
    </g>
    <g transform="matrix(1.038086,0,0,1.038086,54,171)">
        <path d="M604.468,369.837C594.839,367.752 584.222,367.907 586.142,355.437C590.293,328.482 588.713,295.285 590.648,294.768C597.343,292.977 598.466,295.71 600.618,297.289C603.132,299.135 608.467,300.406 609.11,302.627C611.278,310.114 612.83,309.104 618.422,314.57C621.328,317.409 617.433,333.172 618.092,369.411C618.138,371.899 608.369,370.248 604.468,369.837Z" style="fill:rgb(36,133,139);"/>
    </g>
    <g transform="matrix(1.038086,0,0,1.038086,54,171)">
        <path d="M669.537,369.746C665.814,370.253 638.909,373.921 622.593,371.21C621.145,370.97 619.913,370.362 621.672,330.505C621.954,324.115 621.402,317.285 624.244,319.822C666.017,357.106 685.147,348.86 686.132,351.737C686.299,352.226 686.873,358.821 686.02,362.342C684.794,367.405 671.345,369.338 669.537,369.746Z" style="fill:rgb(36,133,139);"/>
    </g>
    <g transform="matrix(1.038086,0,0,1.038086,54,171)">
        <path d="M763.302,409.602C746.78,394.658 753.978,358.617 788.823,331.948C792.792,328.91 793.402,339.209 794.42,346.51C796.525,361.613 794.807,399.877 767.806,409.898C767.685,409.308 766.785,409.089 766.664,408.5C766.435,407.382 767.171,407.599 767.266,406.424C767.637,401.803 773.905,382.717 773.149,381.764C771.462,379.638 768.903,388.863 768.711,389.554C768.465,390.439 768.28,391.341 768.019,392.222C763.634,406.983 765.417,407.415 764.648,408.5C764.313,408.973 763.637,409.129 763.302,409.602Z" style="fill:rgb(148,191,189);"/>
    </g>
    <g transform="matrix(1.038086,0,0,1.038086,54,171)">
        <path d="M769.678,453.502C768.791,450.18 763.73,431.216 782.468,412.466C801.033,393.889 826.74,392.428 827.031,394.546C827.43,397.442 822.843,395.253 807.996,425.739C804.053,433.836 793.739,455.557 772.664,455.702C772.795,455.203 772.369,454.662 772.5,454.163C772.539,454.013 772.927,454.225 773.394,452.449C774.41,448.581 786.728,430.594 786.211,429.603C786.009,429.217 785.076,427.914 781.723,432.69C772.853,445.328 772.768,449.265 769.678,453.502Z" style="fill:rgb(147,191,189);"/>
    </g>
    <g transform="matrix(1.038086,0,0,1.038086,54,171)">
        <path d="M600.396,264.604C597.528,261.6 597.483,261.639 593.581,260.203C590.376,259.024 592.234,256.012 591.72,254.402C590.355,250.12 589.151,257.869 589.094,258.237C588.877,259.634 582.844,258.077 582.319,257.941C580.695,257.522 580.925,257.081 581.23,255.475C584.493,238.265 589.844,230.915 609.612,220.83C613.117,219.042 610.586,223.74 610.429,232.499C610.325,238.329 618.424,228.636 620.691,226.968C622.741,225.46 622.575,227.127 623.645,229.453C625.89,234.333 626.636,234.225 625.992,239.562C620.906,281.708 623.759,282.897 620.756,284.986C619.975,285.53 619.699,285.273 611.748,277.223C605.761,271.161 606.301,270.785 600.396,264.604Z" style="fill:rgb(35,132,138);"/>
    </g>
    <g transform="matrix(1.038086,0,0,1.038086,54,171)">
        <path d="M752.825,446.522C752.501,446.016 751.664,446.006 751.341,445.5C750.783,444.627 751.663,444.346 746.648,433.435C745.171,430.223 743.09,431.77 743.695,433.477C746.094,440.238 746.863,439.875 749.067,446.721C749.64,448.5 749.837,448.345 749.842,448.5C749.858,449.016 749.173,449.389 749.19,449.904C736.273,445.822 725.893,439.488 723.307,408.521C722.128,394.397 724.39,394.271 725.493,394.53C725.722,394.583 741.906,401.539 750.167,416.673C758.717,432.335 753.95,442.377 752.825,446.522Z" style="fill:rgb(148,192,190);"/>
    </g>
    <g transform="matrix(1.038086,0,0,1.038086,54,171)">
        <path d="M763.302,409.602C763.637,409.129 764.313,408.973 764.648,408.5C765.417,407.415 763.634,406.983 768.019,392.222C768.28,391.341 768.465,390.439 768.711,389.554C768.903,388.863 771.462,379.638 773.149,381.764C773.905,382.717 767.637,401.803 767.266,406.424C767.171,407.599 766.435,407.382 766.664,408.5C766.785,409.089 767.685,409.308 767.806,409.898C762.901,414.118 761.35,467.735 760.441,485.508C760.455,485.664 760.611,487.454 760.611,487.454C761.926,488.056 761.615,487.123 761.522,485.655C765.2,470.374 763.912,470.119 769.236,455.414C769.236,455.414 769.643,453.655 769.678,453.502C772.768,449.265 772.853,445.328 781.723,432.69C785.076,427.914 786.009,429.217 786.211,429.603C786.728,430.594 774.41,448.581 773.394,452.449C772.927,454.225 772.539,454.013 772.5,454.163C772.369,454.662 772.795,455.203 772.664,455.702C762.41,473.871 763.103,507.274 762.325,525.553C762.392,526.183 762.458,526.814 762.524,527.445C762.047,527.523 757.571,528.258 756.5,528.008C755.948,527.879 755.612,527.233 755.06,527.104C754.323,521.235 751.461,506.851 748.244,500.738C740.942,481.588 734.661,480.627 735.962,477.693C737.653,473.883 746.388,491.406 750.288,495.517C751.222,502.149 753.412,503.783 755.103,513.624C755.771,517.515 754.314,518.854 757.678,519.55C757.536,516.886 756.272,455.629 749.19,449.904C749.173,449.389 749.858,449.016 749.842,448.5C749.837,448.345 749.64,448.5 749.067,446.721C746.863,439.875 746.094,440.238 743.695,433.477C743.09,431.77 745.171,430.223 746.648,433.435C751.663,444.346 750.783,444.627 751.341,445.5C751.664,446.006 752.501,446.016 752.825,446.522C752.772,448.648 753.456,448.543 757.389,472.713C757.424,473.144 756.381,473.257 757.552,474.751C757.604,474.817 758.104,475.454 758.379,475.401C758.379,475.401 758.664,473.753 758.688,473.61C758.278,422.378 764.689,417.774 763.302,409.602Z" style="fill:rgb(111,162,161);"/>
    </g>
    <g transform="matrix(1.038086,0,0,1.038086,54,171)">
        <path d="M506.661,256.333C506.891,250.486 511.28,248.712 509.109,244.672C506.699,240.189 501.951,247.36 500.828,242.376C499.763,237.651 493.026,225.318 497.496,225.4C518.653,225.79 519.067,226.415 520.071,227.93C520.545,228.645 538.635,280.106 538.682,280.518C538.865,282.114 537.899,281.864 523.53,281.214C522.519,281.062 521.509,280.91 520.498,280.758C514.261,279.831 519.258,277.599 519.52,277.541C520.662,277.285 528.127,271.986 524.405,269.66C524.147,269.499 523.771,269.636 523.508,269.481C520.927,267.958 526.859,264.666 524.378,261.578C521.444,257.926 514.337,265.055 514.395,262.526C514.4,262.304 522.615,256.212 519.097,252.909C516.522,250.491 512.942,254.029 506.661,256.333Z" style="fill:rgb(36,131,137);"/>
    </g>
    <g transform="matrix(1.038086,0,0,1.038086,54,171)">
        <path d="M750.288,495.517C746.388,491.406 737.653,473.883 735.962,477.693C734.661,480.627 740.942,481.588 748.244,500.738C745.294,499.988 722.472,498.956 715.185,458.544C714.488,454.678 714.609,452.89 718.392,453.956C728.038,456.675 737.615,463.265 742.109,468.833C751.955,481.032 750.439,493.2 750.288,495.517Z" style="fill:rgb(149,192,190);"/>
    </g>
    <g transform="matrix(1.038086,0,0,1.038086,54,171)">
        <path d="M770.591,497.499C773.531,493.38 779.033,484.023 784.59,478.757C790.34,473.308 784.506,482.192 784.343,482.439C783.602,483.568 777.57,490.998 774.839,496.73C774.342,497.774 774.286,497.624 773.546,498.5C772.365,499.9 773.536,500.264 773.535,500.544C769.898,505.16 764.881,526.796 766.414,527.631C768.955,529.015 798.219,526.009 799.371,529.545C800.323,532.471 791.844,593.488 790.365,610.568C789.922,610.802 789.951,610.591 789.5,610.828C788.454,611.38 788.457,611.046 787.38,611.271C788.203,604.906 797.504,532.97 796.428,531.561C795.406,530.224 723.306,531.067 723.289,531.074C721.65,531.708 723.993,539.508 731.638,611.233C730.554,611.266 729.47,611.299 728.387,611.332C729.057,605.027 718.821,531.768 719.907,529.676C722.056,525.538 750.059,529.774 755.06,527.104C755.612,527.233 755.948,527.879 756.5,528.008C757.571,528.258 762.047,527.523 762.524,527.445C762.812,527.258 763.231,527.893 763.519,527.707C764.349,527.167 764.029,526.59 763.979,526.5C763.47,525.581 762.835,526.472 762.325,525.553C762.709,525.086 763.417,524.967 763.801,524.5C765.069,522.959 762.09,522.102 770.018,500.346C770.48,499.079 770.35,499.103 770.591,497.499Z" style="fill:rgb(83,134,134);"/>
    </g>
    <g transform="matrix(1.038086,0,0,1.038086,54,171)">
        <path d="M697.305,544.067C694.432,542.751 697.242,541.259 691.381,516.53C688.943,506.245 691.618,442.234 690.351,410.508C690.17,405.985 688.979,404.032 693.495,403.962C698.701,403.881 697.093,406.302 697.096,411.52C697.141,509.858 697.189,509.785 697.511,541.502C697.513,541.708 697.496,541.692 697.305,544.067Z" style="fill:rgb(218,233,232);"/>
    </g>
    <g transform="matrix(1.038086,0,0,1.038086,54,171)">
        <path d="M770.591,497.499C768.623,463.563 805.868,455.591 807.604,457.408C808.426,458.269 802.038,494.897 775.395,500.105C774.394,500.3 774.496,500.317 773.535,500.544C773.536,500.264 772.365,499.9 773.546,498.5C774.286,497.624 774.342,497.774 774.839,496.73C777.57,490.998 783.602,483.568 784.343,482.439C784.506,482.192 790.34,473.308 784.59,478.757C779.033,484.023 773.531,493.38 770.591,497.499Z" style="fill:rgb(146,190,187);"/>
    </g>
    <g transform="matrix(1.038086,0,0,1.038086,54,171)">
        <path d="M583.45,260.834C594.609,263.151 595.222,262.625 602.927,271.068C604.034,272.28 604.13,272.156 617.005,285.992C617.544,286.571 619.756,288.948 614.625,295.595C614.122,296.247 612.218,303.854 597.886,292.044C596.22,290.671 591.806,284.694 590.671,287.594C590.219,288.75 595.351,293.422 590.601,292.105C589.097,291.688 583.061,287.684 585.821,284.77C586.284,284.281 596.433,276.79 592.511,276.468C590.333,276.289 581.435,287.527 581.833,281.521C581.991,279.139 595.778,271.711 590.559,271.312C589.079,271.199 579.092,280.783 581.346,274.444C581.558,273.849 581.785,273.21 587.512,269.517C595.34,264.469 584.238,267.693 570.691,262.134C567.81,260.951 568.398,258.525 571.421,258.975C582.528,260.628 582.486,260.692 583.45,260.834Z" style="fill:rgb(237,168,140);"/>
    </g>
    <g transform="matrix(1.038086,0,0,1.038086,54,171)">
        <path d="M507.833,258.913C508.504,258.517 515.381,254.457 516.502,254.479C521.215,254.573 510.337,262.058 508.7,263.713C498.016,274.513 519.721,262.687 521.7,263.079C526.992,264.129 510.764,271.746 510.339,272.392C507.116,277.297 520.88,270.826 522.306,270.994C526.737,271.515 513.076,277.938 512.418,279.452C511.818,280.83 512.218,282.691 530.618,284.083C535.443,284.449 523.882,294.531 520.728,292.12C514.929,287.689 514.509,288.48 508.799,284.052C500.203,277.384 503.728,275.182 501.244,270.635C499.148,266.796 500.938,264.682 507.833,258.913Z" style="fill:rgb(235,168,141);"/>
    </g>
    <g transform="matrix(1.038086,0,0,1.038086,54,171)">
        <path d="M698.496,401.364C698.318,401.36 690.007,402.128 689.596,399.48C687.295,384.676 686.486,382.957 689.491,382.927C708.929,382.735 709.361,382.284 710.16,383.732C710.234,383.866 711.365,400.381 709.295,401.016C708.469,401.27 708.527,400.905 698.496,401.364Z" style="fill:rgb(161,200,196);"/>
    </g>
    <g transform="matrix(1.038086,0,0,1.038086,54,171)">
        <path d="M654.326,210.317C657.755,206.194 657.38,206.002 657.693,205.665C659.704,203.496 663.071,213.402 663.08,213.443C663.505,215.476 653.609,229.895 649.316,235.358C646.853,238.492 642.982,229.032 640.417,225.565C637.299,221.351 642.44,221.99 654.326,210.317Z" style="fill:rgb(36,133,139);"/>
    </g>
    <g transform="matrix(1.038086,0,0,1.038086,54,171)">
        <path d="M606.587,631.379C605.422,630.373 601.353,627.777 601.354,625.506C601.354,621.449 603.578,623.459 611.5,623.536C619.877,623.617 619.839,623.3 620.564,623.312C622.223,623.34 621.876,628.651 621.35,629.376C616.595,635.932 607.672,631.873 606.587,631.379Z" style="fill:rgb(238,172,144);"/>
    </g>
    <g transform="matrix(1.038086,0,0,1.038086,54,171)">
        <path d="M684.433,628.831C682.013,628.014 679.751,624.697 685.496,624.425C692.409,624.099 699.268,620.301 700.177,621.743C703.607,627.186 698.212,634.547 692.549,632.394C688.331,630.79 688.699,630.09 684.433,628.831Z" style="fill:rgb(238,173,144);"/>
    </g>
    <g transform="matrix(1.038086,0,0,1.038086,54,171)">
        <path d="M628.608,377.501C628.413,380.695 629.674,382.212 626.48,382.257C613.483,382.441 613.362,380.602 613.29,379.527C613.198,378.13 612.463,373.596 615.492,373.7C627.328,374.105 628.27,374.386 628.608,377.501Z" style="fill:rgb(196,217,214);"/>
    </g>
    <g transform="matrix(1.038086,0,0,1.038086,55,171)">
        <path d="M640.198,201.054C640.35,201.632 641.106,201.922 641.258,202.5C641.449,203.23 636.749,208.663 631.307,211.071C627.344,212.824 627.107,212.043 626.455,212.438C625.582,212.967 625.051,213.957 624.177,214.486C624.164,212.494 624.1,210.501 624.086,208.509C624.06,204.775 625.793,206.039 629.489,205.436C632.765,204.9 639.376,201.479 640.198,201.054Z" style="fill:rgb(237,169,140);stroke:rgb(237,169,140);stroke-width:0.96px;"/>
    </g>
    <g transform="matrix(1.038086,0,0,1.038086,54,171)">
        <path d="M621.593,217.502L621.731,220.508C621.704,220.74 621.389,223.405 621.389,223.405C614.837,228.63 615.063,228.896 614.44,229.271C611.717,230.912 614.389,217.254 619.27,211.269C622.468,207.346 621.654,213.542 621.593,217.502Z" style="fill:rgb(39,131,138);"/>
    </g>
    <g transform="matrix(1.038086,0,0,1.038086,54,171)">
        <path d="M622.525,417.447C621.009,416.496 618.629,415.756 617.88,410.449C617.74,409.459 615.655,389.992 617.574,388.625C622.125,385.382 616.642,410.715 623.764,415.088C629.721,418.746 622.726,417.516 622.525,417.447Z" style="fill:rgb(49,66,68);"/>
    </g>
    <g transform="matrix(1.038086,0,0,1.038086,54,171)">
        <path d="M662.627,391.453C670.613,407.907 676.309,402.776 679.145,407.645C681.24,411.242 665.857,408.48 659.709,391.422C659.611,391.15 658.631,388.432 659.688,387.807C660.8,387.15 662.481,391.108 662.627,391.453Z" style="fill:rgb(38,58,59);"/>
    </g>
    <g transform="matrix(1.038086,0,0,1.038086,54,171)">
        <path d="M503.17,248.282C503.358,248.066 509.6,240.862 506.741,248.584C504.926,253.484 504.628,253.342 503.646,258.532C503.269,260.523 499.789,263.717 499.562,260.489C499.102,253.942 500.269,254.168 503.17,248.282Z" style="fill:rgb(237,165,142);"/>
    </g>
    <g transform="matrix(1.038086,0,0,1.038086,54,171)">
        <path d="M617.58,176.32C620.893,177.431 618.606,179.34 616.435,178.813C610.178,177.292 615.706,163.025 617.467,163.586C620.19,164.455 614.072,173.932 617.58,176.32Z" style="fill:rgb(53,64,65);"/>
    </g>
    <g transform="matrix(1.038086,0,0,1.038086,54,171)">
        <path d="M629.398,187.368C628.462,187.964 621.992,192.083 615.658,189.182C609.003,186.133 618.257,187.245 618.531,187.278C623.512,187.876 625.769,186.659 628.256,185.075C628.429,184.965 632.209,183.471 629.398,187.368Z" style="fill:rgb(44,57,60);"/>
    </g>
    <g transform="matrix(1.038086,0,0,1.038086,54,171)">
        <path d="M528.755,239.308C529.139,240.089 529.857,241.548 532.557,249.5C532.688,249.886 534.09,254.014 533.857,254.427C533.565,254.947 532.734,255 532.442,255.519C530.902,251.312 527.593,241.75 527.178,240.55L528.755,239.308Z" style="fill:rgb(30,105,113);"/>
    </g>
    <g transform="matrix(1.038086,0,0,1.038086,54,171)">
        <path d="M632.437,162.512C632.616,169.637 628.446,166.219 628.148,164.569C627.79,162.577 629.306,156.247 632.437,162.512Z" style="fill:rgb(25,50,56);"/>
    </g>
    <g transform="matrix(1.038086,0,0,1.038086,54,171)">
        <path d="M658.804,165.563C659.716,163.139 659.426,162.945 661.455,161.439C661.621,161.316 667.123,159.746 662.688,163.711C662.166,164.178 658.586,173.444 658.804,165.563Z" style="fill:rgb(43,54,53);"/>
    </g>
    <g transform="matrix(1.038086,0,0,1.038086,54,171)">
        <path d="M606.503,163.5C609.632,156.373 610.636,164.465 610.635,164.503C610.624,164.843 607.296,172.365 606.503,163.5Z" style="fill:rgb(33,52,54);"/>
    </g>
    <g transform="matrix(1.038086,0,0,1.038086,54,171)">
        <path d="M519.558,224.402C519.719,224.354 520.271,222.487 522.472,223.537C522.682,223.637 525.218,227.675 525.741,231.477L524.335,232.604C522.73,228.153 523.23,227.007 519.558,224.402Z" style="fill:rgb(31,101,108);"/>
    </g>
    <g transform="matrix(1.038086,0,0,1.038086,54,171)">
        <path d="M538.15,271.51C539.171,271.34 538.687,270.551 539.713,270.38C540.289,270.284 539.501,270.717 539.807,271.234C540.428,272.285 540.607,272.158 540.641,273.46C540.715,276.207 542.577,275.699 542.423,278.515C542.343,279.979 542.932,280.72 541.499,280.553C541.048,280.501 541.211,280.298 540.02,276.749C539.127,274.088 539.062,274.177 538.15,271.51Z" style="fill:rgb(27,94,101);"/>
    </g>
    <g transform="matrix(1.038086,0,0,1.038086,54,171)">
        <path d="M525.741,231.477C525.91,231.94 527.768,237.021 527.917,237.243C528.546,238.183 528.312,238.217 528.755,239.308L527.178,240.55C524.496,233.239 524.568,233.238 524.335,232.604L525.741,231.477Z" style="fill:rgb(27,91,99);"/>
    </g>
    <g transform="matrix(1.038086,0,0,1.038086,54,171)">
        <path d="M514.839,232.132C513.462,229.708 512.733,228.361 515.489,228.356C518.531,228.351 520.182,234.886 514.839,232.132Z" style="fill:rgb(24,49,50);"/>
    </g>
    <g transform="matrix(1.038086,0,0,1.038086,54,171)">
        <path d="M533.138,257.501C534.153,257.267 533.706,256.577 534.716,256.344C535.309,256.207 534.589,256.619 534.805,257.117C534.986,257.535 536.363,260.715 536.672,262.497C537.051,264.686 535.759,264.084 535.54,264.464C534.739,262.143 533.939,259.822 533.138,257.501Z" style="fill:rgb(26,95,101);"/>
    </g>
    <g transform="matrix(1.038086,0,0,1.038086,54,171)">
        <path d="M757.389,472.713C757.822,473.012 758.255,473.311 758.688,473.61C758.664,473.753 758.379,475.401 758.379,475.401C758.104,475.454 757.604,474.817 757.552,474.751C756.381,473.257 757.424,473.144 757.389,472.713Z" style="fill:rgb(150,185,185);"/>
    </g>
    <g transform="matrix(1.038086,0,0,1.038086,54,171)">
        <path d="M762.325,525.553C762.835,526.472 763.47,525.581 763.979,526.5C764.029,526.59 764.349,527.167 763.519,527.707C763.231,527.893 762.812,527.258 762.524,527.445C762.458,526.814 762.392,526.183 762.325,525.553Z" style="fill:rgb(130,174,171);"/>
    </g>
    <g transform="matrix(1.038086,0,0,1.038086,54,171)">
        <path d="M760.441,485.508L761.522,485.655C761.615,487.123 761.926,488.056 760.611,487.454C760.611,487.454 760.455,485.664 760.441,485.508Z" style="fill:rgb(127,171,171);"/>
    </g>
    <g transform="matrix(1.038086,0,0,1.038086,54,171)">
        <path d="M757.73,521.589C757.428,524.101 756.642,523.522 756.5,523.417C755.321,522.548 756.929,522.779 757.73,521.589Z" style="fill:rgb(127,172,173);"/>
    </g>
    <g transform="matrix(1.038086,0,0,1.038086,54,171)">
        <path d="M621.593,217.502C621.779,218.276 622.584,218.254 621.731,220.508L621.593,217.502Z" style="fill:rgb(32,95,98);"/>
    </g>
    <g transform="matrix(1.038086,0,0,1.038086,54,171)">
        <path d="M520.498,280.758C521.509,280.91 522.519,281.062 523.53,281.214C520.612,281.644 520.812,280.843 520.498,280.758Z" style="fill:rgb(32,87,91);"/>
    </g>
</svg>
