<?xml version="1.0" encoding="UTF-8" standalone="no"?>
<!DOCTYPE svg PUBLIC "-//W3C//DTD SVG 1.1//EN" "http://www.w3.org/Graphics/SVG/1.1/DTD/svg11.dtd">
<svg width="100%" height="100%" viewBox="290.9 108.4 745.2 967.2" version="1.1" xmlns="http://www.w3.org/2000/svg" xmlns:xlink="http://www.w3.org/1999/xlink" xml:space="preserve" xmlns:serif="http://www.serif.com/" style="fill-rule:evenodd;clip-rule:evenodd;stroke-linejoin:round;stroke-miterlimit:2;">
    <g transform="matrix(1.208705,0,0,1.208705,46.142965,60.142965)">
        <path d="M496.185,212.778C484.109,199.787 497.956,189.386 496.857,168.458C496.806,167.483 483.694,151.648 496.392,131.425C500.305,125.194 507.129,121.594 508.246,121.005C509.081,120.564 521.751,105.213 548.534,107.095C575.673,109.003 584.296,128.14 585.756,131.382C592.28,145.859 592.307,156.333 603.272,171.648C616.052,189.497 607.644,211.502 590.435,214.226C588.917,214.466 587.444,216.916 578.406,219.152C575.254,219.932 573.167,219.493 574.744,222.387C578.825,229.874 579.329,230.59 580.672,231.087C600.892,238.572 627.84,240.451 625.199,319.483C623.17,380.207 597.817,381.812 597.569,382.536C595.945,387.281 606.994,401.936 598.893,410.82C595.172,414.899 605.365,415.803 602.401,490.497C599.972,551.713 600.833,555.855 601.988,561.41C611.035,604.925 613.156,608.273 619.582,672.493C619.77,674.375 620.799,680.07 618.701,682.673C617.989,683.556 617.041,684.021 624.121,700.708C628.878,717.177 629.864,720.36 623.239,725.118C608.836,735.466 593.129,748.723 570.554,744.177C564.522,742.962 559.902,735.898 570.545,725.544C576.322,719.923 578.204,719.318 590.608,698.602C591.081,698.042 595.05,693.346 591.521,689.481C589.916,687.721 587.749,689.868 585.703,684.426C584.223,680.489 556.038,590.077 548.785,553.445C543.772,528.125 543.94,528.158 540.329,502.593C540.058,502.499 539.788,502.405 539.517,502.311C539.465,502.325 538.835,501.217 538.605,502.553C538.433,503.555 536.811,550.349 536.667,554.505C536.138,569.787 539.704,589.157 536.957,639.53C534.656,681.75 535.359,684.306 530.684,686.855C528.784,687.891 529.987,694.397 530.079,695.615C535.985,726.781 529.537,726.107 529.346,726.194C528.806,726.441 465.446,736.489 456.526,727.472C454.543,725.468 454.102,719.246 459.456,715.442C467.054,710.044 477.449,707.956 494.527,696.55C500.032,692.996 501.873,693.203 502.664,687.51C503.103,684.344 498.757,686.051 498.336,681.523C477.914,462.172 480.722,453.46 486.675,410.52C487.299,406.018 481.718,406.634 483.781,396.571C484.28,394.139 484.749,394.269 491.306,366.46C491.38,366.145 493.089,358.896 490.495,362.494C467.568,394.3 422.678,354.349 412.399,327.543C411.94,326.346 406.14,320.057 405.74,317.445C404.576,309.841 401.277,312.217 393.557,305.442C386.7,299.424 386.726,296.545 383.924,287.388C383.669,286.555 383.994,286.609 383.357,276.508C382.844,268.367 387.313,268.161 386.346,264.536C382.809,251.275 372.985,234.475 383.537,232.717C383.591,232.708 408.674,232.903 412.56,235.421C415.066,237.045 415.386,240.204 431.847,288.389C435.034,297.718 436.109,298.634 434.809,303.573C434.197,305.899 437.584,305.809 440.414,307.64C461.07,321.006 463.079,325.788 465.005,320.357C465.938,317.725 476.648,287.523 476.634,287.455C476.467,286.633 456.189,282.289 462.506,276.506C466.532,272.819 479.518,279.796 480.753,276.653C491.413,249.515 494.401,241.422 522.409,233.216C525.383,232.345 529.434,223.247 526.577,223.102C515.728,222.552 507.539,222.749 496.185,212.778Z" style="fill:rgb(31,62,66);"/>
    </g>
    <g transform="matrix(1.208705,0,0,1.208705,46.142965,60.142965)">
        <path d="M530.079,695.615C531.87,695.91 580.172,696.7 587.491,697.376C589.381,697.551 589.348,697.205 589.5,697.259C590.047,697.453 590.061,698.408 590.608,698.602C578.204,719.318 576.322,719.923 570.545,725.544C559.902,735.898 564.522,742.962 570.554,744.177C593.129,748.723 608.836,735.466 623.239,725.118C629.864,720.36 628.878,717.177 624.121,700.708C625.376,700.308 625.263,700.088 626.599,700.033C635.632,699.658 726.594,707.855 756.317,722.866C777.191,733.408 766.396,744.208 741.486,751.449C615.685,788.015 266.171,774.503 254.486,736.504C248.713,717.731 327.83,707.105 333.454,706.226C383.696,698.375 481.335,694.288 494.527,696.55C477.449,707.956 467.054,710.044 459.456,715.442C454.102,719.246 454.543,725.468 456.526,727.472C465.446,736.489 528.806,726.441 529.346,726.194C529.537,726.107 535.985,726.781 530.079,695.615Z" style="fill:rgb(184,224,224);"/>
    </g>
    <g transform="matrix(1.208705,0,0,1.208705,46.142965,60.142965)">
        <path d="M608.76,249.295C607.756,251.351 607.351,251.238 607.738,252.5C609.457,258.105 619.273,290.109 613.705,325.541C607.845,362.835 595.476,368.713 577.484,364.566C549.923,358.213 534.045,340.863 529.216,336.178C543.588,323.393 535.35,314.762 540.442,315.873C550.716,318.113 572.403,328.468 576.534,330.43C585.823,334.843 595.662,344.146 593.546,338.48C592.671,336.136 581.165,330.934 581.235,328.52C582.503,285.037 584.584,278.643 580.628,282.62C579.896,283.356 579.876,293.502 579.876,293.516C578.009,295.232 577.795,294.979 577.263,296.5C572.607,309.815 572.712,313.849 563.5,318.774C562.048,319.55 561.608,320.426 561.488,320.531C539.974,311.735 539.519,313.309 537.507,313.141C532.22,312.702 533.81,305.568 522.432,308.136C519.755,308.741 520.369,306.945 498.701,283.366C497.172,281.702 504.171,267.992 499.428,271.393C498.007,272.411 496.541,282.007 494.497,281.622C483.114,279.478 483.126,278.399 483.39,277.489C491.821,248.43 507.349,241.5 510.74,239.987C522.824,234.594 523.499,236.681 524.636,238.421C530.505,247.401 558.886,253.756 577.97,234.973C578.806,234.15 580.054,232.922 592.332,237.928C600.388,241.213 607.61,248.185 608.76,249.295Z" style="fill:rgb(253,236,214);"/>
    </g>
    <g transform="matrix(1.208705,0,0,1.208705,46.142965,60.142965)">
        <path d="M510.538,325.442C510.46,325.538 504.24,329.037 510.664,335.247C522.653,346.836 532.254,370.957 561.31,386.815C563.872,388.214 572.649,391.562 573.37,399.51C574.078,407.323 569.307,410.397 563.522,415.701C511.948,421 487.972,407.69 486.42,403.532C482.534,393.115 502.099,369.926 493.847,327.415C492.761,321.817 492.012,319.282 493.984,316.937C495.554,315.07 498.593,319.727 503.646,322.217C504.192,322.487 504.156,322.456 510.538,325.442Z" style="fill:rgb(253,236,215);"/>
    </g>
    <g transform="matrix(1.208705,0,0,1.208705,46.142965,60.142965)">
        <path d="M549.223,209.216C549.675,208.815 553.592,205.345 554.097,203.461C554.31,202.666 553.084,201.567 551.802,202.868C550.306,204.386 538.745,216.113 527.457,213.707C508.995,209.773 505.42,183.619 504.985,180.436C501.081,151.882 507.007,145.849 508.716,142.623C509.817,140.544 510.775,141.283 511.715,143.399C516.23,153.557 531.924,158.58 527.806,153.41C527.679,153.25 521.017,143.982 528.24,150.897C529.204,151.82 534.261,156.661 543.488,157.665C546.647,158.008 546.057,156.286 544.539,153.488C543.385,151.359 544.944,149.974 546.095,151.811C551.241,160.027 552.706,158.718 558.7,166.349C561.486,169.897 562.85,166.187 564.683,164.73C576.106,155.643 581.041,182.364 564.513,182.844C560.024,182.975 566.041,204.021 555.485,217.488C553.929,219.473 555.047,219.925 557.587,220.296C563.643,221.181 546.928,226.108 535.6,222.358C537.602,220.596 537.854,221.207 540.427,220.372C540.974,220.194 543.206,219.469 546.391,216.355C546.802,215.954 551.028,211.822 550.549,210.5C550.339,209.922 549.433,209.794 549.223,209.216Z" style="fill:rgb(248,176,149);"/>
    </g>
    <g transform="matrix(1.208705,0,0,1.208705,46.142965,60.142965)">
        <path d="M490.709,325.47C489.817,326.702 489.09,326.156 488.515,328.5C487.003,334.666 478.034,353.959 467.582,355.923C445.605,360.053 427.835,333.692 421.493,328.473C438.036,322.959 435.123,308.833 437.502,309.224C438.533,309.393 463.515,325.849 468.23,330.754C468.504,331.038 473.067,335.787 472.849,332.49C472.632,329.235 465.115,327.865 466.913,322.656C467.604,320.654 475.45,297.924 475.683,297.671C477.211,296.004 477.249,299.405 477.893,302.408C478.128,303.503 477.531,306.185 479.552,308.458C484.188,313.67 482.614,315.311 488.275,317.996C489.675,318.66 489.852,318.835 490.709,325.47Z" style="fill:rgb(252,236,214);"/>
    </g>
    <g transform="matrix(1.208705,0,0,1.208705,46.142965,60.142965)">
        <path d="M608.76,249.295C609.163,249.83 626.089,264.926 622.14,325.475C617.877,390.822 588.054,385.684 560.788,371.023C541.632,360.723 521.566,340.769 525.458,338.45C527.345,337.325 527.266,337.357 529.216,336.178C534.045,340.863 549.923,358.213 577.484,364.566C595.476,368.713 607.845,362.835 613.705,325.541C619.273,290.109 609.457,258.105 607.738,252.5C607.351,251.238 607.756,251.351 608.76,249.295Z" style="fill:rgb(241,215,181);"/>
    </g>
    <g transform="matrix(1.208705,0,0,1.208705,46.142965,60.142965)">
        <path d="M510.538,325.442C513.501,328.103 510.924,329.471 513.463,332.533C517.626,337.55 519.444,335.825 522.518,341.489C526.408,348.659 542.661,364.973 562.746,375.061C588.482,387.987 593.569,379.414 595.189,385.584C600.149,404.465 601.246,407.575 593.441,410.344C583.05,414.031 565.945,415.494 563.522,415.701C569.307,410.397 574.078,407.323 573.37,399.51C572.649,391.562 563.872,388.214 561.31,386.815C532.254,370.957 522.653,346.836 510.664,335.247C504.24,329.037 510.46,325.538 510.538,325.442Z" style="fill:rgb(241,215,181);"/>
    </g>
    <g transform="matrix(1.208705,0,0,1.208705,46.142965,60.142965)">
        <path d="M490.709,325.47C493.042,337.208 499.956,361.257 475.434,370.324C448.074,380.441 413.188,330.463 416.625,328.755C416.974,328.582 417.034,329.139 421.493,328.473C427.835,333.692 445.605,360.053 467.582,355.923C478.034,353.959 487.003,334.666 488.515,328.5C489.09,326.156 489.817,326.702 490.709,325.47Z" style="fill:rgb(241,215,181);"/>
    </g>
    <g transform="matrix(1.208705,0,0,1.208705,46.142965,60.142965)">
        <path d="M411.533,286.547C411.975,286.216 416.774,282.623 413.857,280.049C411.009,277.536 405.153,281.09 404.459,281.35C394.862,284.947 414.17,274.184 409.271,269.766C407.761,268.405 398.274,272.734 397.374,273.145C388.27,277.3 398.363,266.551 397.75,261.461C396.946,254.784 391.021,261.179 390.634,261.597C388.266,264.153 388.106,261.616 386.991,258.334C380.772,240.04 380.624,239.888 381.274,238.358C382.093,236.433 407.113,240.839 407.244,240.932C409.387,242.459 428.79,302.396 428.765,302.578C428.479,304.693 406.679,301.905 405.767,300.327C404.935,298.887 424.591,288.154 411.432,288.902C411.466,288.117 411.499,287.332 411.533,286.547Z" style="fill:rgb(21,136,146);"/>
    </g>
    <g transform="matrix(1.208705,0,0,1.208705,46.142965,60.142965)">
        <path d="M598.618,731.694C585.005,739.088 567.129,736.354 568.203,732.416C568.789,730.265 579.105,722.929 587.252,709.328C590.263,704.3 593.764,694.574 601.323,698.812C604.34,700.504 608.276,705.62 616.193,699.128C618.402,697.317 619.004,695.079 620.197,697.683C626.183,710.737 623.14,713.198 622.117,714.026C605.948,727.104 600.611,730.446 598.618,731.694Z" style="fill:rgb(231,219,195);"/>
    </g>
    <g transform="matrix(1.208705,0,0,1.208705,46.142965,60.142965)">
        <path d="M490.533,721.82C488.14,722.061 468.987,723.992 460.506,720.489C454.271,717.913 476.661,711.597 495.832,698.961C500.57,695.838 500.951,694.142 505.751,697.097C517.34,704.23 518.212,702.302 526.449,699.308C527.618,698.883 529.309,699.168 529.913,714.478C530.04,717.68 528.491,718.081 490.533,721.82Z" style="fill:rgb(232,219,196);"/>
    </g>
    <g transform="matrix(1.208705,0,0,1.208705,46.142965,60.142965)">
        <path d="M494.13,310.769C488.97,305.74 492.138,313.33 492.243,313.58C493.105,315.644 489.34,316.696 486.926,314.082C479.429,305.963 491.396,304.066 493.324,300.425C496.588,294.259 482.144,306.342 481.555,306.25C476.465,305.453 491.032,294.887 491.297,294.408C494.702,288.263 482.111,298.839 481.434,299.408C478.79,301.628 478.749,296.663 486.753,290.851C487.04,290.642 493.706,285.802 488.538,286.789C484.348,287.59 466.576,281.316 464.902,280.051C457.955,274.804 487.831,282.538 489.42,282.9C502.07,285.789 502.169,292.045 520.163,310.784C522.833,313.563 517.87,321.619 515.457,323.438C513.917,324.599 502.243,320.63 494.13,310.769Z" style="fill:rgb(248,179,152);"/>
    </g>
    <g transform="matrix(1.208705,0,0,1.208705,46.142965,60.142965)">
        <path d="M405.432,292.277C424.258,286.324 401.235,299.117 400.587,299.6C397.873,301.625 403.495,302.421 403.529,302.435C409.448,304.948 414.143,304.481 419.554,305.346C422.575,305.828 417.407,311.977 412.417,313.154C407.85,314.231 395.264,303.478 393.393,301.601C387.725,295.916 390.415,294.511 386.927,287.347C384.347,282.049 403.504,271.819 406.498,271.688C411.667,271.462 401.125,277.408 393.789,284.735C387.73,290.787 396.504,285.989 406.608,282.847C426.478,276.668 396.645,292.368 396.453,293.49C396.028,295.967 399.566,294.127 405.432,292.277Z" style="fill:rgb(246,180,154);"/>
    </g>
    <g transform="matrix(1.208705,0,0,1.208705,46.142965,60.142965)">
        <path d="M458.384,725.596C457.165,721.952 459.163,722.7 459.387,722.783C473.467,728.05 497.394,723.539 515.518,721.676C527.325,720.463 529.595,719.044 530.012,720.573C531.295,725.278 515.328,725.621 513.52,725.758C497.722,726.956 467.201,731.825 458.384,725.596Z" style="fill:rgb(163,199,197);"/>
    </g>
    <g transform="matrix(1.208705,0,0,1.208705,46.142965,60.142965)">
        <path d="M579.876,293.516C579.564,314.112 578.758,327.274 578.525,327.521C577.349,328.758 577.062,327.628 561.488,320.531C561.608,320.426 562.048,319.55 563.5,318.774C572.712,313.849 572.607,309.815 577.263,296.5C577.795,294.979 578.009,295.232 579.876,293.516Z" style="fill:rgb(241,215,182);"/>
    </g>
    <g transform="matrix(1.208705,0,0,1.208705,46.142965,60.142965)">
        <path d="M575.525,742.129C574.805,742.039 567.151,741.091 567.218,738.475C567.292,735.608 568.712,737.44 571.567,738.001C598.227,743.243 614.8,722.41 623.714,715.891C624.209,715.528 628.894,717.5 621.236,723.148C592.714,744.185 590.042,741.99 575.525,742.129Z" style="fill:rgb(163,198,195);"/>
    </g>
    <g transform="matrix(1.208705,0,0,1.208705,46.142965,60.142965)">
        <path d="M509.536,687.25C517.577,687.983 517.489,687.689 525.482,687.741C525.964,687.744 530.941,694.212 523.618,697.736C518.052,700.414 516.175,700.946 505.84,694.015C504.993,693.447 501.535,686.051 509.536,687.25Z" style="fill:rgb(246,176,148);"/>
    </g>
    <g transform="matrix(1.208705,0,0,1.208705,46.142965,60.142965)">
        <path d="M598.467,689.117C614.202,686.459 614.494,684.614 615.221,685.772C619.455,692.516 616.933,694.83 616.364,695.352C608.599,702.477 607.277,699.225 603.296,696.858C599.038,694.325 595.765,695.788 595.271,693.565C594.284,689.135 595.926,689.331 598.467,689.117Z" style="fill:rgb(247,179,153);"/>
    </g>
    <g transform="matrix(1.208705,0,0,1.208705,46.142965,60.142965)">
        <path d="M392.492,236.64C393.599,236.321 392.618,235.321 393.652,235.023C393.874,234.959 393.805,235.236 396.498,235.486C397.027,235.535 409.399,235.903 411.348,237.698C413.833,239.989 413.016,240.534 425.556,277.487C429.554,289.269 436.107,305.937 431.444,302.575C430.924,302.2 420.91,271.392 420.026,268.67C416.776,258.673 412.667,246.598 412.016,244.683C409.202,236.413 406.786,238.42 392.492,236.64Z" style="fill:rgb(63,158,167);"/>
    </g>
    <g transform="matrix(1.208705,0,0,1.208705,46.142965,60.142965)">
        <path d="M517.198,195.648C517.069,193.411 516.237,192.519 518.475,192.304C527.498,191.44 527.363,191.143 536.468,190.121C544.799,189.187 528.803,214.062 517.198,195.648Z" style="fill:rgb(22,51,58);"/>
    </g>
    <g transform="matrix(1.208705,0,0,1.208705,46.142965,60.142965)">
        <path d="M554.503,225.514C553.68,234.241 557.357,241.712 558.411,243.127C551.957,243.913 552.046,243.848 545.463,243.894C547.426,227.843 546.272,227.829 546.495,226.449C550.56,226.029 550.504,226.127 554.503,225.514Z" style="fill:rgb(251,236,215);"/>
    </g>
    <g transform="matrix(1.208705,0,0,1.208705,46.142965,60.142965)">
        <path d="M561.426,223.248C565.633,228.835 566.038,234.159 567.524,237.5C567.782,238.078 568.52,238.349 568.777,238.927C564.167,241.107 564.256,241.036 559.568,242.842C558.284,233.847 558.061,233.937 555.43,225.292C557.428,224.611 559.427,223.929 561.426,223.248Z" style="fill:rgb(251,237,217);"/>
    </g>
    <g transform="matrix(1.208705,0,0,1.208705,46.142965,60.142965)">
        <path d="M418.305,313.18L419.23,314.5C422.059,319.428 421.818,319.531 425.624,323.669C422.692,325.381 422.776,325.438 419.489,326.109C415.671,325.97 414.6,326.853 408.867,318.277C407.695,316.524 408.399,315.944 410.485,316.025C413.431,316.14 417.736,313.526 418.305,313.18Z" style="fill:rgb(246,234,211);"/>
    </g>
    <g transform="matrix(1.208705,0,0,1.208705,46.142965,60.142965)">
        <path d="M538.527,226.06C540.519,226.191 542.512,226.322 544.504,226.453C544.324,227.837 543.516,234.039 543.502,243.863C538.919,243.356 538.972,243.56 534.512,242.469C534.917,241.18 536.146,237.266 538.527,226.06Z" style="fill:rgb(251,234,212);"/>
    </g>
    <g transform="matrix(1.208705,0,0,1.208705,46.142965,60.142965)">
        <path d="M537.432,225.817C532.35,233.218 534.306,237.161 532.962,239.5C532.586,240.154 531.639,240.34 531.263,240.994C524.195,236.174 526.023,234.313 529.806,226.657C531.828,222.566 533.045,224.518 537.432,225.817Z" style="fill:rgb(250,241,225);"/>
    </g>
    <g transform="matrix(1.208705,0,0,1.208705,46.142965,60.142965)">
        <path d="M523.852,312.553C524.906,312.973 526.278,313.522 535.586,320.507C534.576,324.293 534.764,324.285 532.914,327.763L531.88,326.5C528.245,321.247 526.865,322.807 522.254,318.413C523.264,315.473 523.316,315.586 523.852,312.553Z" style="fill:rgb(249,236,215);"/>
    </g>
    <g transform="matrix(1.208705,0,0,1.208705,46.142965,60.142965)">
        <path d="M549.223,209.216C549.433,209.794 550.339,209.922 550.549,210.5C551.028,211.822 546.802,215.954 546.391,216.355C543.206,219.469 540.974,220.194 540.427,220.372C537.854,221.207 537.602,220.596 535.6,222.358C531.878,215.234 538.076,217.152 549.223,209.216Z" style="fill:rgb(226,129,98);"/>
    </g>
    <g transform="matrix(1.208705,0,0,1.208705,46.142965,60.142965)">
        <path d="M518.414,324.415C523.481,329.556 524.348,330.651 528.827,332.845C528.113,333.339 524.032,338.957 516.777,332.199C512.531,328.244 515.805,327.399 518.414,324.415Z" style="fill:rgb(250,234,211);"/>
    </g>
    <g transform="matrix(1.208705,0,0,1.208705,46.142965,60.142965)">
        <path d="M568.454,219.272C568.063,223.431 569.213,223.157 572.294,229.619C573.559,232.27 573.822,231.986 575.603,233.586C573.147,236.025 573.131,235.878 570.646,237.749C570.069,236.531 569.865,236.721 569.566,235.467C568.456,230.823 564.631,223.043 564.118,222C565.564,221.091 567.009,220.181 568.454,219.272Z" style="fill:rgb(249,233,209);"/>
    </g>
    <g transform="matrix(1.208705,0,0,1.208705,46.142965,60.142965)">
        <path d="M390.624,274.541C390.519,274.897 386.105,286.903 385.98,274.527C385.921,268.706 398.144,255.379 395.339,263.444C395.023,264.355 394.635,264.125 390.624,274.541Z" style="fill:rgb(240,181,159);"/>
    </g>
    <g transform="matrix(1.208705,0,0,1.208705,46.142965,60.142965)">
        <path d="M423.134,307.262C423.69,308.304 430.392,318.055 430.711,318.627C428.83,320.905 428.984,320.911 426.742,322.875C425.747,320.472 425.137,319.572 424.958,319.308C421.853,314.727 422.012,313.217 419.23,314.5L418.305,313.18C421.267,310.498 421.146,310.484 423.134,307.262Z" style="fill:rgb(251,233,206);"/>
    </g>
    <g transform="matrix(1.208705,0,0,1.208705,46.142965,60.142965)">
        <path d="M603.261,200.49C604.477,194.947 604.518,194.991 604.574,194.503C606.344,179.127 592.139,159.538 601.595,173.208C610.992,186.791 605.396,199.168 604.468,201.221L603.261,200.49Z" style="fill:rgb(31,62,66);"/>
    </g>
    <g transform="matrix(1.208705,0,0,1.208705,46.142965,60.142965)">
        <path d="M533.337,197.327C532.52,197.934 525.432,203.205 520.642,196.418C520.552,196.29 519.522,194.832 521.545,194.687C527.641,194.253 527.53,194.214 533.492,193.29C537.089,192.732 533.541,197.077 533.337,197.327Z" style="fill:rgb(246,248,248);"/>
    </g>
    <g transform="matrix(1.208705,0,0,1.208705,46.142965,60.142965)">
        <path d="M523.852,312.553C524.858,309.021 525.988,309.431 529.303,310.934C532.461,312.365 534.855,315.192 535.248,315.655C536.011,316.556 535.632,316.622 535.586,320.507C526.278,313.522 524.906,312.973 523.852,312.553Z" style="fill:rgb(240,219,191);"/>
    </g>
    <g transform="matrix(1.208705,0,0,1.208705,46.142965,60.142965)">
        <path d="M521.212,176.387C521.011,176.917 518.926,182.435 519.708,183.305C519.92,183.54 524.322,184.7 522.386,186.374C520.977,187.593 514.753,185.6 516.965,179.678C519.689,172.387 519.927,169.511 521.608,171.4C522.213,172.079 521.302,175.997 521.212,176.387Z" style="fill:rgb(25,47,55);"/>
    </g>
    <g transform="matrix(1.208705,0,0,1.208705,46.142965,60.142965)">
        <path d="M521.007,321.107C521.235,321.243 522.506,321.52 528.634,326.306C530.773,327.976 531.031,326.732 531.88,326.5L532.914,327.763C531.487,329.893 531.554,329.812 529.821,331.846C523.847,325.922 520.261,323.891 519.321,323.358C519.883,322.608 520.445,321.858 521.007,321.107Z" style="fill:rgb(250,230,203);"/>
    </g>
    <g transform="matrix(1.208705,0,0,1.208705,46.142965,60.142965)">
        <path d="M426.528,306.104C431.352,306.531 431.404,306.306 432.274,306.87C435.688,309.083 432.158,316.305 432.157,316.31C430.83,314.363 430.957,314.369 429.609,312.421C427.071,308.754 424.07,307.327 425.483,306.005C425.739,305.766 426.272,306.343 426.528,306.104Z" style="fill:rgb(247,242,231);"/>
    </g>
    <g transform="matrix(1.208705,0,0,1.208705,46.142965,60.142965)">
        <path d="M498.307,210.432C497.303,210.045 497.186,210.428 496.403,209.698C488.996,202.788 499.971,174.729 496.506,194.501C495.126,202.377 496.031,202.764 498.307,210.432Z" style="fill:rgb(31,62,66);"/>
    </g>
    <g transform="matrix(1.208705,0,0,1.208705,46.142965,60.142965)">
        <path d="M564.118,222C564.631,223.043 568.456,230.823 569.566,235.467C569.865,236.721 570.069,236.531 570.646,237.749C570.023,238.142 569.4,238.534 568.777,238.927C568.52,238.349 567.782,238.078 567.524,237.5C566.038,234.159 565.633,228.835 561.426,223.248L564.118,222Z" style="fill:rgb(234,209,176);"/>
    </g>
    <g transform="matrix(1.208705,0,0,1.208705,46.142965,60.142965)">
        <path d="M568.454,219.272C572.072,220.402 571.187,221.437 573.137,224.73C574.497,227.025 577.673,231.068 575.603,233.586C573.822,231.986 573.559,232.27 572.294,229.619C569.213,223.157 568.063,223.431 568.454,219.272Z" style="fill:rgb(236,204,169);"/>
    </g>
    <g transform="matrix(1.208705,0,0,1.208705,46.142965,60.142965)">
        <path d="M554.503,225.514L555.43,225.292C558.061,233.937 558.284,233.847 559.568,242.842L558.411,243.127C557.357,241.712 553.68,234.241 554.503,225.514Z" style="fill:rgb(233,204,168);"/>
    </g>
    <g transform="matrix(1.208705,0,0,1.208705,46.142965,60.142965)">
        <path d="M544.504,226.453L546.495,226.449C546.272,227.829 547.426,227.843 545.463,243.894L543.502,243.863C543.516,234.039 544.324,227.837 544.504,226.453Z" style="fill:rgb(237,211,176);"/>
    </g>
    <g transform="matrix(1.208705,0,0,1.208705,46.142965,60.142965)">
        <path d="M537.432,225.817L538.527,226.06C536.146,237.266 534.917,241.18 534.512,242.469C533.429,241.977 532.346,241.486 531.263,240.994C531.639,240.34 532.586,240.154 532.962,239.5C534.306,237.161 532.35,233.218 537.432,225.817Z" style="fill:rgb(236,210,177);"/>
    </g>
    <g transform="matrix(1.208705,0,0,1.208705,46.142965,60.142965)">
        <path d="M426.528,306.104C426.272,306.343 425.739,305.766 425.483,306.005C424.07,307.327 427.071,308.754 429.609,312.421C430.957,314.369 430.83,314.363 432.157,316.31C431.675,317.082 431.193,317.855 430.711,318.627C430.392,318.055 423.69,308.304 423.134,307.262C424.566,305.982 424.575,305.953 426.528,306.104Z" style="fill:rgb(230,201,167);"/>
    </g>
    <g transform="matrix(1.208705,0,0,1.208705,46.142965,60.142965)">
        <path d="M519.321,323.358C520.261,323.891 523.847,325.922 529.821,331.846L528.827,332.845C524.348,330.651 523.481,329.556 518.414,324.415C518.717,324.063 519.019,323.711 519.321,323.358Z" style="fill:rgb(229,200,169);"/>
    </g>
    <g transform="matrix(1.208705,0,0,1.208705,46.142965,60.142965)">
        <path d="M522.254,318.413C526.865,322.807 528.245,321.247 531.88,326.5C531.031,326.732 530.773,327.976 528.634,326.306C522.506,321.52 521.235,321.243 521.007,321.107L522.254,318.413Z" style="fill:rgb(229,203,170);"/>
    </g>
    <g transform="matrix(1.208705,0,0,1.208705,46.142965,60.142965)">
        <path d="M537.452,170.51C537.909,177.024 533.494,175.177 533.023,172.594C532.564,170.076 534.396,164.2 537.452,170.51Z" style="fill:rgb(14,49,56);"/>
    </g>
    <g transform="matrix(1.208705,0,0,1.208705,46.142965,60.142965)">
        <path d="M566.476,168.478C566.76,168.23 568.557,166.484 570.482,166.656C571.185,166.719 573.347,168.1 570.413,169.202C566.627,170.625 568.612,172.053 567.589,174.566C567.471,174.856 562.463,175.638 566.476,168.478Z" style="fill:rgb(28,49,57);"/>
    </g>
    <g transform="matrix(1.208705,0,0,1.208705,46.142965,60.142965)">
        <path d="M426.742,322.875L425.624,323.669C421.818,319.531 422.059,319.428 419.23,314.5C422.012,313.217 421.853,314.727 424.958,319.308C425.137,319.572 425.747,320.472 426.742,322.875Z" style="fill:rgb(232,204,172);"/>
    </g>
    <g transform="matrix(1.208705,0,0,1.208705,46.142965,60.142965)">
        <path d="M538.469,161.565C535.988,160.801 536.046,160.907 533.47,161.203C527.178,161.927 534.94,156.031 540.334,159.708C540.508,159.827 543.527,164.585 538.469,161.565Z" style="fill:rgb(23,42,52);"/>
    </g>
    <g transform="matrix(1.208705,0,0,1.208705,46.142965,60.142965)">
        <path d="M512.746,171.436C513.332,178.929 509.308,174.964 509.229,174.595C508.3,170.258 511.006,167.374 512.746,171.436Z" style="fill:rgb(13,53,60);"/>
    </g>
    <g transform="matrix(1.208705,0,0,1.208705,46.142965,60.142965)">
        <path d="M505.501,164.495C505.529,163.893 505.765,158.949 511.454,159.892C520.15,161.334 510.724,162.522 510.5,162.52C510.07,162.517 509.478,162.513 505.501,164.495Z" style="fill:rgb(28,46,56);"/>
    </g>
    <g transform="matrix(1.208705,0,0,1.208705,46.142965,60.142965)">
        <path d="M481.656,291.684C481.421,291.91 475.988,297.139 477.673,292.537C479.136,288.539 479.502,286.672 483.154,288.934C484.91,290.021 482.958,290.061 481.656,291.684Z" style="fill:rgb(242,192,166);"/>
    </g>
    <g transform="matrix(1.208705,0,0,1.208705,46.142965,60.142965)">
        <path d="M416.977,322.034C416.382,321.755 415.69,322.899 415.096,322.62C415.01,322.58 411.315,318.265 413.5,317.103C414.441,316.603 416.772,321.597 416.977,322.034Z" style="fill:rgb(230,206,174);"/>
    </g>
    <g transform="matrix(1.208705,0,0,1.208705,46.142965,60.142965)">
        <path d="M402.726,246.431C402.896,243.452 404.9,242.867 406.011,245.688C406.109,245.939 406.788,250.097 402.726,246.431Z" style="fill:rgb(12,59,68);"/>
    </g>
    <g transform="matrix(1.208705,0,0,1.208705,46.142965,60.142965)">
        <path d="M411.533,286.547C411.499,287.332 411.466,288.117 411.432,288.902C411.075,288.738 410.61,289.055 410.253,288.89C409.052,288.335 410.133,288.051 411.533,286.547Z" style="fill:rgb(12,104,108);"/>
    </g>
    <g transform="matrix(1.208705,0,0,1.208705,46.142965,60.142965)">
        <path d="M603.261,200.49L604.468,201.221C603.409,201.994 603.421,203.519 602.988,202.301C602.988,202.301 603.239,200.635 603.261,200.49Z" style="fill:rgb(31,62,66);"/>
    </g>
    <g transform="matrix(1.208705,0,0,1.208705,46.142965,60.142965)">
        <path d="M385.318,235.786C383.723,235.52 383.592,235.639 383.602,235.5C383.609,235.409 383.678,234.421 384.15,234.5C384.721,234.595 384.747,235.691 385.318,235.786Z" style="fill:rgb(20,91,99);"/>
    </g>
</svg>
