<?xml version="1.0" encoding="UTF-8" standalone="no"?>
<!DOCTYPE svg PUBLIC "-//W3C//DTD SVG 1.1//EN" "http://www.w3.org/Graphics/SVG/1.1/DTD/svg11.dtd">
<svg width="100%" height="100%" viewBox="160.0 190.5 956.0 956.0" version="1.1" xmlns="http://www.w3.org/2000/svg" xmlns:xlink="http://www.w3.org/1999/xlink" xml:space="preserve" xmlns:serif="http://www.serif.com/" style="fill-rule:evenodd;clip-rule:evenodd;stroke-linejoin:round;stroke-miterlimit:2;">
    <g transform="matrix(0.97282,0,0,0.97282,135.416268,135.416268)">
        <path d="M488.112,482.436C490.613,465.837 490.816,465.887 491.009,464.442C491.313,462.178 487.402,461.305 485.599,459.4C482.073,455.676 480.699,457.088 478.27,452.636C474.912,446.48 466.21,447.077 467.16,440.453C467.797,436.02 469.292,437.097 473.62,435.804C474.912,435.418 474.889,431.511 480.834,427.925C490.972,421.81 450.109,426.125 454.306,413.428C457.116,404.927 494.997,414.891 498.415,415.79C510.91,419.077 508.477,422.744 512.794,426.091C515.492,428.183 520.485,406.681 536.82,395.985C556.046,383.396 566.536,386.551 570.008,378.303C570.336,377.524 573.802,369.291 573.822,368.453C573.881,365.96 560.152,370.442 546.46,366.641C508.263,356.034 525.454,322.979 526.755,315.547C532.06,285.222 517.219,283.516 520.867,260.563C524.849,235.512 541.282,233.99 546.726,227.687C548.97,225.089 560.636,211.583 585.467,209.224C637.285,204.3 650.745,244.992 652.669,249.431C659.887,266.092 654.527,268.346 670.206,293.674C704.638,349.289 642.442,361.096 636.592,362.71C634.245,363.358 637.432,370.427 640.904,375.204C644.968,380.795 659.454,384.047 668.221,388.997C693.166,403.08 690.92,415.116 694.553,418.445C696.412,420.149 790.987,418.89 797.457,419.828C835.426,425.331 821.793,473.171 821.738,473.535C816.17,510.538 805.811,573.338 806.297,574.605C806.784,575.877 830.626,577.646 831.093,606.514C831.251,616.312 814.29,786.853 812.732,802.525C809.172,838.315 776.198,829.207 776.132,833.45C776.114,834.578 780.44,862.374 783.69,880.452C786.764,900.214 788.545,903.455 781.485,904.375C767.01,906.261 765.363,901.641 764.905,900.356C760.641,888.395 760.892,888.378 756.733,876.432C755.653,873.136 746.614,845.563 742.653,835.425C742.06,833.906 734.228,834.325 733.492,834.364C674.978,837.491 675.096,838.138 616.514,840.585C614.154,840.683 615.04,846.599 617.001,870.583C619.054,901.816 620.56,921.739 620.321,923.476C619.382,930.296 603.883,926.993 602.463,926.691C596.113,925.337 598.502,922.458 585.279,868.54C581.678,853.839 579.707,840.103 577.483,839.561C576.521,839.327 537.698,838.266 537.466,838.304C536.172,838.518 535.474,838.633 525.925,868.605C520.067,886.95 520.157,886.959 519.609,888.539C519.011,890.263 518.147,892.667 504.482,891.733C497.027,891.224 499.557,886.284 502.017,868.391C506.011,842.414 506.231,838.203 505.423,837.606C503.916,836.489 409.809,833.996 401.492,833.776C396.62,833.647 398.996,836.616 397.09,864.474C396.774,869.09 393.935,868.312 392.595,868.79C390.436,869.561 391.18,876.609 391.315,879.515C391.496,883.412 394.427,882.6 396.5,896.5C400.079,920.499 395.628,922.831 388.417,924.009C345.641,930.997 334.615,933.23 309.5,934.391C297.048,934.283 296.074,934.448 288.709,932C287.972,931.511 284.2,930.111 283.608,925.487C282.971,920.51 285.211,916.262 285.589,915.544C289.469,908.185 307.391,904.948 297.487,905.633C283.946,906.57 255.228,905.918 242.518,905.236C203.659,903.153 210.056,890.949 210.542,886.513C212.81,879.308 213.94,877.483 226.62,873.952C268.329,862.337 268.228,856.44 276.472,854.398C279.014,853.768 279.404,853.944 281.666,849.585C282.696,847.599 283.711,845.605 284.757,843.628C286.58,840.179 285.53,839.955 283.728,838.244C280.957,835.613 283.198,833.159 284.299,830.415C286.678,824.49 268.368,830.257 265.599,794.494C254.761,654.543 253.762,654.64 252.921,642.464C251.371,620.005 244.05,591.194 271.611,579.776C281.37,575.733 281.781,576.76 440.5,576.43C471.444,576.365 472.442,576.776 473.126,574.405C474.528,569.544 467.29,574.465 445.054,549.894C413.289,514.793 421.838,509.941 419.326,505.586C414.863,497.849 413.04,498.465 412.461,489.507C412.137,484.492 393.495,489.563 380.732,460.4C377.967,454.081 380.323,451.4 379.737,449.433C376.472,438.482 376.846,438.162 380.737,428.578C382.232,424.895 368.227,405.236 371.86,399.722C376.925,392.033 379.265,392.832 384.504,392.777C412.73,392.479 414.975,391.523 418.545,399.48C421.021,404.998 445.024,458.488 449.076,468.651C451.258,474.125 449.31,476.28 449.741,477.427C452.122,483.766 456.785,477.927 469.394,488.622C475.866,494.112 475.31,494.624 481.756,500.118C482.9,501.093 485.577,501.006 488.112,482.436Z" style="fill:rgb(17,34,42);"/>
    </g>
    <g transform="matrix(0.97282,0,0,0.97282,135.416268,135.416268)">
        <path d="M740.495,577.388C806.754,578.011 808.514,575.335 819.161,583.884C831.952,594.153 828.702,607.813 822.666,669.518C808.891,810.321 810.324,811.353 804.096,819.164C795.432,830.029 790.642,828.822 719.496,832.411C649.429,835.946 649.572,837.35 643.483,837.124C634.771,836.801 624.023,838.841 628.07,836.321C645.602,825.402 645.142,810.174 649.823,757.535C662.618,613.654 665.185,613.352 661.225,600.583C655.396,581.791 642.147,579.185 641.938,578.304C641.609,576.918 642.655,577.638 650.491,577.661C657.691,577.682 721.481,577.868 740.495,577.388Z" style="fill:rgb(13,109,122);"/>
    </g>
    <g transform="matrix(0.97282,0,0,0.97282,135.416268,135.416268)">
        <path d="M502.017,868.391C499.557,886.284 497.027,891.224 504.482,891.733C518.147,892.667 519.011,890.263 519.609,888.539C520.157,886.959 520.067,886.95 525.925,868.605C538.991,867.857 580.685,869.785 585.279,868.54C598.502,922.458 596.113,925.337 602.463,926.691C603.883,926.993 619.382,930.296 620.321,923.476C620.56,921.739 619.054,901.816 617.001,870.583C620.256,869.867 620.172,869.903 623.525,870.021C713.807,873.186 713.66,875.164 753.495,877.414C755.277,877.514 755.062,876.939 756.733,876.432C760.892,888.378 760.641,888.395 764.905,900.356C765.363,901.641 767.01,906.261 781.485,904.375C788.545,903.455 786.764,900.214 783.69,880.452C785.948,880.871 903.858,891.63 874.406,911.355C836.703,936.606 563.932,949.035 403.509,941.317C396.064,940.959 312.69,936.948 310.5,935.947C309.939,935.69 310.061,934.647 309.5,934.391C334.615,933.23 345.641,930.997 388.417,924.009C395.628,922.831 400.079,920.499 396.5,896.5C394.427,882.6 391.496,883.412 391.315,879.515C391.18,876.609 390.436,869.561 392.595,868.79C393.935,868.312 396.774,869.09 397.09,864.474C398.996,836.616 396.62,833.647 401.492,833.776C409.809,833.996 503.916,836.489 505.423,837.606C506.231,838.203 506.011,842.414 502.017,868.391Z" style="fill:rgb(215,220,223);"/>
    </g>
    <g transform="matrix(0.97282,0,0,0.97282,135.416268,135.416268)">
        <path d="M563.625,628.126C570.063,635.024 574.682,636.121 580.336,647.573C582.915,652.795 581.955,653.11 583.042,655.5C583.241,655.938 583.86,656.086 584.059,656.524C583.732,665.392 583.851,671.041 583.804,672.508C582.821,702.918 582.753,703.41 581.547,703.614C532.132,711.963 491.11,705.071 438.442,696.894C429.882,695.565 428.503,696.577 428.755,694.377C429.029,691.99 427.191,691.904 426.37,693.39C424.827,696.183 424.257,695.506 422.315,696.067C418.091,697.289 414.578,716.957 408.16,729.325C404.278,736.806 393.647,757.293 350.641,817.597C329.061,847.857 330.393,848.995 327.648,850.685C326.368,851.473 326.568,857.167 318.505,854.571C315.591,853.632 315.542,854.009 315.301,853.907C314.84,853.711 314.807,852.997 314.403,852.702C313.843,852.294 310.743,851.021 310.419,850.889C308.659,850.166 297.809,845.714 289.637,839.315C283.289,834.344 286.187,832.839 289.46,825.481C297.633,807.108 355.688,667.708 363.203,653.342C377.025,626.922 384.211,613.962 517.524,618.101C533.346,618.592 533.053,620.352 563.625,628.126Z" style="fill:rgb(15,68,81);"/>
    </g>
    <g transform="matrix(0.97282,0,0,0.97282,135.416268,135.416268)">
        <path d="M579.073,784.054C586.568,776.883 582.919,774.875 588.402,616.503C589.797,576.208 629.397,572.723 645.186,582.946C664.748,595.612 660.672,612.54 654.996,672.54C643.29,796.265 644.485,813.785 635.079,826.142C626.315,837.655 622.643,839.508 573.498,836.71L570.493,836.621C518.496,834.912 466.498,833.204 414.501,831.495C418.038,820.15 420.031,790.159 421.562,788.563C422.205,787.892 422.377,788.138 517.502,790.138C570.969,791.262 571.917,792.004 578.275,786.5C580.046,784.967 578.9,784.585 579.073,784.054Z" style="fill:rgb(14,116,130);"/>
    </g>
    <g transform="matrix(0.97282,0,0,0.97282,135.416268,135.416268)">
        <path d="M677.937,399.035C677.618,399.979 677.032,399.532 676.704,400.5C676.676,400.582 676.67,400.6 677.103,401.5C698.23,445.407 664.486,529.35 641.577,549.587C637.971,552.773 616.165,572.035 581.767,543.163C553.946,519.812 550.601,513.493 541.284,498.17C549.927,492.813 554.871,488.764 559.143,474.38C561.588,466.15 594.932,491.692 595.699,492.217C628.484,514.638 625.139,520.048 628.527,519.589C629.84,519.411 630.605,517.565 618.826,506.167C616.653,504.064 619.514,500.385 631.752,464.589C638.752,444.116 639.834,443.683 638.356,442.71C636.04,441.185 633.964,449.276 632.804,452.62C632.182,452.589 631.931,451.531 631.309,451.5C629.038,451.386 628.467,460.905 602.513,493.481C576.415,474.743 569.778,470.705 561.456,469.976C549.816,468.956 551.105,455.776 539.461,457.196C538.535,457.309 537.086,457.486 530.964,449.204C529.142,446.74 535.315,436.741 533.585,435.39C530.151,432.708 529.996,448.111 526.02,442.961C517.889,432.429 515.151,431.041 517.008,427.246C526.741,407.356 531.781,398.217 560.586,387.769C564.456,386.364 565.698,384.848 567.146,388.652C569.165,393.95 581.663,400.948 597.504,401.091C630.297,401.387 640.81,380.521 644.425,381.752C664.3,388.52 675.548,397.193 677.937,399.035Z" style="fill:rgb(253,253,253);"/>
    </g>
    <g transform="matrix(0.97282,0,0,0.97282,135.416268,135.416268)">
        <path d="M253.451,610.497C254.358,600.379 253.929,600.044 259.901,591.78C271.013,576.403 312.37,568.457 315.468,612.502C321.678,700.814 321.963,700.787 321.899,708.482C321.838,715.971 318.005,715.751 319.524,745.499C319.748,749.89 301.15,790.242 290.341,816.439C287.375,823.626 286.559,826.907 283.3,824.911C269.805,816.643 269.577,810.726 265.52,760.498C261.502,711.832 257.485,663.166 253.468,614.501C253.462,613.166 253.457,611.832 253.451,610.497Z" style="fill:rgb(13,116,129);"/>
    </g>
    <g transform="matrix(0.97282,0,0,0.97282,135.416268,135.416268)">
        <path d="M506.524,709.051C556.16,712.951 580.739,705.728 582.36,706.739C583.01,707.143 582.749,714.808 582.726,715.51C580.713,774.763 582.589,777.386 577.408,781.371C572.828,784.894 572.05,783.831 421.548,780.212C425.853,751.035 425.545,741.783 435.028,728.178C450.553,705.904 502.382,713.068 505.5,710.522C505.963,710.144 506.061,709.429 506.524,709.051Z" style="fill:rgb(13,115,128);"/>
    </g>
    <g transform="matrix(0.97282,0,0,0.97282,135.416268,135.416268)">
        <path d="M745.176,555.448C746.583,547.376 757.119,486.917 762.927,454.566C771.389,407.43 819.053,417.208 821.48,449.501C821.977,456.113 821.919,456.168 809.857,531.557C803.244,572.885 804.617,574.672 801.54,574.795C800.25,574.846 744.751,574.813 743.421,574.743C741.379,574.635 742.51,570.929 745.176,555.448Z" style="fill:rgb(8,87,99);"/>
    </g>
    <g transform="matrix(0.97282,0,0,0.97282,135.416268,135.416268)">
        <path d="M332.883,207.42C333.41,209.782 339.155,235.539 341.546,236.41C350.715,239.75 347.033,248.722 357.933,260.077C376.556,279.477 400.393,268.864 409.529,247.512C411.596,242.68 411.596,238.429 417.491,236.475C421.09,235.281 431.062,190.584 429.538,180.495C427.31,165.746 413.442,163.585 411.837,165.739C400.583,180.835 388.09,155.623 403.478,152.359C410.116,150.951 412.756,159.877 414.522,160.434C430.006,165.312 439.228,169.759 430.005,211.386C426.071,229.144 421.66,235.059 424.555,239.461C428.843,245.982 414.405,273.808 395.419,281.302C391.494,282.851 389.48,281.287 389.343,285.49C388.962,297.22 390.467,298.016 385.82,302.803C385.283,303.357 382.366,332.524 388.973,345.26C404.633,375.446 454.347,369.903 454.553,326.5C454.555,326.071 454.543,309.94 454.542,308.5C454.538,302.732 455.023,295.468 453.461,294.562C451.142,293.216 440.4,290.833 437.806,276.451C433.526,252.718 470.223,236.973 481.396,266.536C483.837,272.995 482.655,286.969 469.379,293.258C464.08,295.767 465.526,297.257 465.534,309.5C465.539,316.478 471.587,360.763 434.418,373.241C408.065,382.087 374.115,364.343 373.877,328.496C373.872,327.637 373.896,313.674 373.882,310.501C373.86,305.561 375.076,305.022 371.604,301.403C367.798,297.437 371.593,284.357 368.317,282.883C367.408,282.475 352.954,279.553 340.886,260.271C331.299,244.954 333.814,241.098 334.754,239.657C338.21,234.358 333.651,234.069 327.124,200.563C318.658,157.103 344.491,164.181 346.579,159.556C349.02,154.148 348.504,152.662 354.485,152.273C368.354,151.37 364.04,176.693 350.768,169.07C347.783,167.355 347.786,161.74 337.651,167.747C325.058,175.21 330.449,194.682 332.883,207.42Z" style="fill:rgb(10,27,35);"/>
    </g>
    <g transform="matrix(0.97282,0,0,0.97282,135.416268,135.416268)">
        <path d="M697.27,428.555C697.161,428.07 695.99,422.824 696.398,422.399C696.556,422.234 696.595,422.057 743.504,422.197C775.141,422.292 777.079,422.435 779.426,421.927C786.192,420.464 777.828,423.428 771.073,430.075C760.999,439.989 762.756,441.542 747.798,524.555C747.507,526.17 747.298,527.799 747.022,529.417C746.419,532.939 740.209,569.232 739.18,573.385C738.73,575.2 737.678,574.929 706.428,574.849C706.404,566.226 720.956,487.965 702.047,436.705C700.34,432.079 700.981,431.659 697.27,428.555Z" style="fill:rgb(13,113,127);"/>
    </g>
    <g transform="matrix(0.97282,0,0,0.97282,135.416268,135.416268)">
        <path d="M561.361,273.785C563.011,274.552 562.911,274.562 564.59,275.286C576.829,280.56 565.088,270.041 565.362,267.426C565.796,263.276 569.67,276.643 591.474,278.789C597.692,279.402 591.792,270.182 591.603,267.509C591.034,259.474 592.236,271.972 609.113,285.975C614.189,290.187 615.565,293.794 617.907,289.733C625.13,277.202 640.111,289.309 632.215,305.353C627.409,315.12 618.381,308.519 618.211,313.489C617.232,342.133 617.255,342.231 611.008,359.297C608.322,366.126 617.591,362.648 619.364,363.741C624.099,366.66 588.592,376.332 582.405,368.526C593.784,365.428 609.069,352.12 611.714,342.603C613.547,336.004 607.576,338.54 607.134,338.728C604.185,337.996 604.517,339.264 602.571,341.56C577.193,371.495 548.965,353.87 540.831,317.423C534.966,291.145 536.707,289.986 538.624,288.709C543.513,285.453 543.929,286.965 548.455,286.316C551.537,285.873 548.064,279.039 538.402,285.339C531.232,290.013 542.267,252.706 545.246,256.706C548.927,261.647 546.115,264.454 561.361,273.785Z" style="fill:rgb(245,168,126);"/>
    </g>
    <g transform="matrix(0.97282,0,0,0.97282,135.416268,135.416268)">
        <path d="M324.492,702.512C324.055,700.389 318.011,611.521 317.845,609.462C315.921,585.521 299.872,580.564 299.921,580.233C300.147,578.714 305.304,579.41 305.496,579.41C457.244,579.621 457.256,578.077 470.419,578.978C472.467,579.119 472.474,580.411 467.418,604.462C466.914,606.86 453.496,605.612 427.526,606.983C369.338,610.057 328.99,608.966 327.688,666.505C327.126,691.288 331.368,695.519 325.314,702.084L324.492,702.512Z" style="fill:rgb(11,102,115);"/>
    </g>
    <g transform="matrix(0.97282,0,0,0.97282,135.416268,135.416268)">
        <path d="M542.882,527.166C543.021,527.895 540.958,527.771 541.097,528.5C541.333,529.727 549.217,541.118 549.96,542.19C575.237,578.705 597.594,583.226 574.321,612.338C568.752,619.305 564.685,620.122 559.453,623.844C529.348,617.519 508.829,607.742 507.965,604.402C504.343,590.394 526.081,571.014 521.105,528.546C520.733,525.369 516.494,489.195 519.515,488.597C520.729,488.357 529.313,498.801 530.094,499.752C532.451,502.62 527.482,508.046 542.882,527.166Z" style="fill:rgb(253,253,253);"/>
    </g>
    <g transform="matrix(0.97282,0,0,0.97282,135.416268,135.416268)">
        <path d="M515.752,492.53C515.389,493.044 514.495,492.986 514.132,493.5C510.383,498.815 510.694,568.74 468.408,547.693C442.656,534.876 430.998,514.938 431.492,509.46C451.111,505.174 454.464,485.993 454.586,485.532C456.952,476.525 493.331,516.402 493.506,516.418C499.258,516.952 486.28,504.859 485.873,503.45C485.656,502.701 499.796,463.274 500.605,462.661C502.757,461.028 502.442,463.078 504.944,466.129C511.255,473.824 519.388,473.343 518.266,477.443C516.916,482.375 516.824,482.296 515.752,492.53Z" style="fill:rgb(253,253,253);"/>
    </g>
    <g transform="matrix(0.97282,0,0,0.97282,135.416268,135.416268)">
        <path d="M677.937,399.035C683.074,403.85 708.504,427.689 688.284,486.436C657.82,574.95 637.652,573.236 619.55,575.804C594.534,579.353 540.417,529.293 533.929,505.378C532.312,499.417 535.641,500.625 541.284,498.17C550.601,513.493 553.946,519.812 581.767,543.163C616.165,572.035 637.971,552.773 641.577,549.587C664.486,529.35 698.23,445.407 677.103,401.5C676.67,400.6 676.676,400.582 676.704,400.5C677.032,399.532 677.618,399.979 677.937,399.035Z" style="fill:rgb(213,218,222);"/>
    </g>
    <g transform="matrix(0.97282,0,0,0.97282,135.416268,135.416268)">
        <path d="M402.666,744.706C403.096,744.837 403.526,744.968 403.956,745.1C401.5,777.745 396.093,835.209 396.238,836.466C396.449,838.301 395.266,838.204 394.354,859.481C394.187,863.388 395.385,864.61 391.543,865.675C390.211,866.045 385.604,867.996 370.362,867.988L367.436,867.862C356.91,867.161 356.911,867.289 355.463,866.941C352.626,866.258 352.667,866.266 352.624,866.262C350.872,866.112 350.479,865.47 349.643,844.494C349.019,828.867 346.67,828.26 350.568,822.549C370.857,792.824 395.584,757.785 402.666,744.706Z" style="fill:rgb(13,55,66);"/>
    </g>
    <g transform="matrix(0.97282,0,0,0.97282,135.416268,135.416268)">
        <path d="M210.542,886.513C210.056,890.949 203.659,903.153 242.518,905.236C255.228,905.918 283.946,906.57 297.487,905.633C307.391,904.948 289.469,908.185 285.589,915.544C285.211,916.262 282.971,920.51 283.608,925.487C284.2,930.111 287.972,931.511 288.709,932C288.045,932.334 288.164,933.54 287.5,933.874C286.427,934.413 215.181,927.599 186.49,920.541C107.191,901.035 199.273,887.721 207.396,886.142C209.309,885.77 209.197,886.354 210.542,886.513Z" style="fill:rgb(211,216,220);"/>
    </g>
    <g transform="matrix(0.97282,0,0,0.97282,135.416268,135.416268)">
        <path d="M333.489,714.337C332.285,712.844 332.232,712.778 330.995,690.487C327.743,631.849 339.431,616.888 388.485,612.388C445.232,607.183 506.774,608.576 507.442,608.901C518.788,614.417 519.513,614.23 519.1,615.206C518.482,616.663 408.627,607.531 378.711,628.819C365.419,638.277 361.675,648.903 333.489,714.337Z" style="fill:rgb(15,61,74);"/>
    </g>
    <g transform="matrix(0.97282,0,0,0.97282,135.416268,135.416268)">
        <path d="M697.27,428.555C700.981,431.659 700.34,432.079 702.047,436.705C720.956,487.965 706.404,566.226 706.428,574.849C680.329,574.873 678.139,575.454 678.952,572.69C687.379,544.061 690.412,517.397 690.967,512.52C691.144,510.96 690.352,511.05 690.666,509.513C690.75,509.101 691.324,508.904 691.403,508.492C693.705,496.495 690.585,491.84 694.85,472.578C700.36,447.698 698.717,440.014 697.27,428.555Z" style="fill:rgb(9,90,103);"/>
    </g>
    <g transform="matrix(0.97282,0,0,0.97282,135.416268,135.416268)">
        <path d="M306.407,906.294C327.724,896.613 336.873,890.831 347.794,883.972C357.699,877.75 358.608,891.49 372.5,891.415C382.986,891.358 389.572,885.926 389.631,885.895C392.958,884.107 395.645,908.255 394.549,910.535C393.676,912.352 353.763,919.036 330.514,921.638C302.141,924.813 287.97,921.015 287.474,919.513C285.708,914.167 303.801,907.451 306.407,906.294Z" style="fill:rgb(252,252,252);"/>
    </g>
    <g transform="matrix(0.97282,0,0,0.97282,135.416268,135.416268)">
        <path d="M293.598,871.206C308.829,874.614 309.966,867.443 312.416,870.55C312.808,871.046 312.634,892.798 309.304,894.069C307.072,894.92 192.969,898.92 216.834,880.901C224.163,875.367 240.671,876.458 274.417,858.345C279.614,855.555 279.539,858.406 282.903,863.205C286.888,868.892 287.367,868.383 293.598,871.206Z" style="fill:rgb(252,252,252);"/>
    </g>
    <g transform="matrix(0.97282,0,0,0.97282,135.416268,135.416268)">
        <path d="M506.524,709.051C506.061,709.429 505.963,710.144 505.5,710.522C502.382,713.068 450.553,705.904 435.028,728.178C425.545,741.783 425.853,751.035 421.548,780.212C408.405,779.935 404.083,780.522 404.215,777.498C404.56,769.629 405.379,765.733 406.891,740.525C407.284,733.974 409.604,734.728 416.17,717.378C421.166,704.179 418.587,696.998 433.522,699.084C470.064,704.187 469.948,704.499 506.524,709.051Z" style="fill:rgb(9,89,101);"/>
    </g>
    <g transform="matrix(0.97282,0,0,0.97282,135.416268,135.416268)">
        <path d="M515.752,492.53C514.662,519.052 522.209,541.641 518.081,550.268C509.587,568.018 498.741,571.396 496.389,572.129C463.878,582.255 424.709,521.324 422.982,513.429C421.688,507.508 425.414,509.865 431.492,509.46C430.998,514.938 442.656,534.876 468.408,547.693C510.694,568.74 510.383,498.815 514.132,493.5C514.495,492.986 515.389,493.044 515.752,492.53Z" style="fill:rgb(213,218,222);"/>
    </g>
    <g transform="matrix(0.97282,0,0,0.97282,135.416268,135.416268)">
        <path d="M415.185,455.228C420.228,452.19 421.059,450.067 421.305,449.439C424.677,440.819 410.586,444.986 402.565,449.667C383.101,461.024 407.216,444.726 411.208,440.295C414.103,437.081 414.564,427.659 402.387,434.243C396.178,437.6 396.211,437.5 395.697,437.822C381.879,446.49 395.956,430.225 395.453,423.503C394.699,413.43 383.574,424.577 383.485,424.578C383.048,424.586 372.784,404.575 374.359,401.402C375.244,399.621 407.402,400.524 408.668,401.09C410.813,402.048 410.664,402.412 421.603,427.457C440.721,471.228 443.456,475.581 442.184,477.242C440.918,478.896 413.889,476.317 412.541,476.097C399.235,473.924 426.511,466.035 422.696,457.406C421.252,454.142 416.714,456.92 416.554,456.828C415.944,456.479 415.794,455.577 415.185,455.228Z" style="fill:rgb(16,119,133);"/>
    </g>
    <g transform="matrix(0.97282,0,0,0.97282,135.416268,135.416268)">
        <path d="M503.22,456.639C499.088,447.2 493.925,454.729 494.511,455.493C494.708,455.751 498.143,456.927 497.669,459.545C496.825,464.206 478.174,457.182 490.841,446.961C492.92,445.284 500.059,440.416 498.173,438.898C496.82,437.809 485.469,446.536 484.174,450.375C481.973,456.905 478.162,448.826 480.909,444.702C487.181,435.284 501.93,430.477 494.531,430.199C493.251,430.151 482.905,437.366 480.924,439.881C476.075,446.039 476.021,434.969 479.928,431.987C486.378,427.067 496.825,422.833 492.408,421.761C490.869,421.388 488.467,424.069 486.474,423.659C458.334,417.873 457.678,417.958 457.017,415.606C456.551,413.947 457.309,411.226 478.522,414.301C479.886,414.499 500.486,418.533 504.251,420.863C509.046,423.83 518.84,440.561 536.446,459.548C540.714,464.15 526.711,477.52 524.544,476.387C524.153,476.183 524.374,476.038 520.293,472.865C520.099,467.315 518.658,467.873 515.784,466.018C515.039,465.537 507.581,460.724 506.814,459.5C505.53,457.451 505.495,457.426 503.22,456.639Z" style="fill:rgb(245,169,127);"/>
    </g>
    <g transform="matrix(0.97282,0,0,0.97282,135.416268,135.416268)">
        <path d="M579.073,784.054C578.9,784.585 580.046,784.967 578.275,786.5C571.917,792.004 570.969,791.262 517.502,790.138C422.377,788.138 422.205,787.892 421.562,788.563C420.031,790.159 418.038,820.15 414.501,831.495C404.844,831.073 399.486,831.448 399.538,829.496C399.633,825.884 399.658,825.913 403.57,784.507C403.891,781.108 405.954,782.869 469.499,784.163C564.722,786.103 571.575,787.977 579.073,784.054Z" style="fill:rgb(9,90,102);"/>
    </g>
    <g transform="matrix(0.97282,0,0,0.97282,135.416268,135.416268)">
        <path d="M584.837,852.823C585.593,852.538 585.735,851.57 591.245,853.887C614.738,863.765 613.358,866.021 613.443,866.509C613.706,868.024 618.241,921.949 616.533,923.563C616.283,923.799 602.123,926.503 600.762,921.323C593.039,891.944 594.446,891.67 586.973,862.17C585.783,857.475 586.08,857.472 584.837,852.823Z" style="fill:rgb(21,47,57);"/>
    </g>
    <g transform="matrix(0.97282,0,0,0.97282,135.416268,135.416268)">
        <path d="M542.882,527.166C568.93,555.889 585.072,570.731 609.48,577.529C612.367,578.333 609.192,578.794 605.605,580.679C581.943,593.118 585.483,624.864 585.374,627.488C585.287,629.58 583.898,629.667 559.453,623.844C564.685,620.122 568.752,619.305 574.321,612.338C597.594,583.226 575.237,578.705 549.96,542.19C549.217,541.118 541.333,529.727 541.097,528.5C540.958,527.771 543.021,527.895 542.882,527.166Z" style="fill:rgb(253,253,253);stroke:rgb(253,253,253);stroke-width:1.03px;"/>
    </g>
    <g transform="matrix(0.97282,0,0,0.97282,135.416268,135.416268)">
        <path d="M372.69,289.506C372.623,287.255 373.412,281.852 370.442,280.686C363.303,277.881 362.966,278.612 356.826,274.018C343.558,264.09 330.761,239.443 340.474,239.277C344.526,239.208 345.642,245.283 345.689,245.399C355.846,270.602 373.695,274.739 384.548,272.815C408.825,268.512 413.498,240.375 417.461,239.361C428.371,236.57 418.985,256.747 410.022,267.08C401.528,276.874 400.602,275.763 388.582,280.775C383.651,282.832 389.957,299.467 382.539,300.712C373.215,302.278 373.034,298.951 372.69,289.506Z" style="fill:rgb(15,118,133);"/>
    </g>
    <g transform="matrix(0.97282,0,0,0.97282,135.416268,135.416268)">
        <path d="M690.159,490.76C690.502,497.847 685.679,533.497 683.147,544.418C677.232,569.935 676.101,574.812 673.536,574.885C666.801,575.076 649.698,574.454 639.574,575.326L639.572,574.487C641.579,571.501 647.925,570.92 657.305,558.345C667.244,545.021 681.487,518.492 688.561,492.533C689.163,490.324 690.069,490.828 690.159,490.76Z" style="fill:rgb(212,217,221);"/>
    </g>
    <g transform="matrix(0.97282,0,0,0.97282,135.416268,135.416268)">
        <path d="M517.38,557.962C516.54,568.043 507.241,586.373 505.891,594.525C504.686,601.803 508.856,605.93 501.503,605.876C471.418,605.654 470.524,606.152 470.322,604.546C470.19,603.505 475.349,576.08 475.801,574.912C476.509,573.084 490.584,580.238 503.29,572.151C512.876,566.049 514.384,558.79 517.38,557.962Z" style="fill:rgb(11,104,117);"/>
    </g>
    <g transform="matrix(0.97282,0,0,0.97282,135.416268,135.416268)">
        <path d="M405.387,458.331C404.916,458.662 401.903,460.785 399.729,462.765C384.346,476.778 416.01,457.625 419.581,458.306C424.931,459.326 408.016,469.696 406.826,470.851C402.466,475.082 406.4,475.85 407.361,476.642C412.544,480.914 423.614,479.134 432.608,480.236C437.233,480.802 422.82,493.051 417.732,489.187C409.109,482.639 408.136,484.461 398.742,479.059C388.62,473.239 381.64,458.035 382.246,453.459C382.726,449.842 383.208,449.777 381.765,446.381C375.923,432.632 390.319,420.182 392.304,422.65C395.424,426.53 386.633,430.16 387.233,441.532C387.329,443.348 384.887,445.704 386.541,446.373C387.779,446.874 407.007,431.981 409.883,435.2C412.265,437.866 400.206,445.752 399.906,445.981C390.68,453.02 389.288,459.46 393.715,456.974C401.56,452.568 416.259,445.704 417.871,447.053C421.245,449.876 408.512,456.374 405.387,458.331Z" style="fill:rgb(243,165,124);"/>
    </g>
    <g transform="matrix(0.97282,0,0,0.97282,135.416268,135.416268)">
        <path d="M442.067,267.349C452.429,243.056 478.458,255.501 478.809,272.498C479.373,299.847 434.409,297.367 442.067,267.349Z" style="fill:rgb(222,227,229);"/>
    </g>
    <g transform="matrix(0.97282,0,0,0.97282,135.416268,135.416268)">
        <path d="M454.67,354.654C429.856,386.041 396.769,370.889 384.887,355.107C382.468,351.894 374.197,340.908 376.648,305.516C376.852,302.561 382.225,302.896 382.254,305.509C382.434,321.743 376.956,355.396 409.454,365.677C428.872,371.819 456.8,358.724 457.254,329.494C457.753,297.352 456.135,295.294 459.494,295.227C462.364,295.17 462.684,295.67 462.705,298.51C463.026,341.798 462.269,342.277 454.67,354.654Z" style="fill:rgb(14,119,135);"/>
    </g>
    <g transform="matrix(0.97282,0,0,0.97282,135.416268,135.416268)">
        <path d="M316.269,872.427C319.493,861.671 319.966,860.443 320.358,859.425C321.093,857.519 321.768,858.535 324.503,858.666C328.425,858.854 342.356,829.808 345.525,832.468C346.654,833.416 347.548,865.498 348.372,867.563C349.417,870.182 353.44,867.262 353.578,872.507C349.154,871.616 317.928,874.977 316.815,873.5C316.574,873.179 316.51,872.748 316.269,872.427Z" style="fill:rgb(250,251,251);"/>
    </g>
    <g transform="matrix(0.97282,0,0,0.97282,135.416268,135.416268)">
        <path d="M316.269,872.427C316.51,872.748 316.574,873.179 316.815,873.5C317.928,874.977 349.154,871.616 353.578,872.507C353.54,873.342 353.837,878.558 352.298,879.057C351.188,879.416 350.794,879.003 345.788,881.976C314.873,900.337 311.952,901.427 312.479,898.499C316.775,874.612 315.767,874.474 316.269,872.427Z" style="fill:rgb(210,215,219);"/>
    </g>
    <g transform="matrix(0.97282,0,0,0.97282,135.416268,135.416268)">
        <path d="M346.56,927.892C338.708,929.047 285.992,937.28 286.308,924.485C286.43,919.511 290.57,930.709 348.46,922.176C363.876,919.904 386.487,915.885 389.427,915.201C393.683,914.21 393.835,913.65 394.595,914.419C395.103,914.933 394.771,919.413 390.539,920.627C385.244,922.147 350.087,927.368 346.56,927.892Z" style="fill:rgb(203,212,215);"/>
    </g>
    <g transform="matrix(0.97282,0,0,0.97282,135.416268,135.416268)">
        <path d="M292.429,844.609C303.544,850.912 303.621,850.639 315.206,855.96C317.185,856.87 311.078,867.022 311.027,867.045C292.727,875.115 279.745,859.14 282.661,853.574C287.984,843.413 287.945,843.383 288.23,843.068C289.248,841.945 292.023,844.349 292.429,844.609Z" style="fill:rgb(244,165,124);"/>
    </g>
    <g transform="matrix(0.97282,0,0,0.97282,135.416268,135.416268)">
        <path d="M215.438,896.591C214.958,896.175 212.945,895.259 212.518,891.501C212.277,889.384 213.468,889.762 215.214,890.991C225.18,898.002 255.371,897.279 264.501,897.466C308.089,898.359 310.101,896.187 309.705,898.516C308.916,903.147 303.168,903.183 302.48,903.187C242.989,903.561 227.643,903.003 215.438,896.591Z" style="fill:rgb(206,214,217);"/>
    </g>
    <g transform="matrix(0.97282,0,0,0.97282,135.416268,135.416268)">
        <path d="M359.539,870.163C373.102,871.031 373.012,870.448 386.496,869.748C388.171,869.661 388.221,871.329 388.226,871.528C388.513,881.176 389.967,883.789 382.536,886.59C368.263,891.971 361.922,884.423 357.681,881.257C356.27,880.205 356.085,880.262 356.131,878.502C356.149,877.826 356.341,870.46 357.369,870.146C357.535,870.095 357.53,870.147 359.539,870.163Z" style="fill:rgb(243,160,120);"/>
    </g>
    <g transform="matrix(0.97282,0,0,0.97282,135.416268,135.416268)">
        <path d="M632.804,452.62C631.449,456.542 616.63,499.433 615.539,501.529C614.973,502.616 614.167,502.471 602.513,493.481C628.467,460.905 629.038,451.386 631.309,451.5C631.931,451.531 632.182,452.589 632.804,452.62Z" style="fill:rgb(212,218,222);stroke:rgb(253,253,253);stroke-width:1.03px;"/>
    </g>
    <g transform="matrix(0.97282,0,0,0.97282,135.416268,135.416268)">
        <path d="M450.256,267.355C458.067,256.773 468.926,262.973 470.481,270.503C474.521,290.06 441.416,287.458 450.256,267.355Z" style="fill:rgb(7,27,34);"/>
    </g>
    <g transform="matrix(0.97282,0,0,0.97282,135.416268,135.416268)">
        <path d="M540.205,463.369C543.265,466.013 551.888,471.696 555.857,475.597C554.499,479.249 554.664,479.219 552.863,482.751C542.184,473.894 540.594,470.245 539.652,470.288C535.525,470.474 539.585,473.617 551.241,485.332C549.83,487.08 549.113,489.174 543.505,493.508C537.749,484.515 536.728,485.414 530.04,477.047C536.594,470.778 536.973,469.648 540.205,463.369Z" style="fill:rgb(250,250,250);"/>
    </g>
    <g transform="matrix(0.97282,0,0,0.97282,135.416268,135.416268)">
        <path d="M415.442,399.531C418.126,405.395 447.582,469.727 447.492,473.499C447.446,475.412 445.945,478.265 445.037,474.699C444.185,471.354 433.844,449.209 426.016,430.721C412.863,399.657 411.376,399.189 408.567,398.305C405.461,397.328 378.59,398.655 377.87,397.347C376.841,395.475 378.735,395.294 404.496,395.32C410.937,395.327 412.463,394.93 415.442,399.531Z" style="fill:rgb(165,186,192);"/>
    </g>
    <g transform="matrix(0.97282,0,0,0.97282,135.416268,135.416268)">
        <path d="M607.555,372.793C607.949,373.375 608.329,373.258 610.069,381.584C611.646,389.134 611.461,389.068 613.487,396.453C604.574,398.236 604.641,398.074 595.522,398.17C596.534,396.968 596.837,397.108 596.87,395.477C597.098,384.334 597.397,380.119 595.491,374.3C601.562,373.78 601.484,373.806 607.555,372.793Z" style="fill:rgb(251,251,252);"/>
    </g>
    <g transform="matrix(0.97282,0,0,0.97282,135.416268,135.416268)">
        <path d="M557.504,327.814C581.98,325.807 581.362,322.55 583.472,322.72C590.261,323.267 573.229,352.842 557.637,334.38C554.527,330.697 552.695,328.206 557.504,327.814Z" style="fill:rgb(16,30,38);"/>
    </g>
    <g transform="matrix(0.97282,0,0,0.97282,135.416268,135.416268)">
        <path d="M607.134,338.728C607.576,338.54 613.547,336.004 611.714,342.603C609.069,352.12 593.784,365.428 582.405,368.526C581.805,361.104 581.778,361.153 581.757,360.51C581.718,359.353 586.031,357.541 586.447,357.366C596.764,353.033 606.131,344.062 607.134,338.728Z" style="fill:rgb(245,168,126);stroke:rgb(245,168,126);stroke-width:1.03px;"/>
    </g>
    <g transform="matrix(0.97282,0,0,0.97282,135.416268,135.416268)">
        <path d="M619.408,368.321C619.677,368.921 620.72,368.9 620.989,369.5C621.605,370.876 620.749,371.143 626.747,387.443C627.593,389.741 628.328,389.317 628.712,389.772C621.497,394.261 620.028,394.25 616.53,395.63C615.543,393.94 614.47,392.102 610.648,371.876C615.083,370.206 615.045,370.367 619.408,368.321Z" style="fill:rgb(251,251,251);"/>
    </g>
    <g transform="matrix(0.97282,0,0,0.97282,135.416268,135.416268)">
        <path d="M584.579,373.194C590.024,374.371 589.958,374.175 595.491,374.3C595.344,375.162 594.212,375.639 594.066,376.5C593.837,377.844 594.385,377.845 593.923,393.539C593.842,396.279 593.902,396.275 593.828,396.5C593.495,397.508 592.799,396.935 592.466,397.942C585.749,396.888 585.836,396.792 579.409,394.69C580.027,393.524 580.319,393.729 580.576,392.489C581.174,389.596 585.086,379.354 584.579,373.194Z" style="fill:rgb(250,251,251);"/>
    </g>
    <g transform="matrix(0.97282,0,0,0.97282,135.416268,135.416268)">
        <path d="M454.576,279.416C446.434,269.951 456.791,264.987 458.532,264.703C472.822,262.372 469.182,289.266 454.576,279.416Z" style="fill:rgb(18,120,135);"/>
    </g>
    <g transform="matrix(0.97282,0,0,0.97282,135.416268,135.416268)">
        <path d="M563.625,628.126C571.214,629.263 571.187,629.004 578.641,631.17C582.613,632.324 583.58,631.081 583.589,631.084C583.926,631.169 583.522,631.855 583.755,632.113C583.984,632.368 584.52,632.12 584.751,632.373C585.262,632.933 584.755,647.2 584.059,656.524C583.86,656.086 583.241,655.938 583.042,655.5C581.955,653.11 582.915,652.795 580.336,647.573C574.682,636.121 570.063,635.024 563.625,628.126Z" style="fill:rgb(13,56,67);"/>
    </g>
    <g transform="matrix(0.97282,0,0,0.97282,135.416268,135.416268)">
        <path d="M330.677,719.49C329.378,726.292 328.349,725.903 323.838,737.732C323.772,737.904 321.448,743.998 321.65,738.47C321.95,730.265 321.253,715.387 326.781,704.647C326.887,704.44 329.154,700.036 329.461,703.515C329.573,704.792 329.431,704.781 330.677,719.49Z" style="fill:rgb(13,112,127);"/>
    </g>
    <g transform="matrix(0.97282,0,0,0.97282,135.416268,135.416268)">
        <path d="M583.38,372.816C582.9,373.941 582.644,373.856 577.391,393.782C576.573,393.303 567.981,388.261 569.846,384.647C576.413,371.926 575.136,368.195 578.594,370.355C580.908,371.8 580.836,371.75 583.38,372.816Z" style="fill:rgb(250,251,251);"/>
    </g>
    <g transform="matrix(0.97282,0,0,0.97282,135.416268,135.416268)">
        <path d="M436.29,482.333C441.557,488.831 441.367,489.08 448.523,493.512C445.501,497.941 445.598,497.927 441.469,501.455C436.231,494.779 436.39,494.75 430.121,489.049C433.656,486.029 433.675,486.116 436.29,482.333Z" style="fill:rgb(251,251,251);"/>
    </g>
    <g transform="matrix(0.97282,0,0,0.97282,135.416268,135.416268)">
        <path d="M572.621,336.823C562.273,339.606 558.97,331.126 559.562,330.577C560.756,329.47 561.495,332.503 579.562,326.799C582.795,325.778 580.172,330.014 580.025,330.251C577.023,335.1 575.926,335.161 572.621,336.823Z" style="fill:rgb(247,248,248);"/>
    </g>
    <g transform="matrix(0.97282,0,0,0.97282,135.416268,135.416268)">
        <path d="M428.343,490.21C434.086,496.523 433.711,496.779 439.745,502.76C434.81,506.097 434.57,505.507 430.507,506.606C428.531,502.524 428.872,502.438 426.287,498.636C424.19,495.552 423.874,495.831 422.49,492.464C425.576,491.62 425.516,491.644 428.343,490.21Z" style="fill:rgb(249,250,250);"/>
    </g>
    <g transform="matrix(0.97282,0,0,0.97282,135.416268,135.416268)">
        <path d="M627.461,364.154C627.486,364.381 626.787,368.959 635.627,384.622C633.926,385.927 632.225,387.232 630.524,388.538C627.124,381.845 627.791,381.632 625.17,374.639C623.669,370.634 624.271,370.386 621.735,366.926C627.173,363.878 627.267,364.218 627.461,364.154Z" style="fill:rgb(251,251,252);"/>
    </g>
    <g transform="matrix(0.97282,0,0,0.97282,135.416268,135.416268)">
        <path d="M401.011,165.93C395.822,159.123 402.06,155.721 403.48,155.361C412.901,152.973 411.607,173.262 401.011,165.93Z" style="fill:rgb(9,113,129);"/>
    </g>
    <g transform="matrix(0.97282,0,0,0.97282,135.416268,135.416268)">
        <path d="M349.342,161.515C349.462,160.942 350.443,156.256 353.498,155.491C356.291,154.792 358.065,156.384 358.363,156.651C365.657,163.195 352.502,174.474 349.342,161.515Z" style="fill:rgb(14,122,139);fill-opacity:0.4;"/>
    </g>
    <g transform="matrix(0.97282,0,0,0.97282,135.416268,135.416268)">
        <path d="M560.349,304.463C558.563,311.11 555.783,315.684 561.589,317.135C566.732,318.419 563.753,320.271 563.46,320.31C563.3,320.331 552.968,319.785 554.969,312.647C558.891,298.652 558.239,297.879 559.465,297.959C561.478,298.091 560.441,303.945 560.349,304.463Z" style="fill:rgb(20,29,36);"/>
    </g>
    <g transform="matrix(0.97282,0,0,0.97282,135.416268,135.416268)">
        <path d="M527.601,478.695C528.872,479.835 528.619,480.051 541.682,494.728C540.068,495.628 540.149,495.581 538.458,496.373C534.626,494.018 526.464,481.185 524.379,480.02C524.12,479.875 523.763,480.329 523.504,480.184C525.625,479.548 525.605,479.641 527.601,478.695Z" style="fill:rgb(249,250,250);"/>
    </g>
    <g transform="matrix(0.97282,0,0,0.97282,135.416268,135.416268)">
        <path d="M503.22,456.639C505.495,457.426 505.53,457.451 506.814,459.5C507.581,460.724 515.039,465.537 515.784,466.018C518.658,467.873 520.099,467.315 520.293,472.865C508.871,467.426 508.197,467.453 503.22,456.639Z" style="fill:rgb(235,149,107);"/>
    </g>
    <g transform="matrix(0.97282,0,0,0.97282,135.416268,135.416268)">
        <path d="M540.205,463.369C540.37,462.651 540.798,459.372 542.427,459.816C543.874,460.211 547.046,463.25 547.408,463.596C556.162,471.981 556.597,472.341 555.857,475.597C551.888,471.696 543.265,466.013 540.205,463.369Z" style="fill:rgb(228,233,236);"/>
    </g>
    <g transform="matrix(0.97282,0,0,0.97282,135.416268,135.416268)">
        <path d="M437.219,481.165C438.673,480.579 438.689,480.818 442.511,480.693C446.471,480.564 446.876,479.482 449.851,482.163C449.185,482.487 449.166,483.604 448.5,483.928C448.061,484.141 447.57,483.374 447.098,483.5C445.196,484.006 447.161,484.508 451.181,487.426C450.524,489.06 449.867,490.693 449.209,492.327C446.696,488.822 442.367,485.365 440.525,483.485C439.054,481.983 438.884,482.333 437.219,481.165Z" style="fill:rgb(251,251,251);"/>
    </g>
    <g transform="matrix(0.97282,0,0,0.97282,135.416268,135.416268)">
        <path d="M610.648,371.876C614.47,392.102 615.543,393.94 616.53,395.63C615.516,395.905 614.501,396.179 613.487,396.453C611.461,389.068 611.646,389.134 610.069,381.584C608.329,373.258 607.949,373.375 607.555,372.793L610.648,371.876Z" style="fill:rgb(215,221,224);"/>
    </g>
    <g transform="matrix(0.97282,0,0,0.97282,135.416268,135.416268)">
        <path d="M595.491,374.3C597.397,380.119 597.098,384.334 596.87,395.477C596.837,397.108 596.534,396.968 595.522,398.17C594.503,398.094 593.485,398.018 592.466,397.942C592.799,396.935 593.495,397.508 593.828,396.5C593.902,396.275 593.842,396.279 593.923,393.539C594.385,377.845 593.837,377.844 594.066,376.5C594.212,375.639 595.344,375.162 595.491,374.3Z" style="fill:rgb(214,220,223);"/>
    </g>
    <g transform="matrix(0.97282,0,0,0.97282,135.416268,135.416268)">
        <path d="M621.735,366.926C624.271,370.386 623.669,370.634 625.17,374.639C627.791,381.632 627.124,381.845 630.524,388.538L628.712,389.772C628.328,389.317 627.593,389.741 626.747,387.443C620.749,371.143 621.605,370.876 620.989,369.5C620.72,368.9 619.677,368.921 619.408,368.321L621.735,366.926Z" style="fill:rgb(214,220,224);"/>
    </g>
    <g transform="matrix(0.97282,0,0,0.97282,135.416268,135.416268)">
        <path d="M523.504,480.184C524.862,487.883 534.004,493.741 532.783,495.5C532.407,496.041 531.63,496.213 531.255,496.755C524.472,489.688 524.489,489.758 523.929,489.123C519.71,484.336 517.229,481.389 523.504,480.184Z" style="fill:rgb(248,248,249);"/>
    </g>
    <g transform="matrix(0.97282,0,0,0.97282,135.416268,135.416268)">
        <path d="M523.504,480.184C523.763,480.329 524.12,479.875 524.379,480.02C526.464,481.185 534.626,494.018 538.458,496.373C534.668,497.65 534.238,499.488 531.255,496.755C531.63,496.213 532.407,496.041 532.783,495.5C534.004,493.741 524.862,487.883 523.504,480.184Z" style="fill:rgb(207,213,218);"/>
    </g>
    <g transform="matrix(0.97282,0,0,0.97282,135.416268,135.416268)">
        <path d="M419.478,492.711C420.149,494.964 423.32,499.076 427.508,506.784C425.647,506.608 423.617,506.804 421.955,504.187C418.807,499.227 418.54,499.511 415.652,494.442C413.569,490.785 418.927,492.601 419.478,492.711Z" style="fill:rgb(245,247,247);"/>
    </g>
    <g transform="matrix(0.97282,0,0,0.97282,135.416268,135.416268)">
        <path d="M583.38,372.816L584.579,373.194C585.086,379.354 581.174,389.596 580.576,392.489C580.319,393.729 580.027,393.524 579.409,394.69L577.391,393.782C582.644,373.856 582.9,373.941 583.38,372.816Z" style="fill:rgb(213,218,222);"/>
    </g>
    <g transform="matrix(0.97282,0,0,0.97282,135.416268,135.416268)">
        <path d="M631.433,363.837C631.622,364.053 632.411,364.062 633.04,365.67C635.781,372.679 635.75,372.621 640.01,378.782C640.683,379.757 637.943,382.484 637.682,382.743C634.817,378.201 634.635,378.319 631.416,369.509C630.76,367.715 629.926,367.627 631.433,363.837Z" style="fill:rgb(243,245,245);"/>
    </g>
    <g transform="matrix(0.97282,0,0,0.97282,135.416268,135.416268)">
        <path d="M631.433,363.837C629.926,367.627 630.76,367.715 631.416,369.509C634.635,378.319 634.817,378.201 637.682,382.743L635.627,384.622C626.787,368.959 627.486,364.381 627.461,364.154C629.504,363.877 629.437,363.872 631.433,363.837Z" style="fill:rgb(210,217,221);"/>
    </g>
    <g transform="matrix(0.97282,0,0,0.97282,135.416268,135.416268)">
        <path d="M530.04,477.047C536.728,485.414 537.749,484.515 543.505,493.508L541.682,494.728C528.619,480.051 528.872,479.835 527.601,478.695L530.04,477.047Z" style="fill:rgb(213,218,221);"/>
    </g>
    <g transform="matrix(0.97282,0,0,0.97282,135.416268,135.416268)">
        <path d="M581.787,294.326C584.795,303.171 577.745,304.103 576.335,299.551C575.195,295.868 576.745,288.596 581.787,294.326Z" style="fill:rgb(9,28,37);"/>
    </g>
    <g transform="matrix(0.97282,0,0,0.97282,135.416268,135.416268)">
        <path d="M579.477,279.931C589.53,281.239 588.095,284.021 587.618,284.601C586.174,286.357 583.014,281.702 575.513,283.55C570.169,284.866 572.246,281.645 572.497,281.496C574.485,280.312 578.906,279.975 579.477,279.931Z" style="fill:rgb(20,30,38);"/>
    </g>
    <g transform="matrix(0.97282,0,0,0.97282,135.416268,135.416268)">
        <path d="M552.863,482.751C552.322,483.611 551.782,484.472 551.241,485.332C539.585,473.617 535.525,470.474 539.652,470.288C540.594,470.245 542.184,473.894 552.863,482.751Z" style="fill:rgb(209,215,219);"/>
    </g>
    <g transform="matrix(0.97282,0,0,0.97282,135.416268,135.416268)">
        <path d="M543.358,299.505C543.398,299.066 543.792,294.724 546.576,295.034C548.551,295.255 549.785,298.137 549.426,301.493C549.1,304.527 544.605,307.621 543.358,299.505Z" style="fill:rgb(14,36,46);"/>
    </g>
    <g transform="matrix(0.97282,0,0,0.97282,135.416268,135.416268)">
        <path d="M419.478,492.711C420.482,492.629 421.486,492.546 422.49,492.464C423.874,495.831 424.19,495.552 426.287,498.636C428.872,502.438 428.531,502.524 430.507,506.606L427.508,506.784C423.32,499.076 420.149,494.964 419.478,492.711Z" style="fill:rgb(206,213,217);"/>
    </g>
    <g transform="matrix(0.97282,0,0,0.97282,135.416268,135.416268)">
        <path d="M430.121,489.049C436.39,494.75 436.231,494.779 441.469,501.455L439.745,502.76C433.711,496.779 434.086,496.523 428.343,490.21L430.121,489.049Z" style="fill:rgb(214,218,222);"/>
    </g>
    <g transform="matrix(0.97282,0,0,0.97282,135.416268,135.416268)">
        <path d="M621.645,293.596C623.03,291.974 622.703,291.737 624.612,290.723C628.244,288.794 631.652,294.061 627.539,293.312C622.487,292.392 623.75,300.429 621.455,301.243C620.879,301.447 618.092,301.216 621.645,293.596Z" style="fill:rgb(22,31,37);"/>
    </g>
    <g transform="matrix(0.97282,0,0,0.97282,135.416268,135.416268)">
        <path d="M437.219,481.165C438.884,482.333 439.054,481.983 440.525,483.485C442.367,485.365 446.696,488.822 449.209,492.327L448.523,493.512C441.367,489.08 441.557,488.831 436.29,482.333C436.6,481.944 436.909,481.554 437.219,481.165Z" style="fill:rgb(205,210,216);"/>
    </g>
    <g transform="matrix(0.97282,0,0,0.97282,135.416268,135.416268)">
        <path d="M471.435,439.363C474.748,439.332 474.11,440.532 475.705,443.428C475.812,443.624 478.479,448.467 474.703,446.038C470.893,443.586 468.332,442.163 471.435,439.363Z" style="fill:rgb(229,153,115);"/>
    </g>
    <g transform="matrix(0.97282,0,0,0.97282,135.416268,135.416268)">
        <path d="M401.774,408.399C401.795,406.277 401.321,405.647 403.45,405.187C403.67,405.14 405.007,404.851 406.179,405.859C408.884,408.186 405.724,414.865 401.774,408.399Z" style="fill:rgb(2,40,50);"/>
    </g>
    <g transform="matrix(0.97282,0,0,0.97282,135.416268,135.416268)">
        <path d="M493.612,473.562C493.405,472.988 492.306,473.104 492.099,472.53C492.048,472.387 493.33,466.049 493.444,465.487C493.985,462.809 497.17,463.158 496.152,466.347C494.08,472.83 493.942,473.047 493.612,473.562Z" style="fill:rgb(3,92,106);"/>
    </g>
    <g transform="matrix(0.97282,0,0,0.97282,135.416268,135.416268)">
        <path d="M449.851,482.163C451.626,484.49 451.601,484.56 451.181,487.426C447.161,484.508 445.196,484.006 447.098,483.5C447.57,483.374 448.061,484.141 448.5,483.928C449.166,483.604 449.185,482.487 449.851,482.163Z" style="fill:rgb(231,234,235);"/>
    </g>
    <g transform="matrix(0.97282,0,0,0.97282,135.416268,135.416268)">
        <path d="M253.451,610.497C253.457,611.832 253.462,613.166 253.468,614.501C253.174,613.475 252.786,613.646 252.897,612.508C253.004,611.405 253.169,611.52 253.451,610.497Z" style="fill:rgb(12,74,83);"/>
    </g>
    <g transform="matrix(0.97282,0,0,0.97282,135.416268,135.416268)">
        <path d="M367.436,867.862L370.362,867.988C370.149,868.116 370.663,868.6 370.45,868.728C370.302,868.818 370.278,868.753 367.436,867.862Z" style="fill:rgb(11,42,51);"/>
    </g>
    <g transform="matrix(0.97282,0,0,0.97282,135.416268,135.416268)">
        <path d="M570.493,836.621L573.498,836.71C571.958,837.149 572.004,836.972 570.493,836.621Z" style="fill:rgb(9,79,90);"/>
    </g>
    <g transform="matrix(0.97282,0,0,0.97282,135.416268,135.416268)">
        <path d="M402.666,744.706C403.088,744.71 403.143,743.81 403.565,743.814C403.565,743.814 403.925,744.997 403.956,745.1C403.526,744.968 403.096,744.837 402.666,744.706Z" style="fill:rgb(9,43,54);"/>
    </g>
</svg>
