<?xml version="1.0" encoding="UTF-8" standalone="no"?>
<!DOCTYPE svg PUBLIC "-//W3C//DTD SVG 1.1//EN" "http://www.w3.org/Graphics/SVG/1.1/DTD/svg11.dtd">
<svg width="100%" height="100%" viewBox="99.3 271.8 921.3 921.3" version="1.1" xmlns="http://www.w3.org/2000/svg" xmlns:xlink="http://www.w3.org/1999/xlink" xml:space="preserve" xmlns:serif="http://www.serif.com/" style="fill-rule:evenodd;clip-rule:evenodd;stroke-linejoin:round;stroke-miterlimit:2;">
    <g transform="matrix(1.031312,0,0,1.031312,127.468364,182.468364)">
        <path d="M219.952,411.323C221.131,409.187 222,410.665 225.339,409.221C232.666,406.052 232.087,404.774 231.559,404.433C230.613,403.821 217.928,410.902 220.59,406.55C221.915,404.385 232.027,402.346 226.881,398.077C182.404,361.184 188.329,331.004 186.272,345.414C184.149,360.278 202.207,400.718 198.588,427.51C193.744,463.375 164.495,471.946 163.935,471.178C163.624,470.75 168.982,456.824 165.58,458.615C164.442,459.213 165.887,460.221 157.602,472.563C147.915,486.995 161.057,493.189 156.619,494.749C135.299,502.241 93.747,490.666 90.231,447.519C89.528,438.891 94.708,427.782 90.948,431.917C88.593,434.506 84.001,452.352 87.833,463.416C89.195,467.35 88.905,467.558 88.569,467.611C85.217,468.139 57.218,438.011 87.859,393.734C110.686,360.749 114.312,360.238 113.255,307.504C112.822,285.923 111.469,253.967 134.875,229.878C141.573,222.984 166.994,204.696 194.233,221.915C199.069,224.972 197.891,217.004 218.827,198.888C252.012,170.172 328.887,156.543 385.536,208.453C387.563,210.31 413.42,211.994 427.047,249.676C433.726,268.145 430.107,293.988 416.209,308.212C410.363,314.195 413.839,315.72 409.234,334.444C405.797,348.417 411.779,350.814 421.206,364.719C425.952,371.719 422.744,382.012 409.513,384.558C399.069,386.568 405.675,400.239 398.228,404.004C394.108,406.087 392.814,406.659 395.097,410.719C397.989,415.862 393.273,416.36 390.031,428.379C376.704,477.782 332.251,444.011 329.383,450.437C326.384,457.155 321.741,481.197 324.785,484.19C333.281,492.546 386.681,501.187 408.08,539.734C427.037,573.881 437.572,627.541 441.273,623.223C445.77,617.977 441.344,613.453 463.762,598.909C474.905,591.68 474.222,590.883 482.94,580.91C486.512,576.824 491.916,577.518 493.605,581.422C493.683,581.603 494.571,583.656 495.281,583.244C495.617,583.049 504.567,557.681 505.354,555.451C517.184,521.919 517.811,521.191 519.871,518.804C526.999,510.539 531.245,512.969 578.499,513.189C591.152,513.247 594.619,512.083 600.211,518.745C604.043,523.132 604.098,524.341 604.256,527.473C602.151,539.754 583.748,580.694 584.738,583.436C587.128,590.058 597.945,590.618 584.964,615.756C581.972,621.55 587.693,621.563 587.427,629.5C587.186,636.688 584.549,636.269 584.82,643.48C585.228,654.37 581.525,653.506 579.889,661.576C575.911,681.206 568.41,682.421 550.693,699.7C546.267,704.017 552.882,705.442 550.112,716.413C549.146,720.238 532.969,770.599 511.227,802.308C465.249,869.366 436.716,833.304 438.201,842.512C438.446,844.034 441.027,860.035 441.288,861.536C442.759,869.979 442.736,869.914 443.952,878.442C444.524,882.456 446.319,883.734 442.531,885.114C441.222,883.208 441.978,883.064 441.681,881.463C440.467,874.934 433.931,830.93 433.278,826.532C426.293,779.497 435.495,752.826 429.725,758.808C422.876,765.908 379.89,810.472 336.592,839.628C287.542,872.656 263.067,875.006 236.774,857.123C208.688,838.02 178.384,784.477 159.712,742.42C155.905,733.281 156.055,733.202 155.457,732.698C152.986,730.614 156.283,739.153 157.587,743.47C172.723,794.352 176.704,805.346 179.532,815.493C183.049,828.115 182.893,866.324 179.498,883.59C173.778,882.049 180.668,878.975 179.091,835.515C178.062,807.173 170.148,803.47 148.739,720.438C141.832,693.65 84.566,591.977 151.866,520.84C172.158,499.391 180.235,494.45 204.143,477.025C207.114,474.86 207.228,475.232 210.563,473.62C213.939,471.989 216.38,465.357 216.683,464.535C218.218,462.541 218.207,462.617 219.44,460.456C220.863,456.74 228.802,436.002 232.711,412.52C233.506,407.741 230.607,410.471 228.399,411.156C224.591,412.338 224.639,412.252 220.611,412.221L219.952,411.323Z" style="fill:rgb(10,44,62);"/>
    </g>
    <g transform="matrix(1.031312,0,0,1.031312,127.468364,182.468364)">
        <path d="M248.195,644.681C245.848,638.653 239.214,615.914 237.348,614.988C233.888,613.271 237.933,622.757 241.312,632.568C263.656,697.431 274.213,732.813 280.943,742.171C284.769,747.492 279.142,746.188 276.484,746.359C264.608,747.123 241.794,763.453 248.453,763.768C248.835,763.787 268.173,748.083 276.392,749.491C274.28,751.299 257.756,765.439 255.881,777.537C255.594,779.387 257.66,779.72 258.359,778.417C265.177,765.707 265.158,755.972 292.714,743.889C301.67,739.962 338.718,723.716 399.794,684.948C406.444,680.727 409.185,678.6 410.132,679.766C419.595,691.419 430.301,708.607 431.919,711.204C447.711,736.557 445.973,737.611 445.399,738.439C443.87,740.644 318.581,877.633 260.496,864.519C249.636,862.067 212.257,858.176 151.786,718.379C90.516,576.733 132.951,530.444 205.495,479.493C209.673,476.559 210.187,477.991 216.778,482.081C243.405,498.603 292.76,540.116 326.494,528.484C333.912,525.927 345.479,511.765 330.872,492.281C328.293,488.84 335.003,492.489 351.525,499.448C393.572,517.158 405.131,531.433 421.28,577.583C429.336,600.609 428.968,600.67 437.172,623.627C437.608,624.847 439.078,627.201 438.553,628.516C433.153,642.054 432.755,642.74 431.715,642.107C430.651,641.46 432.618,640.382 416.203,608.649C406.453,589.799 406.757,589.693 401.561,575.46C400.989,573.893 398.771,573.87 399.291,576.516C402.414,592.404 432.323,642.035 430.015,648.36C421.442,671.85 420.139,671.496 414.198,676.108C410.983,678.603 410.034,675.387 406.488,677.477C402.717,679.699 402.967,680.095 359.655,705.756C356.936,707.367 323.585,727.511 290.634,741.885C288.353,742.88 286.772,745.777 282.914,740.193C276.137,730.386 252.475,656.744 251.459,651.508C250.937,644.893 251.81,644.878 250.066,629.549C249.678,626.141 249.773,619.013 247.453,619.355C245.431,619.653 248.159,637.143 248.811,640.562C249.281,643.029 248.697,642.917 248.195,644.681Z" style="fill:rgb(16,152,154);"/>
    </g>
    <g transform="matrix(1.031312,0,0,1.031312,127.468364,182.468364)">
        <path d="M405.413,324.589C405.116,324.578 402.686,322.612 401.928,329.544C399.414,352.522 433.572,370.23 414.236,380.045C405.569,384.445 404.644,378.048 396.74,380.766C396.634,380.8 392.691,379.644 394.842,384.373C397,389.119 399.998,388.767 400.98,389.618C401.228,389.834 400.393,390.329 400.641,390.545C398.254,398.612 400.808,402.845 392.507,402.081C377.383,400.691 363.532,391.097 361.529,393.52C357.471,398.428 374.911,416.559 389.383,412.146C398.648,409.321 388.221,422.119 387.793,424.534C386.503,431.81 381.925,470.42 323.438,442.628C311.572,436.989 301.051,427.35 299.314,425.759C299.202,425.656 298.215,424.752 297.44,425.418C297.161,425.658 297.438,426.247 297.159,426.487C296.606,425.833 296.053,425.178 295.501,424.524C294.167,421.05 287.5,413.684 288.783,420.46C294.822,452.36 316.088,464.794 319.96,467.058C320.129,467.157 320.104,467.169 321.898,468.553C321.682,470.758 318.414,504.243 323.067,496.217C323.399,495.644 322.366,484.783 325.315,488.67C328.629,493.039 338.931,505.802 333.037,519.275C327.517,531.892 295.719,532.349 254.768,504.127C214.478,476.36 212.867,477.248 213.23,475.424C213.458,474.284 217.653,473.013 225.657,452.561C230.984,438.948 235.341,412.169 235.921,408.605C236.51,404.982 251.936,398.001 259.438,371.481C261.094,365.626 264.294,373.166 273.421,371.185C276.968,370.416 275.856,368.009 274.577,368.076C271.315,368.248 264.543,371.875 251.835,357.229C231.308,333.57 249.187,291.439 274.285,306.846C288.944,315.845 282.546,333.69 293.459,330.369C299.371,328.57 303.263,317.573 305.612,316.821C307.915,316.084 337.8,311.086 362.845,276.745C380.729,252.221 379.853,236.569 384.368,238.81C393.06,243.122 403.265,248.633 409.763,275.429C409.967,276.272 414.282,298.481 410.245,301.029C400.547,307.148 410.657,307.803 410.817,308.331C411.219,309.658 410.533,309.651 408.4,325.489C406.984,324.677 407.025,324.707 405.413,324.589Z" style="fill:rgb(252,170,124);"/>
    </g>
    <g transform="matrix(1.031312,0,0,1.031312,127.468364,182.468364)">
        <path d="M600.211,518.745C600.427,518.068 601.521,518.34 601.248,515.495C600.889,511.753 600.59,508.639 600.892,468.503C601.016,452.06 615.487,438.643 630.517,437.988C633.526,437.857 680.927,438.031 722.503,437.928C726.979,437.917 756.501,434.084 764.1,461.613C765.028,464.975 767.505,512.702 762.665,524.565C753.102,548.008 724.627,543.859 717.501,543.861C657.245,543.874 657,543.56 654.86,544.963C642.958,552.767 622.456,574.381 625.677,557.536C627.823,546.318 628.432,544.237 624.665,543.031C612.117,539.012 612.974,537.428 604.256,527.473C604.098,524.341 604.043,523.132 600.211,518.745Z" style="fill:rgb(206,221,226);"/>
    </g>
    <g transform="matrix(1.031312,0,0,1.031312,127.468364,182.468364)">
        <path d="M159.712,742.42C178.384,784.477 208.688,838.02 236.774,857.123C263.067,875.006 287.542,872.656 336.592,839.628C379.89,810.472 422.876,765.908 429.725,758.808C435.495,752.826 426.293,779.497 433.278,826.532C433.931,830.93 440.467,874.934 441.681,881.463C441.978,883.064 441.222,883.208 442.531,885.114C376.576,892.335 311.88,892.853 300.501,892.945C297.025,891.148 292.878,891.223 289.502,892.946C214.897,892.614 186.578,885.051 179.498,883.59C182.893,866.324 183.049,828.115 179.532,815.493C176.704,805.346 172.723,794.352 157.587,743.47C158.296,743.12 159.004,742.77 159.712,742.42Z" style="fill:rgb(14,148,150);"/>
    </g>
    <g transform="matrix(1.031312,0,0,1.031312,127.468364,182.468364)">
        <path d="M746.582,536.645C735.229,541.189 734.789,539.695 662.502,539.872C650.518,539.902 651.352,542.772 641.744,549.852C631.01,557.762 629.394,560.569 629.304,557.568C629.242,555.547 633.318,540.665 630.317,539.939C624.154,538.447 619.533,539.183 610.666,529.342C604.354,522.337 604.444,518.318 604.74,472.508C604.966,437.539 635.636,442.191 652.502,442.164C734.602,442.031 734.779,441.083 741.582,443.207C764.846,450.471 761.134,473.693 761.092,493.497C761.042,517.362 762.785,526.316 746.582,536.645Z" style="fill:rgb(253,253,253);"/>
    </g>
    <g transform="matrix(1.031312,0,0,1.031312,127.468364,182.468364)">
        <path d="M479.157,613.313C476.428,617.649 476.7,617.969 475.469,618.434C475.292,618.5 467.181,620.08 466.602,620.626C461.886,625.072 477.421,620.906 484.441,619.238C527.066,609.11 541.243,588.906 550.524,592.443C567.237,598.811 503.311,636.254 503.27,636.398C502.133,640.385 511.46,635.54 515.622,633.804C547.948,620.322 545.188,611.796 553.511,612.325C558.86,612.665 553.622,619.524 551.336,623.398C540.034,642.551 509.299,656.385 508.734,657.576C506.728,661.81 518.572,655.484 523.393,652.337C549.429,635.34 546.845,631.286 549.523,631.384C551.75,631.466 546.397,641.913 544.516,641.432C544.257,641.366 538.152,639.806 542.737,644.267C544.88,646.351 543.394,646.916 539.169,653.256C530.254,666.631 511.521,671.657 511.504,675.5C511.491,678.235 516.279,674.757 519.186,673.003C532.011,665.268 539.277,657.623 535.025,665.274C518.549,694.927 491.535,704.58 464.486,711.453C446.872,715.929 445.867,730.245 442.755,724.355C427.439,695.369 411.816,681.535 414.901,678.936C425.018,670.413 424.854,669.988 429.459,657.484C448.874,604.757 459.836,605.014 467.284,600.172C484.074,589.258 486.861,575.282 491.168,582.692C497.561,593.689 479.495,612.788 479.157,613.313Z" style="fill:rgb(252,172,125);"/>
    </g>
    <g transform="matrix(1.031312,0,0,1.031312,127.468364,182.468364)">
        <path d="M547.586,715.509C545.669,721.592 545.246,722.704 545.012,723.319C538.893,739.414 515.742,811.686 474.221,836.056C457.259,846.011 438.123,839.987 437.229,834.558C431.754,801.288 433.846,786.73 434.281,759.489C434.445,749.23 439.989,750.281 447.432,740.424C452.03,734.335 442.506,732.28 447.527,726.525C457.858,714.681 459.784,716.45 460.301,717.585C462.917,723.334 461.585,723.756 457.401,728.405C454.66,731.452 450.82,729.044 452.055,732.92L453.723,733.478C451.129,738.05 451.291,738.074 448.695,742.581C442.908,752.631 439.305,766.899 440.631,768.351C442.998,770.942 443.464,763.485 445.894,755.691C452.301,735.134 474.494,711.694 475.455,711.378C489.79,706.664 489.486,706.119 503.359,700.053C505.174,699.259 506.798,702.595 508.613,704.381C529.335,724.775 547.175,713.839 547.718,714.398C547.978,714.665 547.327,715.241 547.586,715.509Z" style="fill:rgb(16,152,155);"/>
    </g>
    <g transform="matrix(1.031312,0,0,1.031312,127.468364,182.468364)">
        <path d="M552.53,574.821C543.378,577.52 543.903,588.374 544.459,589.702C543.817,590.012 543.176,590.322 542.534,590.632C541.199,591.522 532.052,596.038 530.756,596.914C526.268,599.947 497.45,615.369 497.868,611.457C498.004,610.182 509.915,575.705 509.939,575.642C524.879,535.398 524.872,525.308 535.575,521.735C539.829,520.315 591.626,521.558 596.498,521.675C608.461,521.963 594.285,546.081 593.177,551.402C592.924,552.619 587.246,567.497 586.717,568.605C583.613,575.11 583.407,582.378 579.473,580.554C568.725,575.57 566.837,581.628 566.282,582.359C559.471,591.332 569.604,596.504 572.302,599.632C572.921,600.349 573.955,601.548 570.037,611.257C568.888,614.105 554.996,606.889 548.551,610.871C540.801,615.661 541.018,616.706 540.61,616.65C536.065,616.026 544.343,612.351 550.708,605.689C556.882,599.226 555.428,596.293 555.296,593.7C556.387,592.441 557.029,593.046 559.115,589.292C559.602,588.416 561.189,585.56 559.246,576.757C560.024,573.966 561.467,572.552 558.504,572.441C555.024,572.31 554.748,572.185 552.53,574.821Z" style="fill:rgb(14,99,111);"/>
    </g>
    <g transform="matrix(1.031312,0,0,1.031312,127.468364,182.468364)">
        <path d="M562.659,629.169C557.883,626.826 553.611,625.051 554.983,622.706C555.667,621.537 556.495,620.458 557.213,619.31C559.743,615.261 558.515,612.942 561.505,613.465C583.525,617.316 584.284,625.357 584.486,627.501C585.137,634.401 581.429,636.773 581.71,640.485C582.377,649.288 581.576,649.241 578.172,657.356C575.09,664.702 580.853,668.745 557.173,690.13C550.557,696.105 551.136,696.804 543.391,701.317C540.718,703.003 538.523,702.8 540.409,704.614C540.703,704.897 540.681,704.299 545.398,703.538C541.485,712.742 541.55,714.158 535.502,714.12C518.386,714.012 506.665,699.246 507.832,697.741C508.083,697.418 517.531,691.841 525.928,682.93C532.533,675.92 532.086,673.429 535.645,675.182C547.621,681.081 550.035,668.069 552.296,669.811C554.964,671.866 555.716,673.775 556.337,671.448C557.719,666.268 537.122,661.618 540.863,655.711C541.173,655.221 544.267,650.336 545.43,650.091C551.387,648.836 563.842,655.182 565.32,655.934C568.483,657.546 568.44,655.018 567.167,653.789C559.987,646.861 546.968,646.149 548.882,641.631C549.155,640.987 551.773,634.807 553.298,634.081C555.996,632.797 556.051,633.818 561.378,634.95C573.58,638.242 574.958,639.702 574.946,637.517C574.944,637.095 574.568,637.402 571.162,633.841C570.178,632.813 563.358,629.507 562.659,629.169Z" style="fill:rgb(251,169,122);"/>
    </g>
    <g transform="matrix(1.031312,0,0,1.031312,127.468364,182.468364)">
        <path d="M295.501,424.524C296.053,425.178 296.606,425.833 297.159,426.487C303.449,436.378 309.111,446.558 321.717,456.208C324.425,458.281 323.975,458.952 321.898,468.553C320.104,467.169 320.129,467.157 319.96,467.058C316.088,464.794 294.822,452.36 288.783,420.46C287.5,413.684 294.167,421.05 295.501,424.524Z" style="fill:rgb(252,170,124);stroke:rgb(252,170,124);stroke-width:0.97px;"/>
    </g>
    <g transform="matrix(1.031312,0,0,1.031312,127.468364,182.468364)">
        <path d="M519.416,525.472C519.609,525.754 518.84,526.141 519.033,526.423C519.407,526.971 522.21,528.782 522.499,528.969C522.827,529.181 523.202,529.314 523.531,529.526C513.778,557.196 513.912,557.193 511.395,563.464C510.391,565.985 510.346,565.87 509.527,568.512C507.728,568.402 507.708,568.231 506.225,569.225C501.882,578.804 499.59,580.664 502.494,582.597C503.107,582.579 502.913,582.16 503.494,582.144C505.433,582.088 504.323,583.346 504.417,583.483C494.942,611.487 495.388,611.747 493.756,613.726C493.142,614.471 487.217,616.913 487.982,613.737C488.103,613.235 488.312,613.308 489.82,607.547C492.775,598.366 510.626,547.517 513.167,542.342C513.638,541.382 517.855,530.589 517.829,529.567C517.818,529.162 517.225,528.837 517.347,528.451C517.434,528.174 517.953,528.641 519.416,525.472Z" style="fill:rgb(10,83,99);"/>
    </g>
    <g transform="matrix(1.031312,0,0,1.031312,127.468364,182.468364)">
        <path d="M567.805,591.347C567.035,589.24 564.546,575.387 580.231,583.975C582.433,585.181 595.907,592.559 582.176,615.299C580.311,618.387 572.637,613.579 572.805,612.53C572.872,612.111 576.569,605.636 576.614,605.584C581.225,600.192 574.899,600.888 567.805,591.347Z" style="fill:rgb(250,171,124);"/>
    </g>
    <g transform="matrix(1.031312,0,0,1.031312,127.468364,182.468364)">
        <path d="M519.416,525.472C522.777,512.946 535.078,515.78 570.489,515.783C589.951,515.785 589.957,515.671 591.575,516.149C594.092,516.893 595.103,515.977 595.457,518.475C595.748,520.525 540.096,516.775 532.713,519.924C526.943,522.386 523.989,528.567 523.531,529.526C523.202,529.314 522.827,529.181 522.499,528.969C522.21,528.782 519.407,526.971 519.033,526.423C518.84,526.141 519.609,525.754 519.416,525.472Z" style="fill:rgb(10,89,103);"/>
    </g>
    <g transform="matrix(1.031312,0,0,1.031312,127.468364,182.468364)">
        <path d="M643.648,497.368C637.741,488.638 644.961,482.39 650.5,482.49C666.447,482.779 657.779,510.023 643.648,497.368Z" style="fill:rgb(16,149,151);"/>
    </g>
    <g transform="matrix(1.031312,0,0,1.031312,127.468364,182.468364)">
        <path d="M709.294,498.767C700.878,490.936 707.969,482.513 714.499,482.455C729.271,482.323 723.14,507.809 709.294,498.767Z" style="fill:rgb(15,149,151);"/>
    </g>
    <g transform="matrix(1.031312,0,0,1.031312,127.468364,182.468364)">
        <path d="M677.245,484.18C684.644,479.388 691.97,485.406 691.256,492.473C689.673,508.149 663.768,497.324 677.245,484.18Z" style="fill:rgb(15,148,150);"/>
    </g>
    <g transform="matrix(1.031312,0,0,1.031312,127.468364,182.468364)">
        <path d="M552.53,574.821C557.605,574.888 557.908,575.884 559.246,576.757C561.189,585.56 559.602,588.416 559.115,589.292C557.029,593.046 556.387,592.441 555.296,593.7C551.93,587.618 547.322,589.371 544.459,589.702C543.903,588.374 543.378,577.52 552.53,574.821Z" style="fill:rgb(56,148,151);"/>
    </g>
    <g transform="matrix(1.031312,0,0,1.031312,127.468364,182.468364)">
        <path d="M194.691,225.236L195.334,226.413C186.465,240.625 183.722,251.563 181.266,261.388C180.983,261.665 180.699,261.941 180.415,262.218C180.076,262.301 180.232,263.042 179.893,263.125C179.435,263.238 178.906,256.994 178.861,256.456C176.898,233.27 192.714,224.653 193.578,224.581C194.007,224.546 194.262,225.272 194.691,225.236Z" style="fill:rgb(10,77,94);"/>
    </g>
    <g transform="matrix(1.031312,0,0,1.031312,127.468364,182.468364)">
        <path d="M357.397,306.291C349.597,309.082 354.938,302.864 357.747,300.852C373.02,289.91 391.738,300.273 385.462,304.445C383.724,305.599 379.599,302.887 375.523,302.335C369.309,301.494 358.773,305.736 357.397,306.291Z" style="fill:rgb(12,44,60);"/>
    </g>
    <g transform="matrix(1.031312,0,0,1.031312,127.468364,182.468364)">
        <path d="M377.328,329.518C377.34,330.843 377.352,332.169 377.363,333.494C375.139,348.172 369.601,342.781 368.947,342.076C362.509,335.144 373.168,311.107 377.328,329.518Z" style="fill:rgb(10,44,62);"/>
    </g>
    <g transform="matrix(1.031312,0,0,1.031312,127.468364,182.468364)">
        <path d="M386.543,409.964C368.844,410.218 361.292,394.151 366.372,396.831C384.759,406.529 394.518,402.197 390.276,408.334C389.543,409.395 386.864,409.903 386.543,409.964Z" style="fill:rgb(246,247,248);"/>
    </g>
    <g transform="matrix(1.031312,0,0,1.031312,127.468364,182.468364)">
        <path d="M349.64,264.68C352.295,265 350.702,266.146 349.499,268.499C348.006,271.417 336.317,288.152 325.117,297.118C312.625,307.118 304.516,308.194 308.696,304.744C308.733,304.714 320.709,300.054 336.122,283.031C339.656,279.129 347.037,268.198 347.933,266.871C348.057,266.687 348.062,266.741 349.64,264.68Z" style="fill:rgb(8,59,77);"/>
    </g>
    <g transform="matrix(1.031312,0,0,1.031312,127.468364,182.468364)">
        <path d="M533.797,539.17C533.217,538.445 527.739,531.597 536.782,527.949C548.76,523.118 545.972,546.349 533.797,539.17Z" style="fill:rgb(10,43,61);"/>
    </g>
    <g transform="matrix(1.031312,0,0,1.031312,127.468364,182.468364)">
        <path d="M258.17,323.177C257.98,323.387 253.755,328.041 254.644,323.523C255.697,318.176 269.653,313.39 274.889,331.396C276.041,335.358 270.415,337.931 273.328,343.583C273.465,343.85 276.626,349.983 272.636,347.268C267.196,343.566 271.474,333.554 271.94,332.464C271.572,331.187 267.16,315.884 258.17,323.177Z" style="fill:rgb(15,40,58);"/>
    </g>
    <g transform="matrix(1.031312,0,0,1.031312,127.468364,182.468364)">
        <path d="M187.647,548.169C202.847,555.684 201.912,558.495 200.595,558.718C199.311,558.936 183.406,544.548 163.495,547.425C163.16,547.473 152.032,549.081 159.593,545.761C169.851,541.258 185.547,547.353 187.647,548.169Z" style="fill:rgb(9,89,104);"/>
    </g>
    <g transform="matrix(1.031312,0,0,1.031312,127.468364,182.468364)">
        <path d="M535.445,671.52C535.558,669.846 535.484,669.91 536.174,668.39C538.594,663.061 538.733,660.934 541.725,663.037C545.776,665.885 550.938,666.586 546.519,671.511C541.115,677.534 536.053,672.164 535.445,671.52Z" style="fill:rgb(13,89,103);"/>
    </g>
    <g transform="matrix(1.031312,0,0,1.031312,127.468364,182.468364)">
        <path d="M562.659,629.169C563.358,629.507 570.178,632.813 571.162,633.841C574.568,637.402 574.944,637.095 574.946,637.517C574.958,639.702 573.58,638.242 561.378,634.95C560.976,634.171 562.19,633.398 560.115,632.5C559.612,632.282 555.409,630.464 553.527,630.63C553.269,630.653 551.067,630.848 551.068,628.524C551.069,627.013 553.435,626.151 553.676,626.301C553.87,626.422 553.248,626.942 555.52,628.484C555.934,628.765 559.532,631.207 561.5,630.327C561.999,630.104 562.161,629.392 562.659,629.169Z" style="fill:rgb(15,53,71);"/>
    </g>
    <g transform="matrix(1.031312,0,0,1.031312,127.468364,182.468364)">
        <path d="M248.195,644.681C248.697,642.917 249.281,643.029 248.811,640.562C248.159,637.143 245.431,619.653 247.453,619.355C249.773,619.013 249.678,626.141 250.066,629.549C251.81,644.878 250.937,644.893 251.459,651.508C249.161,648.455 249.848,648.174 248.195,644.681Z" style="fill:rgb(11,93,106);"/>
    </g>
    <g transform="matrix(1.031312,0,0,1.031312,127.468364,182.468364)">
        <path d="M258.17,323.177C267.16,315.884 271.572,331.187 271.94,332.464C271.533,332.177 270.906,332.357 270.5,332.07C269.367,331.27 266.679,327.687 265.772,327.219C262.702,325.637 262.594,326.081 259.5,324.507C258.941,324.223 258.729,323.461 258.17,323.177Z" style="fill:rgb(243,149,104);"/>
    </g>
    <g transform="matrix(1.031312,0,0,1.031312,127.468364,182.468364)">
        <path d="M396.74,380.766C396.548,385.708 405.156,380.823 403.024,385.263C401.753,387.91 401.817,387.818 400.641,390.545C400.393,390.329 401.228,389.834 400.98,389.618C399.998,388.767 397,389.119 394.842,384.373C392.691,379.644 396.634,380.8 396.74,380.766Z" style="fill:rgb(237,136,92);"/>
    </g>
    <g transform="matrix(1.031312,0,0,1.031312,127.468364,182.468364)">
        <path d="M509.536,562.249C506.395,560.747 508.675,559.808 511.067,553.238C511.233,552.782 514.382,544.135 514.657,548.346C514.92,552.381 510.104,561.208 509.536,562.249Z" style="fill:rgb(4,42,58);"/>
    </g>
    <g transform="matrix(1.031312,0,0,1.031312,127.468364,182.468364)">
        <path d="M506.225,569.225C506.417,569.891 508.206,569.479 507.09,572.229C504.945,577.513 505.446,577.673 502.494,582.597C499.59,580.664 501.882,578.804 506.225,569.225Z" style="fill:rgb(8,42,59);"/>
    </g>
    <g transform="matrix(1.031312,0,0,1.031312,127.468364,182.468364)">
        <path d="M509.527,568.512C509.334,569.762 508.566,574.749 504.417,583.483C504.323,583.346 505.433,582.088 503.494,582.144C502.913,582.16 503.107,582.579 502.494,582.597C505.446,577.673 504.945,577.513 507.09,572.229C508.206,569.479 506.417,569.891 506.225,569.225C507.708,568.231 507.728,568.402 509.527,568.512Z" style="fill:rgb(11,66,87);"/>
    </g>
    <g transform="matrix(1.031312,0,0,1.031312,127.468364,182.468364)">
        <path d="M466.348,717.386C462.121,723.738 461.584,715.575 462.741,714.873C463.159,714.62 465.814,713.009 468.635,713.281C470.112,713.423 469.121,714.223 466.348,717.386Z" style="fill:rgb(243,244,244);"/>
    </g>
    <g transform="matrix(1.031312,0,0,1.031312,127.468364,182.468364)">
        <path d="M159.712,742.42C159.004,742.77 158.296,743.12 157.587,743.47C156.283,739.153 152.986,730.614 155.457,732.698C156.055,733.202 155.905,733.281 159.712,742.42Z" style="fill:rgb(7,136,147);"/>
    </g>
    <g transform="matrix(1.031312,0,0,1.031312,127.468364,182.468364)">
        <path d="M552.53,574.821C554.748,572.185 555.024,572.31 558.504,572.441C561.467,572.552 560.024,573.966 559.246,576.757C557.908,575.884 557.605,574.888 552.53,574.821Z" style="fill:rgb(15,82,98);"/>
    </g>
    <g transform="matrix(1.031312,0,0,1.031312,127.468364,182.468364)">
        <path d="M337.859,261.931C336.626,262.857 336.546,263.708 335.399,262.651C334.59,261.905 332.376,261.786 333.757,256.522C334.065,255.35 338.42,254.972 335.732,258.74C334.298,260.75 335.748,260.683 337.859,261.931Z" style="fill:rgb(10,44,61);"/>
    </g>
    <g transform="matrix(1.031312,0,0,1.031312,127.468364,182.468364)">
        <path d="M405.413,324.589C407.025,324.707 406.984,324.677 408.4,325.489C407.903,330.245 408.026,330.238 407.607,331.637C406.132,336.554 406.046,327.065 406.043,326.647C405.954,326.216 405.866,325.785 405.778,325.354L405.413,324.589Z" style="fill:rgb(252,170,124);"/>
    </g>
    <g transform="matrix(1.031312,0,0,1.031312,127.468364,182.468364)">
        <path d="M546.498,706.499C547.881,707.159 547.944,707.055 548.308,707.548C548.277,709.528 548.215,709.449 548.172,711.387C547.284,711.679 546.396,711.971 545.508,712.262C545.128,712.01 544.748,711.758 544.367,711.506C545.319,709.666 546.346,706.907 546.498,706.499Z" style="fill:rgb(7,130,136);"/>
    </g>
    <g transform="matrix(1.031312,0,0,1.031312,127.468364,182.468364)">
        <path d="M289.502,892.946C292.878,891.223 297.025,891.148 300.501,892.945C294.956,893.043 295.041,893.001 289.502,892.946Z" style="fill:rgb(87,181,183);"/>
    </g>
    <g transform="matrix(1.031312,0,0,1.031312,127.468364,182.468364)">
        <path d="M537.469,535.768C535.661,534.115 535.035,533.169 537.405,532.296C538.461,531.907 542.481,533.519 537.469,535.768Z" style="fill:rgb(25,103,124);"/>
    </g>
    <g transform="matrix(1.031312,0,0,1.031312,127.468364,182.468364)">
        <path d="M543.391,701.317C544.571,702.348 544.247,702.531 545.398,703.538C540.681,704.299 540.703,704.897 540.409,704.614C538.523,702.8 540.718,703.003 543.391,701.317Z" style="fill:rgb(53,66,64);"/>
    </g>
    <g transform="matrix(1.031312,0,0,1.031312,127.468364,182.468364)">
        <path d="M377.328,329.518C377.396,329.519 378.996,328.291 379.206,330.5C379.397,332.513 379.031,332.461 377.363,333.494C377.352,332.169 377.34,330.843 377.328,329.518Z" style="fill:rgb(219,171,133);"/>
    </g>
    <g transform="matrix(1.031312,0,0,1.031312,127.468364,182.468364)">
        <path d="M544.367,711.506C544.748,711.758 545.128,712.01 545.508,712.262C543.974,713.361 543.988,713.54 543.857,713.445C543.857,713.445 544.327,711.661 544.367,711.506Z" style="fill:rgb(15,93,108);"/>
    </g>
    <g transform="matrix(1.031312,0,0,1.031312,127.468364,182.468364)">
        <path d="M452.055,732.92C453.473,732.661 453.913,731.161 454.182,732.532C454.298,733.122 453.608,732.893 453.723,733.478L452.055,732.92Z" style="fill:rgb(7,99,107);"/>
    </g>
    <g transform="matrix(1.031312,0,0,1.031312,127.468364,182.468364)">
        <path d="M546.498,706.499C547.277,706.499 546.68,705.539 547.515,705.539C547.607,705.54 547.762,705.54 548.141,706.5C548.271,706.829 548.178,707.219 548.308,707.548C547.944,707.055 547.881,707.159 546.498,706.499Z" style="fill:rgb(8,99,109);"/>
    </g>
    <g transform="matrix(1.031312,0,0,1.031312,127.468364,182.468364)">
        <path d="M480.556,617.733C479.102,618.078 479.081,618.193 478.986,618.106C478.891,618.019 479.102,618.078 480.556,617.733Z" style="fill:rgb(22,68,90);"/>
    </g>
</svg>
