<?xml version="1.0" encoding="UTF-8" standalone="no"?>
<!DOCTYPE svg PUBLIC "-//W3C//DTD SVG 1.1//EN" "http://www.w3.org/Graphics/SVG/1.1/DTD/svg11.dtd">
<svg width="100%" height="100%" viewBox="0 0 1179 1334" version="1.1" xmlns="http://www.w3.org/2000/svg" xmlns:xlink="http://www.w3.org/1999/xlink" xml:space="preserve" xmlns:serif="http://www.serif.com/" style="fill-rule:evenodd;clip-rule:evenodd;stroke-linejoin:round;stroke-miterlimit:2;">
    <g transform="matrix(1.117599,0,0,1.117599,63.289355,92.289355)">
        <path d="M37.647,541.44C37.301,543.094 36.017,549.244 36.009,562.5C36.006,567.554 36.894,567.381 37.171,572.5C37.379,576.342 38.349,576.143 38.298,581.5C38.277,583.717 38.066,583.646 38.475,585.5C38.908,587.465 37.108,587.515 37.074,587.557C36.866,587.813 37.4,588.284 37.191,588.541C34.355,569.483 24.103,515.51 65.496,511.441C74.231,510.582 86.53,515.634 86.851,511.562C89.022,484.076 91.151,401.488 160.703,367.883C166.017,365.316 165.847,365.123 170.574,361.598C175.296,358.077 180.757,360.573 182.131,357.314C185.641,348.989 193.076,318.481 191.491,316.508C189.398,313.903 187.209,315.231 186.428,309.508C183.96,291.416 134.069,237.361 157.884,186.683C160.733,180.621 166.373,176.252 163.546,176.256C162.066,176.257 151.006,183.343 152.306,178.464C153.586,173.659 160.591,166.978 166.434,165.292C167.858,164.881 171.945,166.065 170.201,160.595C166.22,148.107 177.203,137.146 176.763,143.498C175.854,156.631 178.535,156.997 179.117,156.148C179.635,155.392 178.088,154.766 183.887,145.736C203.281,115.541 251.059,104.342 292.392,116.852C314.312,123.487 338.417,132.889 352.801,120.855C358.335,116.226 367.72,131.72 364.181,143.433C361.794,151.335 369.476,140.263 373.359,143.661C379.196,148.77 382.988,174.718 359.362,186.23C358.148,186.822 356.864,187.261 355.628,187.805C351.822,189.482 356.115,193.807 357.606,211.49C359.773,237.189 348.796,239.609 362.92,261.223C367.997,268.995 378.728,280.411 366.302,288.17C360.051,292.074 355.022,288.066 354.626,297.505C354.616,297.738 355.57,304.685 351.418,307.363C347.084,310.158 335.673,305.006 335.347,305.326C332.193,308.422 347.561,311.458 349.082,315.635C350.614,319.843 345.824,321.769 344.541,329.507C341.068,350.46 335.635,358.274 301.566,352.096C293.863,350.699 287.703,348.292 285.761,355.584C281.674,370.936 279.724,387.295 280.84,388.116C289.652,394.599 335.653,410.662 353.339,433.62C371.967,457.8 380.51,496.965 383.518,496.64C387.104,496.253 387.432,487.9 398.538,483.566C400.844,482.666 412.182,465.239 417.465,465.839C418.756,465.985 419.867,466.976 426.154,457.274C432.744,447.105 428.812,417.624 444.77,389.631C458.226,366.027 456.198,361.841 471.898,345.84C473.603,344.103 480.38,245.581 485.804,183.527C488.181,156.328 485.792,134.982 519.501,135.378C537.342,135.587 735.762,137.916 742.505,138.434C745.513,138.665 769.04,140.472 769.769,164.487C770.059,174.052 762.573,250.057 764.291,257.543C764.387,257.961 764.51,257.958 761.689,296.516C761.606,297.645 760.694,297.497 759.446,310.495C757.99,325.666 758.541,325.699 745.575,500.505C740.448,569.623 742.811,573.651 731.228,584.192C720.071,594.345 704.665,589.632 657.529,585.191C583.912,578.254 584.127,577.003 510.479,569.726C481.284,566.841 465.946,567.824 458.981,552.284C452.07,536.866 463.139,508.042 455.678,519.631C446.736,533.518 444.631,532.338 442.647,539.547C442.469,540.192 431.427,559.644 415.18,582.273C412.598,585.868 413.635,586.492 424.291,613.584C426.571,619.38 429.602,616.668 433.108,621.793C435.193,624.841 434.788,625.417 436.462,625.646C469.495,630.167 469.51,633.69 502.557,628.887C546.431,622.512 587.941,616.665 596.407,675.512C597.65,684.151 604.444,680.01 615.011,692.906C626.041,706.366 622.279,727.389 624.252,727.755C625.632,728.012 636.454,725.964 642.418,725.334C644.354,725.13 643.591,723.949 642.49,685.5C642.234,676.558 642.685,669.654 683.486,667.083C703.469,665.824 742.671,669.412 742.568,681.495C742.479,692.05 741.339,693.275 743.533,693.327C747.681,693.425 757.966,691.339 767.375,701.759C768.463,702.736 770.044,704.338 770.27,704.568C771.125,706.697 776.076,716.538 774.315,728.452C774.014,729.118 773.713,729.783 773.412,730.449C773.378,730.616 772.889,732.447 772.843,732.621C766.597,756.015 748.607,757.841 739.48,758.267C736.083,758.425 737.634,760.064 737.046,763.451C736.131,768.962 736.18,768.936 736.057,769.403C732.592,782.571 703.904,784.961 688.504,784.348C654.454,782.993 649.119,772.594 647.527,769.491C647.348,768.413 647.156,768.551 646.86,765.471C643.425,729.647 645.453,727.28 642.447,727.73C633.663,729.045 624.679,729.703 613.576,731.938L613.031,730.5C616.2,729.213 616.151,729.177 619.547,728.708C623.155,728.211 619.509,707.885 619.452,707.511C619.263,706.275 618.438,700.886 612.385,693.571C610.835,691.322 594.431,674.951 566.498,676.458C556.744,676.984 547.145,679.789 541.414,681.202C489.359,695.698 491.558,701.91 457.378,712.085C398.394,729.645 396.443,717.104 389.551,718.733C381.78,720.57 332.518,736.202 327.574,737.771C305.638,744.732 293.411,748.326 284.119,760.279C273.816,775.557 274.682,776.852 275.538,867.499C276.227,940.365 275.816,940.366 276.504,946.662L273.535,946.329C273.975,910.959 273.437,911.063 272.955,864.498C272.044,776.34 272.363,775.715 279.676,762.674C293.86,739.916 320.882,739.834 322.348,736.438C322.981,734.972 307.861,678.256 305.878,671.388C301.86,657.474 296.451,636.5 295.666,633.457C276.394,558.725 268.622,547.858 166.554,530.169C152.123,527.668 71.575,511.93 62.533,513.894C58.8,514.705 58.756,514.134 58.448,514.245C57.961,514.422 57.897,515.148 57.488,515.466C57.002,515.844 51.994,516.904 50.28,519.224C48.236,521.991 40.54,524.453 37.647,541.44Z" style="fill:rgb(3,31,48);"/>
    </g>
    <g transform="matrix(1.117599,0,0,1.117599,63.289355,92.289355)">
        <path d="M501.499,691.497C501.192,691.344 500.865,692.065 500.559,691.912C498.669,690.968 499.658,690.428 500.363,688.454C502.11,683.558 502.203,679.361 502.221,678.556C502.29,675.457 500.584,676.849 500.459,677.471C497.594,691.823 497.077,691.685 496.879,692.94C492.025,696.377 419.199,731.276 385.324,713.806C371.266,706.556 343.918,693.251 285.33,558.572C273.405,531.161 273.98,528.888 274.537,513.497C274.86,504.576 272.361,514.274 272.343,514.465C269.527,543.132 289.666,564.573 277.353,549.901C267.953,538.7 264.727,530.486 265.611,536.497C266.621,543.365 279.033,554.244 280.486,555.518C283.738,558.368 325.995,665.186 364.165,701.896C379.057,716.218 390.556,715.948 382.443,718.281C361.436,724.321 325.858,736.49 324.958,735.143C324.331,734.204 312.807,687.581 311.782,683.437C309.886,675.763 294.582,613.85 284.697,588.422C268.175,545.919 232.754,539.701 159.539,526.262C97.112,514.804 95.607,515.991 95.423,513.51C92.201,469.882 96.651,457.046 98.254,452.424C98.412,451.969 99.77,448.051 99.812,446.604C99.824,446.205 99.286,445.854 99.411,445.475C99.501,445.203 100.118,445.62 101.245,442.406C101.951,440.393 101.504,440.341 102.52,438.507C102.974,437.689 102.099,437.348 106.801,427.621C116.257,408.061 123.404,400.644 123.488,400.49C126.52,394.952 146.87,377.184 159.521,371.546C171.539,366.191 173.407,361.101 177.501,361.506C179.21,361.675 187.435,360.773 190.5,361.646C191.507,361.932 212.461,364.304 224.597,368.129C228.978,369.51 234.583,369.631 251.648,377.129C252.274,377.404 259.11,380.407 259.507,380.483C262.796,381.108 329.317,416.093 333.389,418.725C341.789,424.155 348.338,431.263 349.487,432.509C355.176,438.684 346.773,432.178 338.487,431.277C308.729,428.041 280.732,460.482 273.927,502.546C273.276,506.575 275.186,505.581 275.377,505.409C276.726,504.193 280.384,456.38 317.856,436.857C329.894,430.585 352.7,432.614 357.538,444.476C357.89,445.338 358.587,444.895 363.353,454.563C365.057,458.019 364.691,458.115 366.29,461.572C368.076,465.432 373.174,476.452 384.952,511.364C420.585,616.985 428.017,624.286 427.058,636.511C426.812,639.635 425.81,640.549 427.484,640.572C429.571,640.601 430.498,632.949 428.105,624.669C426.893,620.476 426.585,620.213 427.08,620.147C430.647,619.668 437.614,632.212 436.25,645.497C436.217,645.816 435.731,650.552 437.402,649.334C441.048,646.677 437.135,631.034 436.75,629.494C435.985,626.437 451.574,631.618 471.477,633.648C489.614,635.498 497.174,655.11 498.645,660.445C498.731,660.758 502.211,673.375 501.345,663.484C499.937,647.403 484.936,636.905 482.725,635.357C476.695,631.137 485.213,634.671 492.386,633.019C496.426,632.088 527.624,628.158 532.549,627.887C581.416,625.203 586.641,648.219 593.439,670.514C594.164,672.891 593.233,672.926 593.887,675.369C593.94,675.567 594.376,675.218 594.5,675.38C594.676,675.611 597.091,679.403 591.529,677.456C571.445,670.426 554.575,673.54 511.544,687.606C509.076,688.413 509.13,688.467 501.499,691.497Z" style="fill:rgb(2,71,94);"/>
    </g>
    <g transform="matrix(1.117599,0,0,1.117599,63.289355,92.289355)">
        <path d="M37.647,541.44C47.402,539.571 47.572,539.932 160.443,559.819C216.356,569.67 226.589,572.21 242.149,625.599C255.88,672.711 277.625,759.175 279.676,762.674C272.363,775.715 272.044,776.34 272.955,864.498C273.437,911.063 273.975,910.959 273.535,946.329C262.822,945.034 200.253,938.526 132.598,915.166C128.778,913.847 128.694,910.569 124.219,898.611C106.14,850.294 98.01,826.907 83.156,780.596C76.135,758.443 48.208,661.128 37.191,588.541C37.4,588.284 36.866,587.813 37.074,587.557C37.108,587.515 38.908,587.465 38.475,585.5C38.066,583.646 38.277,583.717 38.298,581.5C38.349,576.143 37.379,576.342 37.171,572.5C36.894,567.381 36.006,567.554 36.009,562.5C36.017,549.244 37.301,543.094 37.647,541.44Z" style="fill:rgb(1,105,116);"/>
    </g>
    <g transform="matrix(1.117599,0,0,1.117599,63.289355,92.289355)">
        <path d="M506.81,303.449C506.67,302.792 504.899,294.51 499.795,298.831C494.879,302.993 500.274,321.269 499.351,322.408C498.507,323.45 497.795,322.402 497.106,323.568C496.937,323.854 497.535,324.244 497.366,324.529C497.069,323.522 496.773,322.514 496.477,321.506C498.707,317.461 497.867,317.22 496.041,312.966C495.536,311.791 487.217,306.025 488.889,321.458C490.957,340.551 491.917,340.349 493.469,359.502C495.195,380.794 501.902,381.369 498.228,384.225C494.382,387.215 495.599,392.035 495.394,396.495C495.223,400.236 493.229,399.23 491.706,402.587C491.292,403.5 487.202,445.299 486.346,460.495C486.191,463.259 485.507,464.447 488.254,464.341C488.389,464.373 488.306,464.752 492.551,465.149C495.346,465.41 524.211,468.111 527.514,468.149C530.301,468.182 532.757,459.466 533.353,454.5C533.985,449.231 535.695,449.733 535.831,449.487C535.913,450.204 536.85,458.377 536.859,458.445C537.489,463.082 537.322,466.091 537.416,467.519C537.506,468.871 538.017,468.403 539.391,468.425C550.154,471.669 550.361,469.976 561.555,471.036C569.074,471.748 588.153,473.067 593.458,473.788C593.974,473.858 594.517,475.05 597.53,472.484C607.418,485.64 593.823,461.154 583.689,435.424C582.896,434.44 582.103,433.457 581.31,432.473C582.449,410.465 590.196,402.927 572.942,390.057C574.027,383.546 587.349,378.376 582.306,374.769C581.287,374.041 577.702,371.985 575.517,370.49C575.484,370.09 574.868,369.898 574.836,369.498C574.553,366.056 587.228,337.06 599.54,330.354C597.721,340.236 594.774,339.89 594.114,377.496C594.385,402.228 594.849,406.164 597.005,425.562L597.075,426.546C597.627,430.372 599.214,447.841 602.792,469.444C603.345,472.778 602.871,473.687 605.464,474.813C606.853,474.827 608.242,474.841 609.631,474.855C610.109,474.33 610.547,474.558 614.504,464.502C616.728,459.047 616.669,459.117 618.786,453.6C645.35,387.673 665.359,342.718 663.356,327.485C662.767,323.008 665.837,327.877 665.95,328.057C675.12,342.601 676.88,348.384 676.143,374.51C675.107,380.423 668.087,379.356 661.616,382.787C656.662,385.413 670.946,397.597 669.125,401.389C667.085,405.639 637.147,446.546 627.913,457.817C614.748,473.883 613.938,474.734 615.44,475.61C615.44,475.61 617.01,475.174 617.147,475.137C622.724,476.668 629.835,476.922 649.509,478.378C672.545,480.082 672.435,480.62 695.515,482.277C698.132,482.465 698.069,481.406 702.279,464.448C705.925,449.766 705.071,449.403 706.02,448.5C706.52,448.025 707.358,448.025 707.858,447.55C706.364,479.951 703.413,485.453 708.051,482.428C714.163,485.784 721.281,483.525 729.822,485.538C729.598,488.861 724.241,562.781 723.742,564.565C719.26,580.582 709.057,577.066 675.475,573.736C659.709,572.172 481.975,554.549 478.451,553.697C463.699,550.127 468.938,534.303 470.916,501.533C473.261,462.672 478.226,408.618 478.968,400.547C480.561,383.2 480.221,383.187 496.695,183.514C498.891,156.897 496.624,148.672 519.496,148.827C520.352,148.833 739.249,152.208 740.518,152.329C756.262,153.833 751.867,175.826 751.181,187.482C750.191,204.308 738.174,362.661 737.676,382.545C737.355,382.047 736.229,382.867 735.909,382.369C733.45,378.548 738.302,367.681 714.3,354.85C702.732,348.667 679.062,337.615 677.705,335.371C670.434,323.34 669.435,324.079 660.725,319.137C656.851,316.938 662.35,283.722 665.48,283.421C665.49,283.42 674.383,285.36 680.484,271.494C685.493,260.107 681.091,253.938 680.218,252.714C677.224,248.519 681.306,245.57 684.113,229.426C689.596,197.891 669.103,195.919 667.928,193.329C666.166,189.448 665.274,182.56 648.327,175.953C636.382,171.295 608.068,171.636 596.933,184.851C593.454,188.981 584.279,185.946 579.712,197.578C577.823,202.39 579.809,207.433 579.438,208.484C571.868,229.933 578.713,230.329 579.353,243.512C579.466,245.831 576.36,245.67 575.422,249.478C572.672,260.633 576.775,270.558 579.746,273.225C585.773,278.634 576.619,287.854 593.464,312.529C599.321,321.11 607.297,322.598 599.67,325.874C588.421,330.705 590.738,334.623 579.248,339.054C563.751,345.029 563.592,344.469 548.449,351.382C541.023,354.771 560.884,321.634 547.524,323.653C536.869,325.263 536.223,351.644 534.617,336.48C531.796,309.831 533.261,290.092 524.672,294.867C520.9,296.965 521.521,302.444 521.617,317.562C521.437,317.288 520.363,317.516 520.318,315.594C520.31,315.263 520.098,315.369 519.879,311.48C519.798,310.051 519.803,285.618 510.378,291.319C505.234,294.429 510.608,307.069 507.944,311.5C507.36,312.472 507.597,312.5 507.242,313.524L506.173,308.556C506.326,308.267 505.875,307.875 506.027,307.586C506.116,307.418 506.124,307.44 507.335,305.61C507.16,304.89 506.985,304.169 506.81,303.449Z" style="fill:rgb(225,240,246);"/>
    </g>
    <g transform="matrix(1.117599,0,0,1.117599,63.289355,92.289355)">
        <path d="M612.385,693.571C618.438,700.886 619.263,706.275 619.452,707.511C619.509,707.885 623.155,728.211 619.547,728.708C616.151,729.177 616.2,729.213 613.031,730.5C589.319,735.125 589.675,736.598 587.588,736.801C581.735,737.369 554.003,750.3 551.762,755.732C551.627,756.057 552.059,756.513 551.835,756.785C551.63,757.034 551.141,756.648 550.868,756.819C550.722,756.911 550.899,757.008 549.621,758.588C547.004,761.822 546.812,770.454 546.789,771.512C546.79,773.18 546.792,774.847 546.794,776.514C546.8,777.791 546.873,792.466 546.875,792.472C547.117,793.558 547.85,793.279 547.674,794.456C547.431,796.081 549.3,799.885 549.757,800.348C554.249,804.9 552.6,806.886 565.707,814.151C568.729,815.826 570.262,816.966 570.635,817.243C570.779,817.35 571.642,817.991 572.622,818.259C572.971,818.355 573.372,817.927 573.694,818.092C574.138,818.32 574.171,819.036 574.607,819.278C574.914,819.449 575.336,819.036 575.655,819.183C576.085,819.381 576.206,820.012 576.635,820.213C576.949,820.36 577.355,819.986 577.672,820.128C577.932,820.243 577.758,820.515 580.687,822.004C581.741,822.54 583.033,821.395 583.039,823.547C583.058,831.616 582.144,831.504 569.067,923.437C568.27,929.039 568.135,929.01 568.099,929.5C568.045,930.226 568.578,930.045 568.521,930.82C453.45,957.016 371.839,952.521 342.504,951.6C344.314,946.376 343.525,946.207 343.314,882.502C343.019,793.387 344.859,792.881 339.263,779.697C342.46,779.542 358.205,773.74 403.623,758.882C406.43,757.964 585.023,698.714 604.512,694.575C608.466,693.735 608.764,695.481 612.385,693.571Z" style="fill:rgb(1,107,118);"/>
    </g>
    <g transform="matrix(1.117599,0,0,1.117599,63.289355,92.289355)">
        <path d="M521.617,317.562C521.521,302.444 520.9,296.965 524.672,294.867C533.261,290.092 531.796,309.831 534.617,336.48C536.223,351.644 536.869,325.263 547.524,323.653C560.884,321.634 541.023,354.771 548.449,351.382C563.592,344.469 563.751,345.029 579.248,339.054C590.738,334.623 588.421,330.705 599.67,325.874C607.297,322.598 599.321,321.11 593.464,312.529C576.619,287.854 585.773,278.634 579.746,273.225C576.775,270.558 572.672,260.633 575.422,249.478C576.36,245.67 579.466,245.831 579.353,243.512C578.713,230.329 571.868,229.933 579.438,208.484C579.809,207.433 577.823,202.39 579.712,197.578C584.279,185.946 593.454,188.981 596.933,184.851C608.068,171.636 636.382,171.295 648.327,175.953C665.274,182.56 666.166,189.448 667.928,193.329C669.103,195.919 689.596,197.891 684.113,229.426C681.306,245.57 677.224,248.519 680.218,252.714C681.091,253.938 685.493,260.107 680.484,271.494C674.383,285.36 665.49,283.42 665.48,283.421C662.35,283.722 656.851,316.938 660.725,319.137C669.435,324.079 670.434,323.34 677.705,335.371C679.062,337.615 702.732,348.667 714.3,354.85C738.302,367.681 733.45,378.548 735.909,382.369C736.229,382.867 737.355,382.047 737.676,382.545C737.41,385.071 737.303,385.122 735.173,386.56C732.928,378.987 733.015,379.057 730.162,371.663C724.899,363.547 724.814,363.458 716.354,358.745C713.609,357.216 690.85,344.537 681.475,340.693C679.972,340.077 679.906,340.971 680.366,342.524C687.04,365.012 686.091,386.398 682.294,421.47C681.572,428.135 688.039,425.899 690.578,434.474C697.281,457.118 663.264,467.481 660.064,441.547C660.174,440.19 660.283,438.833 660.393,437.476C663.769,427.608 665.496,427.034 673.334,424.168C673.437,424.13 675.329,424.458 677.237,396.482C677.719,388.507 678.111,380.892 678.181,379.536C677.811,376.73 678.154,376.562 676.143,374.51C676.88,348.384 675.12,342.601 665.95,328.057C665.837,327.877 662.767,323.008 663.356,327.485C665.359,342.718 645.35,387.673 618.786,453.6L617.5,452.518C617.696,448.725 619.493,447.308 619.619,445.543C619.754,443.661 620.818,442.036 620.994,441.767C622.042,440.167 622.685,440.452 622.552,438.522C622.545,438.421 624.368,433.907 624.53,433.508C626.097,429.627 626.203,429.685 626.247,425.448C624.43,401.195 624.458,379.295 622.585,378.381C622.425,378.303 615.676,376.562 614.653,378.619C610.104,387.769 603.122,422.586 602.345,426.461C600.925,433.541 600.084,433.465 601.149,440.513C602.004,446.164 601.026,446.939 601.206,447.561C601.338,448.015 602.07,448.117 602.203,448.571C602.657,450.116 601.325,450.296 605.142,468.491C605.246,468.987 605.466,470.036 605.464,474.813C602.871,473.687 603.345,472.778 602.792,469.444C599.214,447.841 597.627,430.372 597.075,426.546C598.894,427.992 599.863,428.652 600.281,426.421C608.96,380.105 613.857,380.752 612.437,375.517C610.161,367.121 610.296,364.183 608.553,366.551C605.582,370.591 602.48,378.101 598.845,370.29C597.188,366.728 597.3,365.94 596.566,366.56C596.415,366.687 596.465,381.985 596.459,383.5C595.057,379.151 595.318,379.073 594.114,377.496C594.774,339.89 597.721,340.236 599.54,330.354C587.228,337.06 574.553,366.056 574.836,369.498C574.868,369.898 575.484,370.09 575.517,370.49C574.24,371.628 574.047,371.435 573.644,372.625C572.212,376.796 571.907,381.306 571.117,386.649C570.944,390.155 570.654,390.326 571.188,390.5C571.761,390.687 572.369,389.869 572.942,390.057C590.196,402.927 582.449,410.465 581.31,432.473C580.37,434.319 580.377,434.281 580.053,436.368C577.531,452.62 575.275,452.113 575.57,453.499C575.852,454.824 577.276,453.55 578.456,454.549C579.022,455.028 581.956,458.453 571.547,460.741C565.127,462.152 563.326,453.015 568.383,455.733C570.681,456.968 575.796,457.086 577.708,424.484C576.962,416.003 581.134,402.558 572.643,397.012C571.133,396.509 571.198,396.46 569.598,396.236C566.731,395.98 566.75,395.95 566.501,395.959C550.181,396.594 551.894,442.833 552.915,450.431C553.765,456.751 558.379,454.745 558.436,454.753C564.825,455.671 552.395,464.154 545.973,456.13C543.366,452.874 547.506,449.209 549.183,453.657C550.601,457.417 553.099,457.236 552.365,455.535C545.563,439.766 549.893,429.461 548.86,422.445C548.591,420.613 547.173,410.987 552.739,399.619C557.545,389.801 564.478,394.6 565.25,386.477C569.331,343.488 588.026,340.574 580.384,340.977C579.203,341.039 554.893,351.005 552.689,351.909C544.466,355.28 545.824,356.946 543.213,364.41C538.511,377.849 528.578,381.256 531.903,384.138C533.832,385.811 533.65,385.944 533.873,388.515C533.792,393.184 533.618,399.664 533.933,400.133C537.952,406.127 535.374,406.824 537.093,436.539C537.407,440.18 537.059,440.133 539.082,454.524C539.568,461.504 539.681,461.448 539.391,468.425C538.017,468.403 537.506,468.871 537.416,467.519C537.322,466.091 537.489,463.082 536.859,458.445C536.85,458.377 535.913,450.204 535.831,449.487C532.773,409.011 533.931,408.96 533.64,405.445C533.437,403.002 532.417,404.98 530.379,406.299C521.487,412.057 509.193,412.313 501.559,409.337C492.254,405.709 495.939,401.807 495.492,401.607C493.184,400.578 493.072,411.916 493.019,412.46C488.407,460.21 489.092,460.258 488.254,464.341C485.507,464.447 486.191,463.259 486.346,460.495C487.202,445.299 491.292,403.5 491.706,402.587C493.229,399.23 495.223,400.236 495.394,396.495C495.599,392.035 494.382,387.215 498.228,384.225C501.902,381.369 495.195,380.794 493.469,359.502C491.917,340.349 490.957,340.551 488.889,321.458C487.217,306.025 495.536,311.791 496.041,312.966C497.867,317.22 498.707,317.461 496.477,321.506C496.254,320.797 493.816,313.03 492.459,313.132C488.097,313.46 492.969,321.866 495.408,354.508C497.309,379.946 502.345,378.87 502.244,382.585C502.191,384.526 497.987,391.879 513.51,391.693C519.637,391.62 527.594,389.398 528.221,387.384C528.961,385.005 527.743,381.708 529.719,379.725C544.293,365.094 540.064,362.568 550.217,329.422C551.521,325.165 546.703,324.751 543.865,328.752C537.443,337.808 540.11,344.648 533.489,347.556C533.572,346.883 533.656,346.21 533.739,345.538C533.742,345.297 534.128,344.836 533.762,343.442C529.327,326.546 531.624,299.462 527.208,296.895C520.879,293.216 524.964,332.254 522.626,332.801C520.104,333.391 520.029,325.231 519.733,322.475C520.475,320.873 521.194,321.158 521.617,317.562Z" style="fill:rgb(11,33,48);"/>
    </g>
    <g transform="matrix(1.117599,0,0,1.117599,63.289355,92.289355)">
        <path d="M331.505,192.023C332.713,191.991 342.298,191.741 346.553,190.747C348.155,190.373 350.812,188.206 352.009,192.632C358.673,217.275 352.7,236.546 353.056,244.554C353.907,263.709 388.673,282.902 355.504,288.524C352.817,288.98 352.179,300.385 352.119,301.453C351.88,305.722 348.012,305.748 347.508,305.752C338.613,305.812 330.386,298.017 331.572,303.481C334.171,315.464 351.574,312.332 345.595,320.576C338.054,330.975 345.833,348.75 323.5,351.496C302.52,354.076 283.482,339.396 280.52,337.674C278.968,335.06 274.022,329.781 273.702,333.562C273.104,340.648 275.302,350.998 275.619,352.487C278.341,365.308 280.82,364.286 280.98,364.564C277.585,384.037 278.298,384.151 277.725,385.769C276.713,388.63 245.797,364.644 189.501,359.486C185.972,359.162 183.994,359.761 185.123,356.392C192.359,334.789 193.271,324.359 194.339,318.417C195.059,314.409 202.736,324.599 220.45,318.348C229.763,315.062 230.185,309.683 233.531,310.371C233.679,310.401 234.828,310.638 235.416,310.309C245.19,304.837 253.439,288.7 254.551,286.526C266.035,299.036 270.26,292.489 273.441,287.344C273.7,287.226 276.249,286.068 276.478,285.49C277.951,281.764 272.642,286.788 267.623,284.246C245.898,273.245 247.818,228.972 269.497,230.595C284.973,231.753 284.217,251.959 288.497,252.514C302.817,254.369 299.345,247.273 303.313,233.439C306.493,222.354 321.523,218.568 316.312,193.557C317.911,194.06 319.302,195.414 324.541,194.894C331.46,194.207 331.331,192.124 331.505,192.023Z" style="fill:rgb(247,169,122);"/>
    </g>
    <g transform="matrix(1.117599,0,0,1.117599,63.289355,92.289355)">
        <path d="M37.647,541.44C40.54,524.453 48.236,521.991 50.28,519.224C51.994,516.904 57.002,515.844 57.488,515.466C57.897,515.148 57.961,514.422 58.448,514.245C58.756,514.134 58.8,514.705 62.533,513.894C71.575,511.93 152.123,527.668 166.554,530.169C268.622,547.858 276.394,558.725 295.666,633.457C296.451,636.5 301.86,657.474 305.878,671.388C307.861,678.256 322.981,734.972 322.348,736.438C320.882,739.834 293.86,739.916 279.676,762.674C277.625,759.175 255.88,672.711 242.149,625.599C226.589,572.21 216.356,569.67 160.443,559.819C47.572,539.932 47.402,539.571 37.647,541.44Z" style="fill:rgb(13,142,146);"/>
    </g>
    <g transform="matrix(1.117599,0,0,1.117599,63.289355,92.289355)">
        <path d="M773.412,730.449C773.65,730.923 774.5,730.856 774.738,731.331C775.109,732.07 774.235,732.23 776.372,741.531C772.635,743.741 771.116,743.231 771.659,747.492C773.135,759.057 844.077,761.472 845.784,745.561C845.822,745.208 845.849,744.957 845.651,741.121C848.52,742.552 876.917,756.717 866.354,775.429C862.219,781.084 860.217,787.539 836.728,797.977C755.126,834.238 579.866,815.727 551.711,776.355C538.741,758.167 568.939,740.639 613.576,731.938C624.679,729.703 633.663,729.045 642.447,727.73C645.453,727.28 643.425,729.647 646.86,765.471C647.156,768.551 647.348,768.413 647.527,769.491C645.849,768.766 645.671,768.166 644.368,769.372C644.085,769.634 642.112,771.46 641.937,773.541C640.404,791.813 726.409,793.873 756.264,781.029C766.06,776.815 760.913,767.32 739.4,764.867C737.463,764.646 737.281,763.593 737.046,763.451C737.634,760.064 736.083,758.425 739.48,758.267C748.607,757.841 766.597,756.015 772.843,732.621C772.889,732.447 773.378,730.616 773.412,730.449Z" style="fill:rgb(232,206,182);"/>
    </g>
    <g transform="matrix(1.117599,0,0,1.117599,63.289355,92.289355)">
        <path d="M296.503,759.949C297.225,760.531 294.015,761.519 294.738,762.101C296.107,763.205 296.734,760.369 316.43,765.71C344.523,773.326 340.939,789.647 340.918,841.499C340.874,949.685 340.809,949.708 341.494,951.551C332.346,951.095 313.173,950.693 276.504,946.662C275.816,940.366 276.227,940.365 275.538,867.499C274.682,776.852 273.816,775.557 284.119,760.279C284.747,760.354 284.87,761.505 285.498,761.58C286.382,761.686 286.24,760.521 296.503,759.949Z" style="fill:rgb(1,103,115);"/>
    </g>
    <g transform="matrix(1.117599,0,0,1.117599,63.289355,92.289355)">
        <path d="M541.414,681.202C547.145,679.789 556.744,676.984 566.498,676.458C594.431,674.951 610.835,691.322 612.385,693.571C608.764,695.481 608.466,693.735 604.512,694.575C585.023,698.714 406.43,757.964 403.623,758.882C358.205,773.74 342.46,779.542 339.263,779.697C337.119,775.81 331.343,762.559 296.503,759.949C286.24,760.521 286.382,761.686 285.498,761.58C284.87,761.505 284.747,760.354 284.119,760.279C293.411,748.326 305.638,744.732 327.574,737.771C332.518,736.202 381.78,720.57 389.551,718.733C396.443,717.104 398.394,729.645 457.378,712.085C491.558,701.91 489.359,695.698 541.414,681.202Z" style="fill:rgb(12,138,144);"/>
    </g>
    <g transform="matrix(1.117599,0,0,1.117599,63.289355,92.289355)">
        <path d="M730.162,371.663C733.015,379.057 732.928,378.987 735.173,386.56C737.627,396.757 735.601,396.905 731.04,471.474C730.971,472.602 730.848,474.612 729.822,485.538C721.281,483.525 714.163,485.784 708.051,482.428C708.3,478.919 708.328,479.007 708.543,475.502C711.569,426.226 714.635,423.357 714.147,421.6C713.137,417.961 710.03,425.13 707.858,447.55C707.358,448.025 706.52,448.025 706.02,448.5C705.071,449.403 705.925,449.766 702.279,464.448C698.069,481.406 698.132,482.465 695.515,482.277C672.435,480.62 672.545,480.082 649.509,478.378C629.835,476.922 622.724,476.668 617.147,475.137C625.126,464.822 635.993,453.325 667.36,408.414C672.173,401.523 673.193,400.496 668.309,393.619C662.577,385.548 662.973,385.128 663.537,384.531C664.299,383.724 664.484,384.244 676.517,379.631C677.32,379.323 677.275,379.588 678.181,379.536C678.111,380.892 677.719,388.507 677.237,396.482C675.329,424.458 673.437,424.13 673.334,424.168C665.496,427.034 663.769,427.608 660.393,437.476C657.678,438.994 657.615,438.641 654.505,438.62C652.077,438.605 652.256,440.68 654.608,441.029C657.345,441.436 657.304,440.997 660.064,441.547C663.264,467.481 697.281,457.118 690.578,434.474C688.039,425.899 681.572,428.135 682.294,421.47C686.091,386.398 687.04,365.012 680.366,342.524C679.906,340.971 679.972,340.077 681.475,340.693C690.85,344.537 713.609,357.216 716.354,358.745C724.814,363.458 724.899,363.547 730.162,371.663Z" style="fill:rgb(253,252,253);"/>
    </g>
    <g transform="matrix(1.117599,0,0,1.117599,63.289355,92.289355)">
        <path d="M644.807,682.451C647.504,684.437 657.006,691.434 685.509,692.285C728.297,693.561 736.354,684.742 740.049,683.398L740.125,684.464C740.041,685.473 739.956,686.483 739.871,687.492C740.02,706.733 736.85,734.198 737.482,737.499C737.696,738.619 737.125,738.437 736.878,739.513C736.58,740.815 736.697,742.179 736.643,743.515C736.414,749.218 735.063,758.31 735.299,760.49C735.421,761.624 735.036,761.476 734.797,762.512C734.779,762.593 734.375,767.421 734.382,767.476C734.593,769.113 734.129,768.937 733.362,770.418C731.576,773.87 727.343,776.289 726.46,776.417C722.838,776.943 722.874,780.142 702.525,781.753C701.18,781.958 699.835,782.164 698.491,782.37C694.831,782.364 691.171,782.359 687.511,782.353C686.5,782.161 685.489,781.969 684.478,781.777C676.35,781.128 676.446,780.964 668.518,779.447C661.861,778.173 662.134,777.438 661.559,777.351C658.412,776.872 654.144,773.822 653.564,773.407C649.371,770.41 648.938,767.704 648.197,753.522C648.015,752.511 647.833,751.499 647.651,750.488C647.101,736.652 646.675,736.692 646.643,735.49C646.139,716.591 645.325,716.714 645.341,716.504C645.622,712.791 645.563,712.83 645.135,694.485C644.989,693.155 644.844,691.824 644.698,690.494C644.735,687.813 644.771,685.132 644.807,682.451Z" style="fill:rgb(2,98,111);"/>
    </g>
    <g transform="matrix(1.117599,0,0,1.117599,63.289355,92.289355)">
        <path d="M613.576,731.938C568.939,740.639 538.741,758.167 551.711,776.355C551.404,776.89 550.566,776.966 550.258,777.5C549.902,778.118 557.451,790.047 586.557,800.345C685.097,835.21 842.472,820.176 866.818,778.763C867.349,777.859 867.539,778.224 868.445,777.548C868.302,794.267 870.213,798.156 859.513,808.513C857.632,810.333 850.68,817.062 831.302,825.092C829.324,825.773 817.938,830.148 804.62,832.914C804.457,832.911 804.457,832.923 781.558,836.818C759.011,840.652 746.036,840.338 734.477,841.844C728.519,842.094 728.582,842.49 706.507,842.172C666.9,838.735 666.804,840.023 627.535,833.348C626.9,833.24 626.905,833.279 619.574,832.17C604.732,828.423 598.539,826.504 585.707,822.054C545.669,805.572 548.8,797.225 548.59,776.52C548.571,774.608 547.716,775.112 547.331,774.492C547.413,773.961 547.195,774.023 547.277,773.492C547.436,772.458 547.058,772.606 546.789,771.512C546.812,770.454 547.004,761.822 549.621,758.588C550.899,757.008 550.722,756.911 550.868,756.819C551.141,756.648 551.63,757.034 551.835,756.785C552.059,756.513 551.627,756.057 551.762,755.732C554.003,750.3 581.735,737.369 587.588,736.801C589.675,736.598 589.319,735.125 613.031,730.5L613.576,731.938Z" style="fill:rgb(192,155,126);"/>
    </g>
    <g transform="matrix(1.117599,0,0,1.117599,63.289355,92.289355)">
        <path d="M845.409,676.091C845.648,677.125 846.624,676.89 846.183,679.433C846.178,679.463 845.67,681.259 845.365,683.516C842.457,705.079 841.94,704.93 838.231,726.438C838.009,727.723 835.659,741.355 835.561,742.526C835.081,748.27 807.527,752.511 787.573,747.22C777.887,744.652 778.03,742.496 778.089,741.617C778.271,738.87 776.625,734.149 776.407,733.525C775.458,730.803 776.342,730.754 776.209,730.556C775.682,729.773 774.842,729.235 774.315,728.452C776.076,716.538 771.125,706.697 770.27,704.568C771.605,692.766 765.163,673.955 768.407,674.678C771.959,675.47 801.309,687.513 845.409,676.091Z" style="fill:rgb(52,159,156);"/>
    </g>
    <g transform="matrix(1.117599,0,0,1.117599,63.289355,92.289355)">
        <path d="M412.585,581.272C407.299,569.896 383.744,502.117 384.462,499.483C384.724,498.523 393.75,489.46 394.588,488.618C398.88,484.31 402.044,488.939 405.527,491.43C405.93,491.718 417.822,500.221 411.344,493.563C408.789,490.937 400.904,486.086 401.667,484.565C402.352,483.2 403.081,481.748 414.153,470.137C418.428,465.653 424.873,472.256 437.703,485.334C440.882,488.575 445.997,495.445 446.677,496.357C451.212,502.448 455.163,511.639 455.382,512.55C456.613,517.665 453.76,517.156 450.622,522.564C448.926,525.487 443.2,533.117 442.445,533.338C441.38,533.65 432.641,516.86 433.5,523.5C433.904,526.615 442.923,533.601 439.33,540.439C438.706,541.626 421.508,569.862 412.585,581.272Z" style="fill:rgb(2,69,91);"/>
    </g>
    <g transform="matrix(1.117599,0,0,1.117599,63.289355,92.289355)">
        <path d="M606.605,265.658C606.954,265.667 607.155,265.11 607.505,265.12C609.4,265.172 598.046,281.663 612.5,282.502C617.964,282.82 617.263,280.25 616.341,279.924C616.129,279.849 610.365,281.014 607.884,278.169C604.591,274.391 610.997,272.712 612.069,254.469C612.303,250.487 620.121,250.499 620.6,254.483C620.78,255.982 620.03,273.885 640.488,271.419C652.804,269.935 650.781,254.005 654.511,253.669C666.095,252.627 660.222,260.821 662.746,262.077C665.349,263.371 670.536,245.121 678.562,254.448C684.24,261.047 676.192,282.623 665.661,281.031C663.847,280.757 660.809,280.298 657.636,302.515C656,301.329 655.36,300.824 654.546,301.552C654.42,301.664 654.605,301.667 653.274,303.233C647.958,309.321 647.887,309.241 647.426,309.77C642.912,311.22 634.101,323.236 616.504,323.632C598.447,324.038 581.665,299.157 584.333,266.435C584.617,262.952 588.296,271.453 600.453,269.234C603.724,268.636 606.209,266.067 606.605,265.658Z" style="fill:rgb(248,179,129);"/>
    </g>
    <g transform="matrix(1.117599,0,0,1.117599,63.289355,92.289355)">
        <path d="M533.873,388.515C533.65,385.944 533.832,385.811 531.903,384.138C528.578,381.256 538.511,377.849 543.213,364.41C545.824,356.946 544.466,355.28 552.689,351.909C554.893,351.005 579.203,341.039 580.384,340.977C588.026,340.574 569.331,343.488 565.25,386.477C564.478,394.6 557.545,389.801 552.739,399.619C547.173,410.987 548.591,420.613 548.86,422.445C549.893,429.461 545.563,439.766 552.365,455.535C553.099,457.236 550.601,457.417 549.183,453.657C547.506,449.209 543.366,452.874 545.973,456.13C552.395,464.154 564.825,455.671 558.436,454.753C558.379,454.745 553.765,456.751 552.915,450.431C551.894,442.833 550.181,396.594 566.501,395.959C566.75,395.95 566.731,395.98 569.598,396.236C569.661,401.946 570.332,403.948 574.35,417.542C574.5,418.019 576.22,423.5 576.22,423.5C576.498,424.026 577.43,423.958 577.708,424.484C575.796,457.086 570.681,456.968 568.383,455.733C563.326,453.015 565.127,462.152 571.547,460.741C581.956,458.453 579.022,455.028 578.456,454.549C577.276,453.55 575.852,454.824 575.57,453.499C575.275,452.113 577.531,452.62 580.053,436.368C580.377,434.281 580.37,434.319 581.31,432.473C582.103,433.457 582.896,434.44 583.689,435.424C583.515,436.106 582.232,436.084 582.058,436.767C581.709,438.132 589.649,457.706 597.53,472.484C594.517,475.05 593.974,473.858 593.458,473.788C588.153,473.067 569.074,471.748 561.555,471.036C550.361,469.976 550.154,471.669 539.391,468.425C539.681,461.448 539.568,461.504 539.082,454.524C539.234,453.997 540.216,454.027 540.369,453.5C540.448,453.226 540.711,440.631 540.735,439.511C541.74,391.453 544.054,391.337 542.615,387.424C538.715,376.817 539.276,433.634 538.315,434.5C537.906,434.869 537.321,435.075 537.038,435.547C536.867,435.831 537.263,436.255 537.093,436.539C535.374,406.824 537.952,406.127 533.933,400.133C533.618,399.664 533.792,393.184 533.873,388.515Z" style="fill:rgb(251,251,252);"/>
    </g>
    <g transform="matrix(1.117599,0,0,1.117599,63.289355,92.289355)">
        <path d="M466.27,369.413C468.421,364.543 467.265,363.378 470.498,362.493C476.239,360.92 481.186,373.784 473.261,388.369C464.569,404.365 462.834,404.634 465.241,410.574C466.24,413.04 472.186,438.826 461.306,458.406C457.712,463.551 454.628,464.442 456.539,466.385C454.735,471.482 460.797,474.596 458.963,483.5C457.685,489.707 458.577,490.159 454.5,495.063C453.155,496.68 454.055,497.197 453.895,497.5C453.771,497.734 453.706,497.656 451.343,499.603C438.628,479.619 422.246,469.129 422.357,467.511C422.493,465.533 429.765,459.129 431.159,451.433C437.414,416.89 435.889,416.488 442.177,400.257C443.834,400.963 443.839,401.178 445.535,400.543C459.67,382.718 464.437,373.182 465.728,370.598C471.8,377.436 473.439,362.418 470.512,365.506C469.367,366.714 471.303,371.555 466.27,369.413Z" style="fill:rgb(247,172,123);"/>
    </g>
    <g transform="matrix(1.117599,0,0,1.117599,63.289355,92.289355)">
        <path d="M506.173,308.556L507.242,313.524C509.941,331.283 511.211,339.705 512.757,334.664C513.362,332.69 506.09,285.542 514.419,293.579C516.826,295.901 516.362,303.968 519.733,322.475C520.029,325.231 520.104,333.391 522.626,332.801C524.964,332.254 520.879,293.216 527.208,296.895C531.624,299.462 529.327,326.546 533.762,343.442C534.128,344.836 533.742,345.297 533.739,345.538C521.851,349.089 518.684,358.412 518.232,359.343C518.028,359.219 518.016,360.048 517.811,359.924C517.408,359.679 513.648,352.659 510.494,350.508C504.797,346.621 509.358,352.393 509.499,352.501C511.974,354.394 515.756,362.547 516.189,363.48C516.469,369.493 516.172,369.652 516.83,370.12C521.214,373.246 513.124,357.94 533.489,347.556C540.11,344.648 537.443,337.808 543.865,328.752C546.703,324.751 551.521,325.165 550.217,329.422C540.064,362.568 544.293,365.094 529.719,379.725C527.743,381.708 528.961,385.005 528.221,387.384C527.594,389.398 519.637,391.62 513.51,391.693C497.987,391.879 502.191,384.526 502.244,382.585C502.345,378.87 497.309,379.946 495.408,354.508C492.969,321.866 488.097,313.46 492.459,313.132C493.816,313.03 496.254,320.797 496.477,321.506C496.773,322.514 497.069,323.522 497.366,324.529C500.735,336.744 501.343,342.371 503.152,339.201C503.369,338.822 496.101,289.098 504.212,301.656C504.625,302.295 504.513,302.284 506.173,308.556Z" style="fill:rgb(248,177,127);"/>
    </g>
    <g transform="matrix(1.117599,0,0,1.117599,63.289355,92.289355)">
        <path d="M535.831,449.487C535.695,449.733 533.985,449.231 533.353,454.5C532.757,459.466 530.301,468.182 527.514,468.149C524.211,468.111 495.346,465.41 492.551,465.149C488.306,464.752 488.389,464.373 488.254,464.341C489.092,460.258 488.407,460.21 493.019,412.46C493.072,411.916 493.184,400.578 495.492,401.607C495.939,401.807 492.254,405.709 501.559,409.337C509.193,412.313 521.487,412.057 530.379,406.299C532.417,404.98 533.437,403.002 533.64,405.445C533.931,408.96 532.773,409.011 535.831,449.487Z" style="fill:rgb(253,253,253);"/>
    </g>
    <g transform="matrix(1.117599,0,0,1.117599,63.289355,92.289355)">
        <path d="M585.707,822.054C598.539,826.504 604.732,828.423 619.574,832.17L618.598,833.055C615.488,833.086 615.173,831.663 612.774,833.603C612.283,833.354 612.015,832.773 611.524,832.524C610.085,831.796 610.948,834.331 598.841,888.582C596.386,899.581 596.562,899.503 594.161,910.416C593.596,912.984 590.297,923.492 592.627,925C592.906,925.181 593.305,924.536 593.585,924.717C582.058,927.86 582.085,927.668 570.447,930.337C570.157,925.987 577.526,879.837 578.225,875.458C580.555,860.871 579.228,860.741 579.587,859.512C579.718,859.061 580.427,858.96 580.582,858.517C581.046,857.19 583.355,834.449 585.707,822.054Z" style="fill:rgb(58,67,72);"/>
    </g>
    <g transform="matrix(1.117599,0,0,1.117599,63.289355,92.289355)">
        <path d="M754.139,145.895C754.807,145.846 754.869,144.502 755.537,144.453C755.695,144.441 761.577,148.44 763.533,152.483C769.66,165.153 766.372,165.862 764.389,206.493C764.349,207.306 761.364,248.566 761.26,251.505C761.167,254.157 760.862,254.171 758.417,255.375C756.168,256.482 756.808,257.266 754.987,286.518C754.517,294.075 753.683,298.293 756.571,300.417C758.059,301.512 757.206,301.895 756.869,323.5C756.862,323.928 755.294,325.409 755.268,337.484C755.241,350.081 753.229,349.891 753.431,362.496C753.493,366.388 753.012,366.264 751.97,379.539L751.759,382.514C749.419,416.971 749.396,416.858 749.292,419.482C749.137,420.499 748.983,421.515 748.829,422.532C744.032,492.627 743.066,492.468 738.588,562.512C738.206,568.485 737.191,568.324 737.254,570.47C737.266,570.886 737.965,571.199 737.813,571.587C737.682,571.922 737.218,571.59 735.223,575.261C731.158,582.743 722.035,587.158 721.563,586.904C721.022,586.613 720.987,585.729 720.446,585.438C721.625,584.796 728.594,580.998 731.071,572.449C733.973,562.431 732.923,562.246 741.65,442.509C742.763,427.228 754.429,267.168 755.304,251.481C759.577,174.893 766.242,158.346 754.139,145.895Z" style="fill:rgb(23,68,93);"/>
    </g>
    <g transform="matrix(1.117599,0,0,1.117599,63.289355,92.289355)">
        <path d="M648.802,520.574C650.427,515.715 650.114,515.649 651.8,512.684C666.971,485.998 704.991,503.228 701.121,530.445C695.789,567.941 641.697,560.319 648.802,520.574Z" style="fill:rgb(216,56,45);"/>
    </g>
    <g transform="matrix(1.117599,0,0,1.117599,63.289355,92.289355)">
        <path d="M595.525,492.067C638.903,498.952 621.984,558.218 585.647,546.12C563.618,538.785 558.92,495.043 595.525,492.067Z" style="fill:rgb(39,130,130);"/>
    </g>
    <g transform="matrix(1.117599,0,0,1.117599,63.289355,92.289355)">
        <path d="M831.302,825.092C831.747,825.788 832.897,825.804 833.342,826.5C833.536,826.803 832.792,827.073 832.799,827.433C832.875,831.296 839.184,879.894 839.776,884.452C840.684,891.446 844.102,925.018 845.748,928.938C839.001,933.231 827.926,930.059 826.44,929.633C828.261,925.173 826.907,925.096 825.899,920.388C824.838,915.437 814.343,866.437 812.181,858.594C808.075,843.699 809.7,838.221 804.62,832.914C817.938,830.148 829.324,825.773 831.302,825.092Z" style="fill:rgb(59,69,74);"/>
    </g>
    <g transform="matrix(1.117599,0,0,1.117599,63.289355,92.289355)">
        <path d="M587.014,224.387C588.263,219.982 590.971,206.009 600.606,211.315C621.917,223.05 638.118,211.086 645.499,210.491C646.39,210.419 646.143,210.947 655.454,215.577C656.477,216.086 656.042,220.16 655.999,220.559C654.353,235.958 660.54,241.225 661.012,248.524C661.269,252.498 652.901,250.432 651.859,249.176C650.643,247.708 646.578,242.801 628.498,244.492C622.339,245.068 622.42,249.801 619.547,249.26C613.347,248.092 612.558,250.793 610.643,248.37C603.361,239.155 594.575,243.765 585.561,243.274C582.896,243.129 586.689,225.867 587.014,224.387Z" style="fill:rgb(247,179,129);"/>
    </g>
    <g transform="matrix(1.117599,0,0,1.117599,63.289355,92.289355)">
        <path d="M512.564,485.882C547.318,483.923 550.502,525.726 528.394,537.306C495.267,554.658 471.471,496.364 512.564,485.882Z" style="fill:rgb(4,113,122);"/>
    </g>
    <g transform="matrix(1.117599,0,0,1.117599,63.289355,92.289355)">
        <path d="M734.477,841.844C732.753,843.337 732.377,843.083 732.232,844.492C731.496,851.675 732.226,851.719 725.779,934.517C725.758,934.787 725.571,937.187 726.619,937.805C726.877,937.958 727.144,937.211 727.403,937.363C718.303,941.245 717.111,941.077 707.35,937.932C708.836,931.334 708.12,931.242 704.968,853.417C704.726,847.463 702.824,846.887 706.507,842.172C728.582,842.49 728.519,842.094 734.477,841.844Z" style="fill:rgb(60,69,74);"/>
    </g>
    <g transform="matrix(1.117599,0,0,1.117599,63.289355,92.289355)">
        <path d="M619.574,832.17C626.905,833.279 626.9,833.24 627.535,833.348C666.804,840.023 666.9,838.735 706.507,842.172C702.824,846.887 704.726,847.463 704.968,853.417C708.12,931.242 708.836,931.334 707.35,937.932C704.763,935.594 705.204,935.094 703.789,894.488C703.652,890.562 702.141,847.24 701.912,845.42C701.39,841.259 688.665,847.222 628.428,835.953C623.092,834.954 624.936,838.095 624.566,843.505C624.408,845.828 618.248,917.67 616.637,918.676C615.362,919.472 595.438,924.271 593.585,924.717C594.173,922.497 594.178,922.513 594.22,922.319C595.744,915.23 607.801,859.167 612.774,833.603C615.173,831.663 615.488,833.086 618.598,833.055L619.574,832.17Z" style="fill:rgb(8,92,102);"/>
    </g>
    <g transform="matrix(1.117599,0,0,1.117599,63.289355,92.289355)">
        <path d="M769.606,645.281C769.313,646.125 769.021,646.97 768.728,647.815C766.732,649.841 766.268,650.692 768.74,652.144C771.638,653.845 779.465,655.316 781.421,655.78C815.663,661.412 859.332,655.256 845.389,647.787C847.256,646.6 847.177,645.914 848.443,646.629C854.522,650.066 851.911,652.798 851.31,662.449C850.95,668.243 851.766,668.796 847.595,672.79C829.341,680.34 790.636,680.703 767.599,672.178C762.808,670.404 763.507,661.444 762.748,652.4C762.537,649.444 761.752,648.83 764.464,647.425C767.023,646.099 766.821,645.729 769.606,645.281Z" style="fill:rgb(51,158,155);"/>
    </g>
    <g transform="matrix(1.117599,0,0,1.117599,63.289355,92.289355)">
        <path d="M644.807,682.451C645.24,678.367 645.201,677.891 650.352,675.268C657.891,671.429 663.559,671.811 666.411,671.122C678.787,668.129 707.207,669.309 715.48,670.658C744.542,675.395 740.003,682.672 740.049,683.398C736.354,684.742 728.297,693.561 685.509,692.285C657.006,691.434 647.504,684.437 644.807,682.451Z" style="fill:rgb(12,121,131);"/>
    </g>
    <g transform="matrix(1.117599,0,0,1.117599,63.289355,92.289355)">
        <path d="M626.247,425.448C626.203,429.685 626.097,429.627 624.53,433.508C624.368,433.907 622.545,438.421 622.552,438.522C622.685,440.452 622.042,440.167 620.994,441.767C620.818,442.036 619.754,443.661 619.619,445.543C619.493,447.308 617.696,448.725 617.5,452.518C617.062,453.096 616.959,452.945 616.678,453.603C613.923,460.056 613.61,459.937 613.5,462.105C611.998,464.409 611.742,464.28 611.62,465.56C611.313,468.789 609.886,468.77 609.752,470.582C609.667,471.728 609.212,471.476 608.822,472.523C608.753,472.708 608.881,472.692 609.631,474.855C608.242,474.841 606.853,474.827 605.464,474.813C605.466,470.036 605.246,468.987 605.142,468.491C601.325,450.296 602.657,450.116 602.203,448.571C602.07,448.117 601.338,448.015 601.206,447.561C601.026,446.939 602.004,446.164 601.149,440.513C600.084,433.465 600.925,433.541 602.345,426.461C603.122,422.586 610.104,387.769 614.653,378.619C615.676,376.562 622.425,378.303 622.585,378.381C624.458,379.295 624.43,401.195 626.247,425.448Z" style="fill:rgb(1,85,103);"/>
    </g>
    <g transform="matrix(1.117599,0,0,1.117599,63.289355,92.289355)">
        <path d="M774.491,598.222C790.451,607.59 797.975,624.412 798.817,625.349C799.351,625.945 800.342,625.987 800.876,626.583C800.343,630.768 805.596,639.306 805.599,639.31C805.669,640.385 805.2,640.355 805.732,641.368C805.816,641.528 805.657,641.575 806.515,643.488C806.853,643.505 807.192,643.523 807.53,643.54C807.542,643.233 807.763,642.958 807.775,642.651C807.89,639.587 806.659,639.828 806.398,639.166C807.647,638.101 807.332,637.765 807.243,607.498C807.235,604.722 807.981,601.567 805.606,600.345C784.023,589.239 801.014,546.215 811.226,556.783C822.6,568.553 824.185,592.932 811.137,600.085C809.88,600.774 810.324,601.108 809.927,601.606C809.968,637.642 810.094,637.679 810.746,639.215C810.523,640.006 809.678,639.744 809.837,642.436C809.963,644.568 808.705,646.672 810.406,645.278C812.216,643.795 810.149,642.46 812.17,641.34C812.815,640.982 813.337,642.97 813.982,642.613C809.718,653.089 810.617,653.892 811.531,653.812C811.658,653.801 811.624,653.739 812.787,652.835C814.982,653.501 830.983,655.103 833.484,654.305C839.539,652.371 837.963,649.279 839.589,646.101C841.522,646.663 843.456,647.225 845.389,647.787C859.332,655.256 815.663,661.412 781.421,655.78C781.914,655.539 781.876,656.2 782.364,655.96C784.616,654.854 784.222,654.35 784.428,654.304C786.089,653.933 786.211,655.93 805.668,653.125C807.439,653.515 808.121,653.248 807.562,651.498C805.419,644.794 805.929,644.523 801.239,639.146C801.31,638.837 802.184,638.905 801.625,637.462C798.764,630.077 798.019,629.963 797.262,628.823C793.539,614.948 775.049,600.61 774.034,599.613L774.491,598.222Z" style="fill:rgb(44,122,118);"/>
    </g>
    <g transform="matrix(1.117599,0,0,1.117599,63.289355,92.289355)">
        <path d="M737.046,763.451C737.281,763.593 737.463,764.646 739.4,764.867C760.913,767.32 766.06,776.815 756.264,781.029C726.409,793.873 640.404,791.813 641.937,773.541C642.112,771.46 644.085,769.634 644.368,769.372C645.671,768.166 645.849,768.766 647.527,769.491C649.119,772.594 654.454,782.993 688.504,784.348C703.904,784.961 732.592,782.571 736.057,769.403C736.18,768.936 736.131,768.962 737.046,763.451Z" style="fill:rgb(210,182,159);"/>
    </g>
    <g transform="matrix(1.117599,0,0,1.117599,63.289355,92.289355)">
        <path d="M650.076,679.035C657.443,669.665 721.693,668.291 734.766,679.138C734.31,679.673 734.124,680.405 733.668,680.94C727.792,687.837 664.893,692.074 650.076,679.035Z" style="fill:rgb(1,64,79);"/>
    </g>
    <g transform="matrix(1.117599,0,0,1.117599,63.289355,92.289355)">
        <path d="M817.47,627.502C807.134,610.287 833.59,586.739 853.491,588.593C862.76,589.457 848.978,615.474 844.159,620.164C834.16,629.894 823.725,628.721 820.704,628.779C821.011,627.569 820.62,627.538 821.31,626.391C822.708,624.067 822.485,624.024 823.892,621.698C832.222,607.92 842.298,601.6 842.454,601.47C849.062,595.962 837.983,599.498 827.48,612.485C826.692,613.46 819.418,622.454 818.906,625.595C818.64,627.226 818.011,626.783 817.47,627.502Z" style="fill:rgb(60,152,143);"/>
    </g>
    <g transform="matrix(1.117599,0,0,1.117599,63.289355,92.289355)">
        <path d="M774.491,598.222C773.253,597.909 772.555,597.163 772.612,598.491C772.66,599.605 773.041,599.295 774.034,599.613C775.049,600.61 793.539,614.948 797.262,628.823C772.749,628.81 768.79,611.83 762.975,599.25C753.565,578.894 782.656,590.479 791.12,597.938C798.221,604.196 801.06,612.998 801.54,614.487C803.958,621.984 801.76,624.795 800.876,626.583C800.342,625.987 799.351,625.945 798.817,625.349C797.975,624.412 790.451,607.59 774.491,598.222Z" style="fill:rgb(60,152,143);"/>
    </g>
    <g transform="matrix(1.117599,0,0,1.117599,63.289355,92.289355)">
        <path d="M845.409,676.091C845.576,676.006 847.5,675.026 847.5,675.026C847.708,675.13 847.604,675.211 848.93,677.559C848.557,679.871 845.134,701.077 844.148,706.44C839.225,733.234 838.813,733.249 839.532,735.49C840.192,737.545 871.189,745.424 870.84,768.491C870.431,795.483 875.569,805.261 843.26,822.04C841.325,823.045 835.529,824.998 835.547,826.502C835.614,832.11 848.011,925.479 847.177,927.379C847.109,927.534 847.071,927.494 845.748,928.938C844.102,925.018 840.684,891.446 839.776,884.452C839.184,879.894 832.875,831.296 832.799,827.433C832.792,827.073 833.536,826.803 833.342,826.5C832.897,825.804 831.747,825.788 831.302,825.092C850.68,817.062 857.632,810.333 859.513,808.513C870.213,798.156 868.302,794.267 868.445,777.548C867.748,776.842 867.051,776.135 866.354,775.429C876.917,756.717 848.52,742.552 845.651,741.121C845.117,740.878 839.234,738.201 838.735,738.661C837.874,739.455 841.608,751.696 808.5,751.863C780.831,752.004 777.429,744.015 776.372,741.531C774.235,732.23 775.109,732.07 774.738,731.331C774.5,730.856 773.65,730.923 773.412,730.449C773.713,729.783 774.014,729.118 774.315,728.452C774.842,729.235 775.682,729.773 776.209,730.556C776.342,730.754 775.458,730.803 776.407,733.525C776.625,734.149 778.271,738.87 778.089,741.617C778.03,742.496 777.887,744.652 787.573,747.22C807.527,752.511 835.081,748.27 835.561,742.526C835.659,741.355 838.009,727.723 838.231,726.438C841.94,704.93 842.457,705.079 845.365,683.516C845.67,681.259 846.178,679.463 846.183,679.433C846.624,676.89 845.648,677.125 845.409,676.091Z" style="fill:rgb(36,67,70);"/>
    </g>
    <g transform="matrix(1.117599,0,0,1.117599,63.289355,92.289355)">
        <path d="M660.52,322.465C664.612,329.673 654.696,360.654 650.276,365.325C640.394,375.767 638.934,374.599 638.331,373.605C637.697,372.562 631.832,362.899 630.306,360.628C625.617,353.646 625.259,353.927 624.856,353.319C624.138,352.237 625.937,353.436 638.774,344.954C640.533,343.792 655.149,334.134 658.542,327.528C659.697,325.28 658.685,325.098 659.561,322.678C659.672,322.37 660.408,322.773 660.52,322.465Z" style="fill:rgb(83,180,180);"/>
    </g>
    <g transform="matrix(1.117599,0,0,1.117599,63.289355,92.289355)">
        <path d="M866.354,775.429C867.051,776.135 867.748,776.842 868.445,777.548C867.539,778.224 867.349,777.859 866.818,778.763C842.472,820.176 685.097,835.21 586.557,800.345C557.451,790.047 549.902,778.118 550.258,777.5C550.566,776.966 551.404,776.89 551.711,776.355C579.866,815.727 755.126,834.238 836.728,797.977C860.217,787.539 862.219,781.084 866.354,775.429Z" style="fill:rgb(87,78,66);"/>
    </g>
    <g transform="matrix(1.117599,0,0,1.117599,63.289355,92.289355)">
        <path d="M657.636,302.515C656.156,321.398 660.392,322.973 653.319,330.332C639.815,344.384 622.475,352.004 620.648,351.022C614.5,347.722 610.001,341.645 609.269,340.656C609.84,340.406 609.928,339.496 610.5,339.247C611.101,338.985 611.827,339.405 612.466,339.261C613.893,338.939 615.193,338.155 616.627,337.866C623.936,336.392 630.725,342.14 653.344,307.439C655.643,303.912 653.819,303.734 653.274,303.233C654.605,301.667 654.42,301.664 654.546,301.552C655.36,300.824 656,301.329 657.636,302.515Z" style="fill:rgb(248,175,126);"/>
    </g>
    <g transform="matrix(1.117599,0,0,1.117599,63.289355,92.289355)">
        <path d="M764.259,723.498C764.282,719.826 764.389,719.831 764.284,719.532C763.901,718.44 763.536,718.571 763.752,717.457C764.161,715.346 763.56,715.497 762.809,713.412C762.699,713.108 761.697,710.325 761.199,709.701C750.117,695.806 741.71,708.103 741.806,703.432C741.857,700.908 741.588,695.888 743.575,695.774C779.032,693.75 776.201,732.608 763.363,746.362C759.905,750.067 759.933,750.072 755.435,752.395C751.748,754.299 751.878,754.484 751.545,754.616C750.575,755.003 750.554,754.218 749.534,754.639C745.22,756.424 745.16,755.98 740.424,755.95C736.129,755.923 738.193,753.745 738.548,749.501C738.879,745.537 743.358,749.299 750.436,746.246C751.921,745.605 752.404,744.364 752.426,744.351C753.27,743.875 753.465,744.703 754.221,744.09C758.476,740.643 759.302,738.253 760.374,737.409C763.081,735.281 763.569,728.354 763.628,727.523C763.838,726.181 764.049,724.84 764.259,723.498Z" style="fill:rgb(1,93,107);"/>
    </g>
    <g transform="matrix(1.117599,0,0,1.117599,63.289355,92.289355)">
        <path d="M804.62,832.914C809.7,838.221 808.075,843.699 812.181,858.594C814.343,866.437 824.838,915.437 825.899,920.388C826.907,925.096 828.261,925.173 826.44,929.633C823.367,926.745 822.947,917.349 814.964,884.387C811.42,869.753 805.088,835.546 803.602,835.335C800.562,834.903 784.142,840.955 741.499,843.485C736.645,843.773 736.141,842.798 735.256,844.373C734.475,845.763 729.299,922.709 728.84,929.525C728.563,933.647 729.316,933.789 727.403,937.363C727.144,937.211 726.877,937.958 726.619,937.805C725.571,937.187 725.758,934.787 725.779,934.517C732.226,851.719 731.496,851.675 732.232,844.492C732.377,843.083 732.753,843.337 734.477,841.844C746.036,840.338 759.011,840.652 781.558,836.818C804.457,832.923 804.457,832.911 804.62,832.914Z" style="fill:rgb(32,40,50);"/>
    </g>
    <g transform="matrix(1.117599,0,0,1.117599,63.289355,92.289355)">
        <path d="M648.631,369.756L649.711,370.419C643.046,386.996 634.262,410.397 629.822,420.91C629.316,422.107 629.046,421.81 628.231,422.755C628.028,419.143 625.696,377.775 625.777,377.602C626.171,376.762 630.645,367.225 631.511,367.527C632.584,367.902 636.198,375.301 637.517,376.483C640.458,379.115 645.573,372.94 648.631,369.756Z" style="fill:rgb(85,183,182);"/>
    </g>
    <g transform="matrix(1.117599,0,0,1.117599,63.289355,92.289355)">
        <path d="M596.459,383.5C596.465,381.985 596.415,366.687 596.566,366.56C597.3,365.94 597.188,366.728 598.845,370.29C602.48,378.101 605.582,370.591 608.553,366.551C610.296,364.183 610.161,367.121 612.437,375.517C613.857,380.752 608.96,380.105 600.281,426.421C599.863,428.652 598.894,427.992 597.075,426.546L597.005,425.562C597.345,424.969 598.405,425.069 598.745,424.476C599.514,423.134 597.08,412.284 596.459,383.5Z" style="fill:rgb(88,182,183);"/>
    </g>
    <g transform="matrix(1.117599,0,0,1.117599,63.289355,92.289355)">
        <path d="M296.503,759.949C331.343,762.559 337.119,775.81 339.263,779.697C344.859,792.881 343.019,793.387 343.314,882.502C343.525,946.207 344.314,946.376 342.504,951.6L341.494,951.551C340.809,949.708 340.874,949.685 340.918,841.499C340.939,789.647 344.523,773.326 316.43,765.71C296.734,760.369 296.107,763.205 294.738,762.101C294.015,761.519 297.225,760.531 296.503,759.949Z" style="fill:rgb(0,32,42);"/>
    </g>
    <g transform="matrix(1.117599,0,0,1.117599,63.289355,92.289355)">
        <path d="M650.117,252.539C649.469,259.212 649.095,272.316 631.527,268.402C623.41,266.593 617.314,247.803 630.523,246.725C635.686,246.303 641.661,246.705 644.524,247.391C649.661,248.621 649.579,250.651 650.117,252.539Z" style="fill:rgb(247,179,128);"/>
    </g>
    <g transform="matrix(1.117599,0,0,1.117599,63.289355,92.289355)">
        <path d="M530.362,389.178C530.62,389.454 531.174,389.276 531.432,389.552C531.597,389.728 531.37,401.744 531.054,402.349C526.82,410.462 498.126,410.178 497.448,403.512C496.984,398.943 498.196,398.965 497.625,389.523C497.455,386.723 499.953,384.774 499.658,387.537C499.566,388.393 499.106,392.696 508.478,393.71C523.311,395.316 529.073,390.06 530.362,389.178Z" style="fill:rgb(250,250,251);"/>
    </g>
    <g transform="matrix(1.117599,0,0,1.117599,63.289355,92.289355)">
        <path d="M801.239,639.146C805.929,644.523 805.419,644.794 807.562,651.498C808.121,653.248 807.439,653.515 805.668,653.125C803.345,646.671 802.589,645.364 802.225,644.736C800.566,641.869 789.885,643.861 780.556,644.86C780.291,644.663 779.837,645.177 779.572,644.98C779.012,644.564 779.021,643.549 778.39,643.254C778.03,643.086 772.561,644.472 772.494,644.475C771.829,644.505 771.142,644.166 770.5,644.345C770.085,644.461 770.022,645.165 769.606,645.281C766.821,645.729 767.023,646.099 764.464,647.425C761.752,648.83 762.537,649.444 762.748,652.4C763.507,661.444 762.808,670.404 767.599,672.178C790.636,680.703 829.341,680.34 847.595,672.79C848.379,673.127 849.163,673.465 849.946,673.802C849.152,675.625 849.302,675.563 848.93,677.559C847.604,675.211 847.708,675.13 847.5,675.026C847.5,675.026 845.576,676.006 845.409,676.091C801.309,687.513 771.959,675.47 768.407,674.678C765.163,673.955 771.605,692.766 770.27,704.568C770.044,704.338 768.463,702.736 767.375,701.759C767.435,701.21 768.373,701.034 768.433,700.486C768.509,699.801 766.872,689.421 766.72,688.462C765.648,681.661 765.551,681.744 764.812,674.457C764.523,671.613 761.977,671.61 761.612,668.483C759.29,648.604 758.9,646.058 767.513,643.539C778.46,640.337 785.634,640.19 801.239,639.146Z" style="fill:rgb(26,113,113);"/>
    </g>
    <g transform="matrix(1.117599,0,0,1.117599,63.289355,92.289355)">
        <path d="M776.372,741.531C777.429,744.015 780.831,752.004 808.5,751.863C841.608,751.696 837.874,739.455 838.735,738.661C839.234,738.201 845.117,740.878 845.651,741.121C845.849,744.957 845.822,745.208 845.784,745.561C844.077,761.472 773.135,759.057 771.659,747.492C771.116,743.231 772.635,743.741 776.372,741.531Z" style="fill:rgb(207,178,154);"/>
    </g>
    <g transform="matrix(1.117599,0,0,1.117599,63.289355,92.289355)">
        <path d="M607.069,261.303C602.989,266.362 603.011,267.372 596.5,267.138C583.964,266.688 583.815,257.867 584.966,248.568C585.594,243.498 605.425,243.469 608.258,249.576C610.083,253.509 607.409,260.423 607.069,261.303Z" style="fill:rgb(247,180,129);"/>
    </g>
    <g transform="matrix(1.117599,0,0,1.117599,63.289355,92.289355)">
        <path d="M601.58,329.587C602.027,329.592 602.079,328.63 602.527,328.635C602.802,328.639 605.032,342.373 613.401,348.61C617.076,351.349 617.016,351.396 617.473,351.523C621.046,352.519 616.326,352.67 612.916,356.869C605.902,365.507 603.081,373.259 600.874,369.268C595.676,359.866 595.974,353.075 601.227,332.387C601.313,332.045 601.556,329.811 601.58,329.587Z" style="fill:rgb(85,183,184);"/>
    </g>
    <g transform="matrix(1.117599,0,0,1.117599,63.289355,92.289355)">
        <path d="M669.534,430.544C685.452,422.604 689.829,440.045 684.219,447.287C673.797,460.74 655.463,442.206 669.534,430.544Z" style="fill:rgb(219,228,233);"/>
    </g>
    <g transform="matrix(1.117599,0,0,1.117599,63.289355,92.289355)">
        <path d="M761.609,725.461C760.053,746.405 739.042,747.658 738.95,743.448C738.946,743.247 740.347,724.052 740.663,723.569C741.008,723.04 741.144,723.78 748.524,724.293C757.469,724.916 757.439,724.874 761.609,725.461Z" style="fill:rgb(232,206,181);"/>
    </g>
    <g transform="matrix(1.117599,0,0,1.117599,63.289355,92.289355)">
        <path d="M653.274,303.233C653.819,303.734 655.643,303.912 653.344,307.439C630.725,342.14 623.936,336.392 616.627,337.866C615.193,338.155 613.893,338.939 612.466,339.261C611.827,339.405 611.101,338.985 610.5,339.247C609.928,339.496 609.84,340.406 609.269,340.656C605.373,334.17 605.77,334.027 604.81,326.511C603.879,319.227 607.239,329.331 614.478,330.613C627.139,332.854 646.05,315.126 647.426,309.77C647.887,309.241 647.958,309.321 653.274,303.233Z" style="fill:rgb(239,149,101);"/>
    </g>
    <g transform="matrix(1.117599,0,0,1.117599,63.289355,92.289355)">
        <path d="M547.331,774.492C547.716,775.112 548.571,774.608 548.59,776.52C548.8,797.225 545.669,805.572 585.707,822.054C583.355,834.449 581.046,857.19 580.582,858.517C580.427,858.96 579.718,859.061 579.587,859.512C579.228,860.741 580.555,860.871 578.225,875.458C577.526,879.837 570.157,925.987 570.447,930.337L568.521,930.82C568.578,930.045 568.045,930.226 568.099,929.5C568.135,929.01 568.27,929.039 569.067,923.437C582.144,831.504 583.058,831.616 583.039,823.547C583.033,821.395 581.741,822.54 580.687,822.004C577.758,820.515 577.932,820.243 577.672,820.128C577.355,819.986 576.949,820.36 576.635,820.213C576.206,820.012 576.085,819.381 575.655,819.183C575.336,819.036 574.914,819.449 574.607,819.278C574.171,819.036 574.138,818.32 573.694,818.092C573.372,817.927 572.971,818.355 572.622,818.259C571.642,817.991 570.779,817.35 570.635,817.243C570.262,816.966 568.729,815.826 565.707,814.151C552.6,806.886 554.249,804.9 549.757,800.348C549.3,799.885 547.431,796.081 547.674,794.456C547.85,793.279 547.117,793.558 546.875,792.472C546.873,792.466 546.8,777.791 546.794,776.514C546.973,775.84 547.152,775.166 547.331,774.492Z" style="fill:rgb(5,29,40);"/>
    </g>
    <g transform="matrix(1.117599,0,0,1.117599,63.289355,92.289355)">
        <path d="M502.117,517.493C502.65,509.827 501.745,503.208 507.493,503.605C517.491,504.295 524.222,503.884 523.229,509.498C521.542,519.032 524.015,522.535 518.506,522.3C502.59,521.619 502.535,519.912 502.117,517.493Z" style="fill:rgb(250,251,252);"/>
    </g>
    <g transform="matrix(1.117599,0,0,1.117599,63.289355,92.289355)">
        <path d="M780.556,644.86C789.885,643.861 800.566,641.869 802.225,644.736C802.589,645.364 803.345,646.671 805.668,653.125C786.211,655.93 786.089,653.933 784.428,654.304C784.222,654.35 784.616,654.854 782.364,655.96C781.876,656.2 781.914,655.539 781.421,655.78C779.465,655.316 771.638,653.845 768.74,652.144C766.268,650.692 766.732,649.841 768.728,647.815C774.56,646.003 774.532,646.12 780.556,644.86Z" style="fill:rgb(2,82,90);"/>
    </g>
    <g transform="matrix(1.117599,0,0,1.117599,63.289355,92.289355)">
        <path d="M676.143,374.51C678.154,376.562 677.811,376.73 678.181,379.536C677.275,379.588 677.32,379.323 676.517,379.631C664.484,384.244 664.299,383.724 663.537,384.531C662.973,385.128 662.577,385.548 668.309,393.619C673.193,400.496 672.173,401.523 667.36,408.414C635.993,453.325 625.126,464.822 617.147,475.137C617.01,475.174 615.44,475.61 615.44,475.61C613.938,474.734 614.748,473.883 627.913,457.817C637.147,446.546 667.085,405.639 669.125,401.389C670.946,397.597 656.662,385.413 661.616,382.787C668.087,379.356 675.107,380.423 676.143,374.51Z" style="fill:rgb(95,107,119);"/>
    </g>
    <g transform="matrix(1.117599,0,0,1.117599,63.289355,92.289355)">
        <path d="M761.716,722.607C758.05,722.508 758.126,722.67 754.506,722.412C744.695,721.711 740.846,722.013 740.857,720.48C740.94,709.809 741.228,705.812 748.481,705.286C761.422,704.346 761.688,720.863 761.716,722.607Z" style="fill:rgb(250,250,250);"/>
    </g>
    <g transform="matrix(1.117599,0,0,1.117599,63.289355,92.289355)">
        <path d="M629.327,289.025C631.913,288.845 633.472,288.007 632.837,290.573C631.264,296.938 622.729,301.389 621.593,301.982C621.515,301.849 621.301,299.548 618.539,299.315C615.755,299.081 615.754,299.012 613.388,300.411C613.278,300.794 612.962,300.447 612.842,300.863C612.798,301.017 612.813,301.009 612.453,302.824C611.526,302.439 606.779,301.775 602.726,294.373C602.503,293.966 598.626,287.876 602.471,288.721C613.995,291.251 618.052,290.459 629.327,289.025Z" style="fill:rgb(14,25,40);"/>
    </g>
    <g transform="matrix(1.117599,0,0,1.117599,63.289355,92.289355)">
        <path d="M621.512,354.316C628.655,358.23 630.144,365.012 629.006,367.16C624.299,376.038 623.353,375.943 622.488,375.855C616.934,375.294 615.174,376.837 613.717,371.426C613.528,370.725 611.581,363.495 611.95,362.525C614.604,355.554 620.52,354.494 621.512,354.316Z" style="fill:rgb(1,79,98);"/>
    </g>
    <g transform="matrix(1.117599,0,0,1.117599,63.289355,92.289355)">
        <path d="M674.465,524.901C669.479,524.902 668.569,524.845 667.579,528.517C666.278,533.336 659.72,533.306 658.344,529.566C654.136,518.129 683.181,515.431 689.701,526.377C694.972,535.227 682.205,536.323 681.303,530.545C680.612,526.124 680.026,525.875 674.465,524.901Z" style="fill:rgb(253,249,249);"/>
    </g>
    <g transform="matrix(1.117599,0,0,1.117599,63.289355,92.289355)">
        <path d="M839.589,646.101C837.963,649.279 839.539,652.371 833.484,654.305C830.983,655.103 814.982,653.501 812.787,652.835C813.026,652.069 815.49,644.173 816.503,643.516C818.439,642.258 837.76,645.768 839.589,646.101Z" style="fill:rgb(2,84,91);"/>
    </g>
    <g transform="matrix(1.117599,0,0,1.117599,63.289355,92.289355)">
        <path d="M816.652,639.305C828.418,640.149 855.726,641.919 854.876,651.517C853.043,672.247 851.903,672.172 849.946,673.802C849.163,673.465 848.379,673.127 847.595,672.79C851.766,668.796 850.95,668.243 851.31,662.449C851.911,652.798 854.522,650.066 848.443,646.629C847.177,645.914 847.256,646.6 845.389,647.787C843.456,647.225 841.522,646.663 839.589,646.101C837.76,645.768 818.439,642.258 816.503,643.516C815.49,644.173 813.026,652.069 812.787,652.835C811.624,653.739 811.658,653.801 811.531,653.812C810.617,653.892 809.718,653.089 813.982,642.613C815.656,640.458 815.563,640.482 816.652,639.305Z" style="fill:rgb(39,136,134);"/>
    </g>
    <g transform="matrix(1.117599,0,0,1.117599,63.289355,92.289355)">
        <path d="M442.177,400.257C443.202,397.869 461.501,361.366 468.959,351.883C471.693,348.407 472.383,349.187 472.425,349.52C472.461,349.801 471.596,357.785 471.518,358.503C471.293,360.579 467.728,359.632 465.962,363.735C457.493,383.415 454.609,381.709 444.685,398.574C444.185,399.423 444.217,399.495 444.251,399.575C444.602,400.386 445.189,399.741 445.535,400.543C443.839,401.178 443.834,400.963 442.177,400.257Z" style="fill:rgb(240,157,112);"/>
    </g>
    <g transform="matrix(1.117599,0,0,1.117599,63.289355,92.289355)">
        <path d="M599.336,505.666C604.997,512.941 599.466,529.905 591.578,524.38C586.117,520.556 587.764,498.294 599.336,505.666Z" style="fill:rgb(250,251,251);"/>
    </g>
    <g transform="matrix(1.117599,0,0,1.117599,63.289355,92.289355)">
        <path d="M612.774,833.603C607.801,859.167 595.744,915.23 594.22,922.319C594.178,922.513 594.173,922.497 593.585,924.717C593.305,924.536 592.906,925.181 592.627,925C590.297,923.492 593.596,912.984 594.161,910.416C596.562,899.503 596.386,899.581 598.841,888.582C610.948,834.331 610.085,831.796 611.524,832.524C612.015,832.773 612.283,833.354 612.774,833.603Z" style="fill:rgb(5,23,37);"/>
    </g>
    <g transform="matrix(1.117599,0,0,1.117599,63.289355,92.289355)">
        <path d="M650.076,679.035C664.893,692.074 727.792,687.837 733.668,680.94C734.124,680.405 734.31,679.673 734.766,679.138C744.892,693.501 642.206,692.964 650.076,679.035Z" style="fill:rgb(0,19,33);"/>
    </g>
    <g transform="matrix(1.117599,0,0,1.117599,63.289355,92.289355)">
        <path d="M507.242,313.524C507.597,312.5 507.36,312.472 507.944,311.5C510.608,307.069 505.234,294.429 510.378,291.319C519.803,285.618 519.798,310.051 519.879,311.48C520.098,315.369 520.31,315.263 520.318,315.594C520.363,317.516 521.437,317.288 521.617,317.562C521.194,321.158 520.475,320.873 519.733,322.475C516.362,303.968 516.826,295.901 514.419,293.579C506.09,285.542 513.362,332.69 512.757,334.664C511.211,339.705 509.941,331.283 507.242,313.524Z" style="fill:rgb(27,30,35);"/>
    </g>
    <g transform="matrix(1.117599,0,0,1.117599,63.289355,92.289355)">
        <path d="M280.52,337.674C280.122,338.604 278.982,338.699 281.479,350.504C282.966,357.535 282.575,357.566 280.98,364.564C280.82,364.286 278.341,365.308 275.619,352.487C275.302,350.998 273.104,340.648 273.702,333.562C274.022,329.781 278.968,335.06 280.52,337.674Z" style="fill:rgb(235,139,96);"/>
    </g>
    <g transform="matrix(1.117599,0,0,1.117599,63.289355,92.289355)">
        <path d="M537.093,436.539C537.263,436.255 536.867,435.831 537.038,435.547C537.321,435.075 537.906,434.869 538.315,434.5C539.276,433.634 538.715,376.817 542.615,387.424C544.054,391.337 541.74,391.453 540.735,439.511C540.711,440.631 540.448,453.226 540.369,453.5C540.216,454.027 539.234,453.997 539.082,454.524C537.059,440.133 537.407,440.18 537.093,436.539Z" style="fill:rgb(180,187,195);"/>
    </g>
    <g transform="matrix(1.117599,0,0,1.117599,63.289355,92.289355)">
        <path d="M707.858,447.55C710.03,425.13 713.137,417.961 714.147,421.6C714.635,423.357 711.569,426.226 708.543,475.502C708.328,479.007 708.3,478.919 708.051,482.428C703.413,485.453 706.364,479.951 707.858,447.55Z" style="fill:rgb(181,189,197);"/>
    </g>
    <g transform="matrix(1.117599,0,0,1.117599,63.289355,92.289355)">
        <path d="M817.47,627.502C818.011,626.783 818.64,627.226 818.906,625.595C819.418,622.454 826.692,613.46 827.48,612.485C837.983,599.498 849.062,595.962 842.454,601.47C842.298,601.6 832.222,607.92 823.892,621.698C822.485,624.024 822.708,624.067 821.31,626.391C820.62,627.538 821.011,627.569 820.704,628.779C818.697,630.85 819.083,631.054 817.839,633.657C815.53,638.492 816.53,638.675 816.652,639.305C815.563,640.482 815.656,640.458 813.982,642.613C813.337,642.97 812.815,640.982 812.17,641.34C810.149,642.46 812.216,643.795 810.406,645.278C808.705,646.672 809.963,644.568 809.837,642.436C809.678,639.744 810.523,640.006 810.746,639.215C812.504,638.89 812.762,639.241 813.172,638.283C817.178,628.917 817.282,628.412 817.47,627.502Z" style="fill:rgb(14,74,76);"/>
    </g>
    <g transform="matrix(1.117599,0,0,1.117599,63.289355,92.289355)">
        <path d="M462.966,461.107C462.99,462.203 460.345,492.694 460.141,493.389C459.938,494.085 459.853,494.036 454.374,500.38C452.429,502.633 451.806,500.256 451.343,499.603C453.706,497.656 453.771,497.734 453.895,497.5C454.055,497.197 453.155,496.68 454.5,495.063C458.577,490.159 457.685,489.707 458.963,483.5C460.797,474.596 454.735,471.482 456.539,466.385C460.307,464.459 459.479,463.447 462.966,461.107Z" style="fill:rgb(237,145,101);"/>
    </g>
    <g transform="matrix(1.117599,0,0,1.117599,63.289355,92.289355)">
        <path d="M506.81,303.449C506.985,304.169 507.16,304.89 507.335,305.61C506.124,307.44 506.116,307.418 506.027,307.586C505.875,307.875 506.326,308.267 506.173,308.556C504.513,302.284 504.625,302.295 504.212,301.656C496.101,289.098 503.369,338.822 503.152,339.201C501.343,342.371 500.735,336.744 497.366,324.529C497.535,324.244 496.937,323.854 497.106,323.568C497.795,322.402 498.507,323.45 499.351,322.408C500.274,321.269 494.879,302.993 499.795,298.831C504.899,294.51 506.67,302.792 506.81,303.449Z" style="fill:rgb(30,34,40);"/>
    </g>
    <g transform="matrix(1.117599,0,0,1.117599,63.289355,92.289355)">
        <path d="M254.551,286.526C256.291,282.246 256.304,282.315 256.536,281.514C258.832,273.59 260.553,289.07 273.441,287.344C270.26,292.489 266.035,299.036 254.551,286.526Z" style="fill:rgb(234,139,96);"/>
    </g>
    <g transform="matrix(1.117599,0,0,1.117599,63.289355,92.289355)">
        <path d="M759.933,294.517C759.549,295.526 759.884,296.718 759.5,297.727C759.333,298.166 758.557,298.227 758.465,298.234C755.378,298.478 757.077,296.283 759.071,259.534C759.226,256.665 761.205,256.008 761.736,258.459C761.824,258.867 761.303,268.452 761.437,269.496C761.75,271.938 759.792,278.258 760.581,281.506C760.962,283.073 760.281,282.934 759.923,284.542C759.356,287.089 759.871,293.721 759.933,294.517Z" style="fill:rgb(16,61,85);"/>
    </g>
    <g transform="matrix(1.117599,0,0,1.117599,63.289355,92.289355)">
        <path d="M340.563,218.605C341.363,218.247 348.156,215.211 351.463,217.551C353.488,218.983 353.618,223.235 350.499,223.238C338.525,223.25 339.496,226.803 334.449,228.219C333.572,228.465 330.341,225.73 340.563,218.605Z" style="fill:rgb(9,28,43);"/>
    </g>
    <g transform="matrix(1.117599,0,0,1.117599,63.289355,92.289355)">
        <path d="M594.539,528.051C604.439,526.236 601.061,521.712 603.739,519.911C606.682,517.933 605.861,527.182 598.631,529.831C598.287,529.957 591.637,532.393 597.596,534.3C599.296,534.844 599.658,537.016 596.498,536.653C594.05,536.372 585.858,536.156 589.005,534.05C589.744,533.556 592.811,534.021 592.484,531.503C592.403,530.879 582.951,525.78 584.23,519.415C585.194,514.616 586.851,523.288 588.708,525.302C590.525,527.271 594.033,527.953 594.539,528.051Z" style="fill:rgb(242,247,247);"/>
    </g>
    <g transform="matrix(1.117599,0,0,1.117599,63.289355,92.289355)">
        <path d="M583.689,435.424C593.823,461.154 607.418,485.64 597.53,472.484C589.649,457.706 581.709,438.132 582.058,436.767C582.232,436.084 583.515,436.106 583.689,435.424Z" style="fill:rgb(151,159,166);"/>
    </g>
    <g transform="matrix(1.117599,0,0,1.117599,63.289355,92.289355)">
        <path d="M594.114,377.496C595.318,379.073 595.057,379.151 596.459,383.5C597.08,412.284 599.514,423.134 598.745,424.476C598.405,425.069 597.345,424.969 597.005,425.562C594.849,406.164 594.385,402.228 594.114,377.496Z" style="fill:rgb(18,32,38);"/>
    </g>
    <g transform="matrix(1.117599,0,0,1.117599,63.289355,92.289355)">
        <path d="M644.551,238.382C650.919,241.931 647.993,243.714 647.517,243.634C630.413,240.756 630.302,242.264 628.822,242.013C624.874,241.345 630.53,233.319 644.551,238.382Z" style="fill:rgb(10,27,39);"/>
    </g>
    <g transform="matrix(1.117599,0,0,1.117599,63.289355,92.289355)">
        <path d="M728.968,373.5C729.952,376.763 728.683,377.39 726.916,381.647C719.657,399.137 716.546,413.982 714.895,414.086C712.319,414.247 724.293,377.739 728.968,373.5Z" style="fill:rgb(198,205,210);"/>
    </g>
    <g transform="matrix(1.117599,0,0,1.117599,63.289355,92.289355)">
        <path d="M263.337,248.279C258.854,248.626 263.287,242.422 267.446,242.036C272.912,241.529 280.222,249.696 275.429,257.449C271.062,264.512 278.92,269.525 274.557,268.134C273.356,267.752 271.717,265.197 271.542,262.498C271.3,258.766 271.919,258.936 273.663,255.601C277.445,249.838 268.6,240.755 264.773,245.874C264.214,246.622 263.896,247.531 263.337,248.279Z" style="fill:rgb(37,32,37);"/>
    </g>
    <g transform="matrix(1.117599,0,0,1.117599,63.289355,92.289355)">
        <path d="M346.098,251.391C340.258,266.87 337.528,239.281 344.492,239.167C346.077,239.142 346.586,241.219 346.646,241.464C347.505,244.97 346.864,244.956 346.098,251.391Z" style="fill:rgb(6,25,40);"/>
    </g>
    <g transform="matrix(1.117599,0,0,1.117599,63.289355,92.289355)">
        <path d="M572.643,397.012C581.134,402.558 576.962,416.003 577.708,424.484C577.43,423.958 576.498,424.026 576.22,423.5C576.22,423.5 574.5,418.019 574.35,417.542C574.691,417.043 573.798,417.07 574.106,416.62C574.749,415.681 575.35,416.425 575.825,415.385C576.076,414.837 571.863,399.829 571.789,398.782C571.743,398.129 572.689,397.665 572.643,397.012Z" style="fill:rgb(234,236,237);"/>
    </g>
    <g transform="matrix(1.117599,0,0,1.117599,63.289355,92.289355)">
        <path d="M582.326,262.507C582.042,270.878 581.744,271.962 580.689,271.118C576.366,267.658 575.578,245.954 579.411,248.605C581.338,249.938 579.437,256.491 581.462,259.529C582.245,260.704 581.981,260.732 582.326,262.507Z" style="fill:rgb(245,176,128);"/>
    </g>
    <g transform="matrix(1.117599,0,0,1.117599,63.289355,92.289355)">
        <path d="M587.953,240.542C592.246,232.146 606.268,235.989 606.566,239.494C607.012,244.717 602.795,237.996 588.61,241.426L587.953,240.542Z" style="fill:rgb(12,26,39);"/>
    </g>
    <g transform="matrix(1.117599,0,0,1.117599,63.289355,92.289355)">
        <path d="M533.739,345.538C533.656,346.21 533.572,346.883 533.489,347.556C513.124,357.94 521.214,373.246 516.83,370.12C516.172,369.652 516.469,369.493 516.189,363.48C517.258,361.737 518.093,359.685 518.232,359.343C518.684,358.412 521.851,349.089 533.739,345.538Z" style="fill:rgb(195,124,86);"/>
    </g>
    <g transform="matrix(1.117599,0,0,1.117599,63.289355,92.289355)">
        <path d="M92.747,486.405C92.489,500.263 92.31,500.218 93.059,512.446C93.074,512.702 93.237,515.354 90.21,513.918C88.817,513.257 90.114,509.946 89.399,504.493C89.295,503.695 90.112,503.819 90.32,494.475C90.37,492.238 91.1,491.515 91.202,488.461C91.263,486.636 92.68,486.494 92.747,486.405Z" style="fill:rgb(2,56,79);"/>
    </g>
    <g transform="matrix(1.117599,0,0,1.117599,63.289355,92.289355)">
        <path d="M629.041,291.609C626.44,299.646 600.711,294.937 607.126,292.084C608.616,291.422 608.805,293.986 627.505,291.46C627.505,291.46 628.918,291.597 629.041,291.609Z" style="fill:rgb(242,242,243);"/>
    </g>
    <g transform="matrix(1.117599,0,0,1.117599,63.289355,92.289355)">
        <path d="M672.263,437.311C678.121,431.961 680.098,438.819 680.152,439.524C680.775,447.724 667.11,445.685 672.263,437.311Z" style="fill:rgb(14,49,68);"/>
    </g>
    <g transform="matrix(1.117599,0,0,1.117599,63.289355,92.289355)">
        <path d="M524.892,511.975C534.08,501.82 531.374,514.054 531.267,515.477C531.255,515.641 531.442,520.973 529.483,520.862C528.352,520.797 524.906,517.098 524.805,516.242C524.765,515.903 524.811,515.926 524.892,511.975Z" style="fill:rgb(245,248,249);"/>
    </g>
    <g transform="matrix(1.117599,0,0,1.117599,63.289355,92.289355)">
        <path d="M573.644,372.625C578.49,374.417 582.324,376.142 579.071,379.107C578.423,379.698 578.542,379.803 571.117,386.649C571.907,381.306 572.212,376.796 573.644,372.625Z" style="fill:rgb(240,242,243);"/>
    </g>
    <g transform="matrix(1.117599,0,0,1.117599,63.289355,92.289355)">
        <path d="M575.517,370.49C577.702,371.985 581.287,374.041 582.306,374.769C587.349,378.376 574.027,383.546 572.942,390.057C572.369,389.869 571.761,390.687 571.188,390.5C570.654,390.326 570.944,390.155 571.117,386.649C578.542,379.803 578.423,379.698 579.071,379.107C582.324,376.142 578.49,374.417 573.644,372.625C574.047,371.435 574.24,371.628 575.517,370.49Z" style="fill:rgb(63,75,88);"/>
    </g>
    <g transform="matrix(1.117599,0,0,1.117599,63.289355,92.289355)">
        <path d="M808.544,600.836C806.825,597.944 807.34,597.77 806.923,585.455C806.846,583.209 805.83,571.237 808.389,573.59C809.203,574.338 809.377,591.98 809.696,597.506C809.803,599.35 809.447,599.222 808.544,600.836Z" style="fill:rgb(12,62,65);"/>
    </g>
    <g transform="matrix(1.117599,0,0,1.117599,63.289355,92.289355)">
        <path d="M263.337,248.279C263.896,247.531 264.214,246.622 264.773,245.874C268.6,240.755 277.445,249.838 273.663,255.601C267.637,247.272 264.998,248.658 263.337,248.279Z" style="fill:rgb(237,136,92);"/>
    </g>
    <g transform="matrix(1.117599,0,0,1.117599,63.289355,92.289355)">
        <path d="M638.9,255.498C638.24,263.404 633.2,261.375 632.659,257.477C632.173,253.976 633.707,251.827 634.433,251.411C638.143,249.281 638.841,255.017 638.9,255.498Z" style="fill:rgb(5,25,41);"/>
    </g>
    <g transform="matrix(1.117599,0,0,1.117599,63.289355,92.289355)">
        <path d="M596.216,251.355C600.948,245.365 602.695,254.134 601.225,257.391C599.666,260.845 593.56,260.541 596.216,251.355Z" style="fill:rgb(7,30,48);"/>
    </g>
    <g transform="matrix(1.117599,0,0,1.117599,63.289355,92.289355)">
        <path d="M331.505,192.023C331.331,192.124 331.46,194.207 324.541,194.894C319.302,195.414 317.911,194.06 316.312,193.557C315.877,191.218 315.122,189.884 317.52,190.296C324.475,191.49 324.422,191.382 331.505,192.023Z" style="fill:rgb(240,149,103);"/>
    </g>
    <g transform="matrix(1.117599,0,0,1.117599,63.289355,92.289355)">
        <path d="M569.598,396.236C571.198,396.46 571.133,396.509 572.643,397.012C572.689,397.665 571.743,398.129 571.789,398.782C571.863,399.829 576.076,414.837 575.825,415.385C575.35,416.425 574.749,415.681 574.106,416.62C573.798,417.07 574.691,417.043 574.35,417.542C570.332,403.948 569.661,401.946 569.598,396.236Z" style="fill:rgb(162,168,175);"/>
    </g>
    <g transform="matrix(1.117599,0,0,1.117599,63.289355,92.289355)">
        <path d="M457.665,512.332C455.575,506.532 453.536,506.059 457.086,501.035C457.746,500.103 457.652,500.116 458.347,499.216C461.386,495.283 459.128,503.266 459.084,508.449C459.068,510.383 459.73,511.475 457.665,512.332Z" style="fill:rgb(236,238,239);"/>
    </g>
    <g transform="matrix(1.117599,0,0,1.117599,63.289355,92.289355)">
        <path d="M667.575,266.493C667.632,265.892 667.982,262.218 670.569,259.575C674.333,255.73 678.724,259.283 675.612,259.752C666.968,261.052 671.88,270.511 668.418,272.072C668.006,272.257 667.11,272.135 667.575,266.493Z" style="fill:rgb(51,47,46);"/>
    </g>
    <g transform="matrix(1.117599,0,0,1.117599,63.289355,92.289355)">
        <path d="M501.499,691.497C499.206,692.462 499.348,692.682 496.879,692.94C497.077,691.685 497.594,691.823 500.459,677.471C500.584,676.849 502.29,675.457 502.221,678.556C502.203,679.361 502.11,683.558 500.363,688.454C499.658,690.428 498.669,690.968 500.559,691.912C500.865,692.065 501.192,691.344 501.499,691.497Z" style="fill:rgb(2,54,73);"/>
    </g>
    <g transform="matrix(1.117599,0,0,1.117599,63.289355,92.289355)">
        <path d="M518.232,359.343C518.093,359.685 517.258,361.737 516.189,363.48C515.756,362.547 511.974,354.394 509.499,352.501C509.358,352.393 504.797,346.621 510.494,350.508C513.648,352.659 517.408,359.679 517.811,359.924C518.016,360.048 518.028,359.219 518.232,359.343Z" style="fill:rgb(237,155,109);"/>
    </g>
    <g transform="matrix(1.117599,0,0,1.117599,63.289355,92.289355)">
        <path d="M614.504,464.502C610.547,474.558 610.109,474.33 609.631,474.855C608.881,472.692 608.753,472.708 608.822,472.523C609.212,471.476 609.667,471.728 609.752,470.582C609.886,468.77 611.313,468.789 611.62,465.56C611.742,464.28 611.998,464.409 613.5,462.105C613.835,462.904 614.169,463.703 614.504,464.502Z" style="fill:rgb(14,38,47);"/>
    </g>
    <g transform="matrix(1.117599,0,0,1.117599,63.289355,92.289355)">
        <path d="M625.503,146.938C617.712,145.773 624.671,140.12 627.464,142.552C630.709,145.378 625.871,146.827 625.503,146.938Z" style="fill:rgb(13,67,92);"/>
    </g>
    <g transform="matrix(1.117599,0,0,1.117599,63.289355,92.289355)">
        <path d="M618.786,453.6C616.669,459.117 616.728,459.047 614.504,464.502C614.169,463.703 613.835,462.904 613.5,462.105C613.61,459.937 613.923,460.056 616.678,453.603C616.959,452.945 617.062,453.096 617.5,452.518L618.786,453.6Z" style="fill:rgb(14,31,39);"/>
    </g>
    <g transform="matrix(1.117599,0,0,1.117599,63.289355,92.289355)">
        <path d="M780.556,644.86C774.532,646.12 774.56,646.003 768.728,647.815C769.021,646.97 769.313,646.125 769.606,645.281C770.022,645.165 770.085,644.461 770.5,644.345C771.142,644.166 771.829,644.505 772.494,644.475C772.561,644.472 778.03,643.086 778.39,643.254C779.021,643.549 779.012,644.564 779.572,644.98C779.837,645.177 780.291,644.663 780.556,644.86Z" style="fill:rgb(62,158,158);"/>
    </g>
    <g transform="matrix(1.117599,0,0,1.117599,63.289355,92.289355)">
        <path d="M461.306,458.406C462.304,459.871 462.361,459.767 462.966,461.107C459.479,463.447 460.307,464.459 456.539,466.385C454.628,464.442 457.712,463.551 461.306,458.406Z" style="fill:rgb(59,44,42);"/>
    </g>
    <g transform="matrix(1.117599,0,0,1.117599,63.289355,92.289355)">
        <path d="M466.27,369.413C471.303,371.555 469.367,366.714 470.512,365.506C473.439,362.418 471.8,377.436 465.728,370.598L466.27,369.413Z" style="fill:rgb(217,145,104);"/>
    </g>
    <g transform="matrix(1.117599,0,0,1.117599,63.289355,92.289355)">
        <path d="M660.393,437.476C660.283,438.833 660.174,440.19 660.064,441.547C657.304,440.997 657.345,441.436 654.608,441.029C652.256,440.68 652.077,438.605 654.505,438.62C657.615,438.641 657.678,438.994 660.393,437.476Z" style="fill:rgb(253,252,253);stroke:rgb(253,252,253);stroke-width:0.89px;"/>
    </g>
    <g transform="matrix(1.117599,0,0,1.117599,63.289355,92.289355)">
        <path d="M613.388,300.411C615.754,299.012 615.755,299.081 618.539,299.315C621.301,299.548 621.515,301.849 621.593,301.982C620.098,302.574 620.2,302.576 618.591,302.955C618.02,302.674 618.053,301.682 617.482,301.401C616.894,301.111 616.17,301.458 615.514,301.44C615.514,301.44 613.558,300.493 613.388,300.411Z" style="fill:rgb(138,67,60);"/>
    </g>
    <g transform="matrix(1.117599,0,0,1.117599,63.289355,92.289355)">
        <path d="M614.538,308.077C606.705,305.124 619.16,305.682 619.322,305.8C619.665,306.049 620.726,308.435 614.538,308.077Z" style="fill:rgb(234,149,106);"/>
    </g>
    <g transform="matrix(1.117599,0,0,1.117599,63.289355,92.289355)">
        <path d="M467.519,403.58L468.825,403.383C468.734,404.976 468.626,404.896 468.534,406.503C468.516,406.816 468.521,406.793 468.359,410.422L467.143,410.5C465.778,404.081 467.468,403.719 467.519,403.58Z" style="fill:rgb(176,116,90);"/>
    </g>
    <g transform="matrix(1.117599,0,0,1.117599,63.289355,92.289355)">
        <path d="M613.388,300.411C613.558,300.493 615.514,301.44 615.514,301.44C616.17,301.458 616.894,301.111 617.482,301.401C618.053,301.682 618.02,302.674 618.591,302.955C615.43,303.269 615.518,303.265 612.453,302.824C612.813,301.009 612.798,301.017 612.842,300.863C612.962,300.447 613.278,300.794 613.388,300.411Z" style="fill:rgb(64,51,51);"/>
    </g>
    <g transform="matrix(1.117599,0,0,1.117599,63.289355,92.289355)">
        <path d="M803.615,660.672C807.432,659.618 810.466,662.24 807.146,662.848C806.864,662.9 807.029,662.042 803.635,662.15C802.657,662.181 803.629,661.658 803.615,660.672Z" style="fill:rgb(49,157,154);"/>
    </g>
    <g transform="matrix(1.117599,0,0,1.117599,63.289355,92.289355)">
        <path d="M805.599,639.31L806.398,639.166C806.659,639.828 807.89,639.587 807.775,642.651C807.763,642.958 807.542,643.233 807.53,643.54L806.515,643.488C805.657,641.575 805.816,641.528 805.732,641.368C805.2,640.355 805.669,640.385 805.599,639.31Z" style="fill:rgb(40,140,137);"/>
    </g>
    <g transform="matrix(1.117599,0,0,1.117599,63.289355,92.289355)">
        <path d="M679.417,423.587C679.729,427.725 675.967,425.309 676.843,423.761C677.489,422.62 677.759,423.268 679.417,423.587Z" style="fill:rgb(230,232,231);"/>
    </g>
    <g transform="matrix(1.117599,0,0,1.117599,63.289355,92.289355)">
        <path d="M582.116,247.659C582.061,247.449 581.351,247.026 582.099,246.257C584.594,243.695 583.561,246.883 583.5,246.994C583.254,247.442 582.362,247.21 582.116,247.659Z" style="fill:rgb(33,57,74);"/>
    </g>
    <g transform="matrix(1.117599,0,0,1.117599,63.289355,92.289355)">
        <path d="M774.491,598.222L774.034,599.613C773.041,599.295 772.66,599.605 772.612,598.491C772.555,597.163 773.253,597.909 774.491,598.222Z" style="fill:rgb(46,132,125);"/>
    </g>
    <g transform="matrix(1.117599,0,0,1.117599,63.289355,92.289355)">
        <path d="M546.789,771.512C547.058,772.606 547.436,772.458 547.277,773.492C547.195,774.023 547.413,773.961 547.331,774.492C547.152,775.166 546.973,775.84 546.794,776.514C546.792,774.847 546.79,773.18 546.789,771.512Z" style="fill:rgb(9,74,78);"/>
    </g>
    <g transform="matrix(1.117599,0,0,1.117599,63.289355,92.289355)">
        <path d="M467.519,403.58C467.557,403.502 468.307,399.493 468.825,403.383L467.519,403.58Z" style="fill:rgb(102,74,69);"/>
    </g>
    <g transform="matrix(1.117599,0,0,1.117599,63.289355,92.289355)">
        <path d="M676.607,341.474C676.46,339.642 676.337,339.612 676.448,339.5C676.86,339.085 678.04,339.725 677.72,340.5C677.532,340.956 676.795,341.019 676.607,341.474Z" style="fill:rgb(2,31,48);"/>
    </g>
    <g transform="matrix(1.117599,0,0,1.117599,63.289355,92.289355)">
        <path d="M644.698,690.494C644.844,691.824 644.989,693.155 645.135,694.485C644.99,694.019 644.196,693.967 644.052,693.501C644.052,693.501 644.647,690.734 644.698,690.494Z" style="fill:rgb(6,62,74);"/>
    </g>
    <g transform="matrix(1.117599,0,0,1.117599,63.289355,92.289355)">
        <path d="M702.525,781.753C701.441,782.13 701.626,782.614 700.497,782.459C699.467,782.318 699.505,782.508 698.491,782.37C699.835,782.164 701.18,781.958 702.525,781.753Z" style="fill:rgb(5,62,76);"/>
    </g>
    <g transform="matrix(1.117599,0,0,1.117599,63.289355,92.289355)">
        <path d="M648.631,369.756C648.781,369.649 650.513,368.419 650.513,368.419C650.665,368.501 650.457,368.559 649.711,370.419L648.631,369.756Z" style="fill:rgb(54,143,149);"/>
    </g>
    <g transform="matrix(1.117599,0,0,1.117599,63.289355,92.289355)">
        <path d="M764.259,723.498C764.049,724.84 763.838,726.181 763.628,727.523C763.557,725.437 763.566,725.487 764.259,723.498Z" style="fill:rgb(5,61,75);"/>
    </g>
    <g transform="matrix(1.117599,0,0,1.117599,63.289355,92.289355)">
        <path d="M751.97,379.539C752.842,381.377 752.959,381.352 752.91,381.521C752.675,382.328 751.997,381.695 751.759,382.514L751.97,379.539Z" style="fill:rgb(16,51,70);"/>
    </g>
    <g transform="matrix(1.117599,0,0,1.117599,63.289355,92.289355)">
        <path d="M647.651,750.488C647.833,751.499 648.015,752.511 648.197,753.522C648.054,753.048 647.229,753.012 647.086,752.539C647.037,752.376 647.128,752.387 647.651,750.488Z" style="fill:rgb(5,63,75);"/>
    </g>
    <g transform="matrix(1.117599,0,0,1.117599,63.289355,92.289355)">
        <path d="M749.292,419.482C749.746,421.373 749.828,421.363 749.782,421.525C749.565,422.295 749.033,421.808 748.829,422.532C748.983,421.515 749.137,420.499 749.292,419.482Z" style="fill:rgb(16,55,77);"/>
    </g>
    <g transform="matrix(1.117599,0,0,1.117599,63.289355,92.289355)">
        <path d="M740.125,684.464C740.831,687.03 740.005,686.927 739.871,687.492C739.956,686.483 740.041,685.473 740.125,684.464Z" style="fill:rgb(3,60,72);"/>
    </g>
    <g transform="matrix(1.117599,0,0,1.117599,63.289355,92.289355)">
        <path d="M684.478,781.777C685.489,781.969 686.5,782.161 687.511,782.353C684.535,782.646 684.74,781.856 684.478,781.777Z" style="fill:rgb(5,65,78);"/>
    </g>
    <g transform="matrix(1.117599,0,0,1.117599,63.289355,92.289355)">
        <path d="M506.81,303.449C506.985,304.169 507.16,304.89 507.335,305.61C507.16,304.89 506.985,304.169 506.81,303.449Z" style="fill:rgb(111,115,117);"/>
    </g>
    <g transform="matrix(1.117599,0,0,1.117599,63.289355,92.289355)">
        <path d="M467.143,410.5L468.359,410.422C467.808,411.109 468.255,412.042 467.497,411.498C467.211,411.292 467.43,410.706 467.143,410.5Z" style="fill:rgb(73,59,60);"/>
    </g>
    <g transform="matrix(1.117599,0,0,1.117599,63.289355,92.289355)">
        <path d="M719.164,586.248C718.105,587.24 717.751,588.958 717.828,587.5C717.828,587.5 719.057,586.348 719.164,586.248Z" style="fill:rgb(7,43,63);"/>
    </g>
</svg>
