<?xml version="1.0" encoding="UTF-8" standalone="no"?>
<!DOCTYPE svg PUBLIC "-//W3C//DTD SVG 1.1//EN" "http://www.w3.org/Graphics/SVG/1.1/DTD/svg11.dtd">
<svg width="100%" height="100%" viewBox="0 0 1254 1254" version="1.1" xmlns="http://www.w3.org/2000/svg" xmlns:xlink="http://www.w3.org/1999/xlink" xml:space="preserve" xmlns:serif="http://www.serif.com/" style="fill-rule:evenodd;clip-rule:evenodd;stroke-linejoin:round;stroke-miterlimit:2;">
    <g transform="matrix(1.524116,0,0,1.524116,52.509787,19.34424)">
        <g transform="matrix(0.728699,0,0,0.728699,0,0)">
            <path d="M368.584,353.418C366.059,359.581 374.498,358.308 378.71,387.469C380.965,403.086 378.997,539.943 379.525,568.371C378.116,570.088 378.661,570.215 378.782,572.499C378.807,572.955 378.849,746.678 378.793,757.499C378.435,826.226 308.501,840.462 272.741,821.046C223.566,794.345 229.268,748.12 229.291,702.5C229.451,385.391 228.334,385.275 230.432,373.489C236.585,338.928 264.815,320.671 286.461,316.296C336.584,306.166 366.377,351.071 368.584,353.418Z" style="fill:rgb(15,146,146);"/>
        </g>
        <g transform="matrix(0.728699,0,0,0.728699,0,0)">
            <path d="M368.584,353.418C370.02,355.042 369.967,354.961 371.453,356.544C417.371,405.48 467.495,456.491 475.943,465.088C487.844,477.2 500.834,495.782 523.534,486.588C531.803,483.24 530.76,481.654 668.829,338.809C697.371,309.28 736.766,309.752 761.764,326.089C797.357,349.351 794.569,384.944 794.553,391.499C794.204,391.963 793.476,392.036 793.127,392.5C788.863,398.17 799.921,408.325 723.433,491.436C649.223,572.072 646.688,570.449 645.063,576.603C644.267,576.684 644.075,575.627 642.792,576.836C641.236,578.302 641.446,578.383 639.931,579.942C635.836,584.158 593.262,627.977 588.307,632.216C586.45,633.805 580.001,625.105 562.411,607.588C495.863,541.317 447.21,628.522 439.5,628.53C437.403,628.532 391.272,579.736 379.525,568.371C378.997,539.943 380.965,403.086 378.71,387.469C374.498,358.308 366.059,359.581 368.584,353.418Z" style="fill:rgb(17,152,149);"/>
        </g>
        <g transform="matrix(0.728699,0,0,0.728699,0,0)">
            <path d="M794.553,391.499C794.283,408.95 794.553,726.781 794.477,742.5C793.932,856.452 645.501,853.953 644.873,758.5C644.778,743.948 644.02,628.627 645.063,576.603C646.688,570.449 649.223,572.072 723.433,491.436C799.921,408.325 788.863,398.17 793.127,392.5C793.476,392.036 794.204,391.963 794.553,391.499Z" style="fill:rgb(10,119,125);"/>
        </g>
        <g transform="matrix(0.728699,0,0,0.728699,0,0)">
            <path d="M352.632,273.654C291.006,322.436 206.396,250.685 249.947,181.787C281.993,131.093 374.913,142.2 378.03,220.496C379.202,249.911 356.146,270.513 352.632,273.654Z" style="fill:rgb(14,152,151);"/>
        </g>
        <g transform="matrix(0.728699,0,0,0.728699,0,0)">
            <path d="M748.458,282.423C679.892,312.579 617.745,237.969 663.982,175.874C691.511,138.903 768.978,138.918 785.54,204.49C791.977,229.978 780.264,250.867 778.291,254.385C768.646,271.586 751.344,280.874 748.458,282.423Z" style="fill:rgb(14,150,150);"/>
        </g>
        <g transform="matrix(0.728699,0,0,0.728699,0,0)">
            <path d="M538.496,784.497C533.028,791.857 530.481,790.866 501.502,790.834C474.08,790.804 485.888,766.622 483.576,747.492C482.67,740.002 438.134,755.372 437.399,733.506C436.248,699.275 438.468,696.877 440.591,694.585C449.508,684.954 482.596,694.214 483.488,688.498C485.413,676.162 476.251,646.157 497.499,645.469C530.805,644.391 533.746,646.912 536.1,648.929C545.746,657.197 536.523,690.114 542.531,690.243C566.959,690.767 587.472,686.095 587.683,703.5C588.059,734.538 588.825,744.875 575.493,745.417C562.596,745.941 541.544,744.428 540.687,746.575C539.127,750.48 543.087,774.79 538.496,784.497Z" style="fill:rgb(11,128,134);"/>
        </g>
    </g>
    <g transform="matrix(0.728699,0,0,0.728699,0,0)">
        <path d="M1022.5,1023.999L77.5,1023.999C6.127,1023.999 6.08,1025.214 0,1023.999C-0.49,1023.901 0.49,1022.598 0,1022.5C9.104,1022.258 1017.404,1022.248 1022.511,1022.507L1022.5,1023.999Z" style="fill:rgb(82,82,82);fill-opacity:0.11;"/>
    </g>
    <g transform="matrix(0.728699,0,0,0.728699,0,0)">
        <path d="M1022.5,0C1022.853,0.353 1023.646,-0.353 1023.999,0L1023.999,946.5C1023.999,1017.872 1025.214,1017.919 1023.999,1023.999C1023.901,1024.489 1022.598,1023.509 1022.5,1023.999L1022.511,1022.507C1023.1,1019.258 1023.121,4.212 1022.5,0Z" style="fill:rgb(63,63,63);fill-opacity:0.08;"/>
    </g>
</svg>
